<svg version="1.1" xmlns="http://www.w3.org/2000/svg" xmlns:xlink="http://www.w3.org/1999/xlink" width="79.5" height="34.75" viewBox="0,0,79.5,34.75"><g transform="translate(-200.25,-162.625)"><g data-paper-data="{&quot;isPaintingLayer&quot;:true}" fill-rule="nonzero" stroke-linecap="butt" stroke-linejoin="miter" stroke-miterlimit="10" stroke-dasharray="" stroke-dashoffset="0" style="mix-blend-mode: normal"><path d="M200.75,196.625c0,0 -0.5,0.07486 -0.5,-1.08334c0,-6.37656 0,-27.39528 0,-31c0,-1.02913 0.75,-1.66666 0.75,-1.66666c0,0 0.27803,-0.25 1.625,-0.25c6.9776,0 65.0021,0 75.5,0c1.05041,0 1.375,0.25 1.375,0.25c0,0 0.25,0.63753 0.25,1.66666c0,3.65335 0,25.19373 0,31.25c0,1.00476 -0.5,1.33334 -0.5,1.33334c0,0 -0.64794,0.25 -2.125,0.25c-7.3234,0 -65.75715,0 -75.5,0c-0.8912,0 -0.875,-0.75 -0.875,-0.75z" fill="#6afffc" stroke="none" stroke-width="0"/><text transform="translate(220,185.76875) scale(0.5,0.5)" font-size="40" xml:space="preserve" fill="#3d8498" fill-rule="nonzero" stroke="#3d8498" stroke-width="1" stroke-linecap="butt" stroke-linejoin="miter" stroke-miterlimit="10" stroke-dasharray="" stroke-dashoffset="0" font-family="&quot;Microsoft YaHei&quot;, &quot;微软雅黑&quot;, STXihei, &quot;华文细黑&quot;" font-weight="normal" text-anchor="start" style="mix-blend-mode: normal"><tspan x="0" dy="0">登录</tspan></text></g></g></svg>