<svg version="1.1" xmlns="http://www.w3.org/2000/svg" xmlns:xlink="http://www.w3.org/1999/xlink" width="29.63636" height="27.90181" viewBox="0,0,29.63636,27.90181"><g transform="translate(-224.81818,-165.51837)"><g data-paper-data="{&quot;isPaintingLayer&quot;:true}" fill-rule="nonzero" stroke="none" stroke-linecap="butt" stroke-linejoin="miter" stroke-miterlimit="10" stroke-dasharray="" stroke-dashoffset="0" style="mix-blend-mode: normal"><path d="M225.75282,193.19959v-26.75359h2.21398c0.26585,0.02148 0.53463,0.03243 0.80593,0.03243c0.2713,0 0.54008,-0.01094 0.80593,-0.03243h24.66852v0.99114c-0.10105,0.27507 -0.15627,0.57274 -0.15627,0.88348c0,0.31074 0.05522,0.60841 0.15627,0.88348v23.99549z" fill="#ffffff" stroke-width="0"/><path d="M227.125,173.87021c0,-0.83937 0.67157,-1.51981 1.5,-1.51981c0.82843,0 1.5,0.68044 1.5,1.51981c0,0.83937 -0.67157,1.51981 -1.5,1.51981c-0.82843,0 -1.5,-0.68044 -1.5,-1.51981z" fill-opacity="0.81569" fill="#a97a39" stroke-width="0.5"/><path d="M228.375,175.39002c0,-0.83937 0.67157,-1.51981 1.5,-1.51981c0.82843,0 1.5,0.68044 1.5,1.51981c0,0.83937 -0.67157,1.51981 -1.5,1.51981c-0.82843,0 -1.5,-0.68044 -1.5,-1.51981z" fill-opacity="0.81569" fill="#a8a539" stroke-width="0.5"/><path d="M236.375,175.13672c0,-0.83937 0.67157,-1.51981 1.5,-1.51981c0.82843,0 1.5,0.68044 1.5,1.51981c0,0.83937 -0.67157,1.51981 -1.5,1.51981c-0.82843,0 -1.5,-0.68044 -1.5,-1.51981z" fill-opacity="0.81569" fill="#a8a539" stroke-width="0.5"/><path d="M238.875,180.96265c0,-0.83937 0.67157,-1.51981 1.5,-1.51981c0.82843,0 1.5,0.68044 1.5,1.51981c0,0.83937 -0.67157,1.51981 -1.5,1.51981c-0.82843,0 -1.5,-0.68044 -1.5,-1.51981z" fill-opacity="0.81569" fill="#a8a539" stroke-width="0.5"/><path d="M228.125,182.22915c0,-0.83937 0.67157,-1.51981 1.5,-1.51981c0.82843,0 1.5,0.68044 1.5,1.51981c0,0.83937 -0.67157,1.51981 -1.5,1.51981c-0.82843,0 -1.5,-0.68044 -1.5,-1.51981z" fill-opacity="0.81569" fill="#a8a539" stroke-width="0.5"/><path d="M237.125,188.30838c0,-0.83937 0.67157,-1.51981 1.5,-1.51981c0.82843,0 1.5,0.68044 1.5,1.51981c0,0.83937 -0.67157,1.51981 -1.5,1.51981c-0.82843,0 -1.5,-0.68044 -1.5,-1.51981z" fill-opacity="0.81569" fill="#a8a539" stroke-width="0.5"/><path d="M244.625,174.63012c0,-0.83937 0.67157,-1.51981 1.5,-1.51981c0.82843,0 1.5,0.68044 1.5,1.51981c0,0.83937 -0.67157,1.51981 -1.5,1.51981c-0.82843,0 -1.5,-0.68044 -1.5,-1.51981z" fill-opacity="0.81569" fill="#a8a539" stroke-width="0.5"/><path d="M245.125,180.96265c0,-0.83937 0.67157,-1.51981 1.5,-1.51981c0.82843,0 1.5,0.68044 1.5,1.51981c0,0.83937 -0.67157,1.51981 -1.5,1.51981c-0.82843,0 -1.5,-0.68044 -1.5,-1.51981z" fill-opacity="0.81569" fill="#a8a539" stroke-width="0.5"/><path d="M241.125,184.76217c0,-0.83937 0.67157,-1.51981 1.5,-1.51981c0.82843,0 1.5,0.68044 1.5,1.51981c0,0.83937 -0.67157,1.51981 -1.5,1.51981c-0.82843,0 -1.5,-0.68044 -1.5,-1.51981z" fill-opacity="0.81569" fill="#a8a539" stroke-width="0.5"/><path d="M227.625,187.04188c0,-0.83937 0.67157,-1.51981 1.5,-1.51981c0.82843,0 1.5,0.68044 1.5,1.51981c0,0.83937 -0.67157,1.51981 -1.5,1.51981c-0.82843,0 -1.5,-0.68044 -1.5,-1.51981z" fill-opacity="0.81569" fill="#a8a539" stroke-width="0.5"/><path d="M245.125,189.06829c0,-0.83937 0.67157,-1.51981 1.5,-1.51981c0.82843,0 1.5,0.68044 1.5,1.51981c0,0.83937 -0.67157,1.51981 -1.5,1.51981c-0.82843,0 -1.5,-0.68044 -1.5,-1.51981z" fill-opacity="0.81569" fill="#a8a539" stroke-width="0.5"/><path d="M232.125,182.48245c0,-0.83937 0.67157,-1.51981 1.5,-1.51981c0.82843,0 1.5,0.68044 1.5,1.51981c0,0.83937 -0.67157,1.51981 -1.5,1.51981c-0.82843,0 -1.5,-0.68044 -1.5,-1.51981z" fill-opacity="0.81569" fill="#a8a539" stroke-width="0.5"/><path d="M234.375,169.56409c0,-0.83937 0.67157,-1.51981 1.5,-1.51981c0.82843,0 1.5,0.68044 1.5,1.51981c0,0.83937 -0.67157,1.51981 -1.5,1.51981c-0.82843,0 -1.5,-0.68044 -1.5,-1.51981z" fill-opacity="0.81569" fill="#a8a539" stroke-width="0.5"/><path d="M246.125,169.56409c0,-0.83937 0.67157,-1.51981 1.5,-1.51981c0.82843,0 1.5,0.68044 1.5,1.51981c0,0.83937 -0.67157,1.51981 -1.5,1.51981c-0.82843,0 -1.5,-0.68044 -1.5,-1.51981z" fill-opacity="0.81569" fill="#a8a539" stroke-width="0.5"/><path d="M249.375,176.65653c0,-0.83937 0.67157,-1.51981 1.5,-1.51981c0.82843,0 1.5,0.68044 1.5,1.51981c0,0.83937 -0.67157,1.51981 -1.5,1.51981c-0.82843,0 -1.5,-0.68044 -1.5,-1.51981z" fill-opacity="0.81569" fill="#a8a539" stroke-width="0.5"/><path d="M250.375,185.01547c0,-0.83937 0.67157,-1.51981 1.5,-1.51981c0.82843,0 1.5,0.68044 1.5,1.51981c0,0.83937 -0.67157,1.51981 -1.5,1.51981c-0.82843,0 -1.5,-0.68044 -1.5,-1.51981z" fill-opacity="0.81569" fill="#a8a539" stroke-width="0.5"/><path d="M240.625,189.32159c0,-0.83937 0.67157,-1.51981 1.5,-1.51981c0.82843,0 1.5,0.68044 1.5,1.51981c0,0.83937 -0.67157,1.51981 -1.5,1.51981c-0.82843,0 -1.5,-0.68044 -1.5,-1.51981z" fill-opacity="0.81569" fill="#a8a539" stroke-width="0.5"/><path d="M229.875,190.08149c0,-0.83937 0.67157,-1.51981 1.5,-1.51981c0.82843,0 1.5,0.68044 1.5,1.51981c0,0.83937 -0.67157,1.51981 -1.5,1.51981c-0.82843,0 -1.5,-0.68044 -1.5,-1.51981z" fill-opacity="0.81569" fill="#a8a539" stroke-width="0.5"/><path d="M236.125,182.48245c0,-0.83937 0.67157,-1.51981 1.5,-1.51981c0.82843,0 1.5,0.68044 1.5,1.51981c0,0.83937 -0.67157,1.51981 -1.5,1.51981c-0.82843,0 -1.5,-0.68044 -1.5,-1.51981z" fill-opacity="0.81569" fill="#a8a539" stroke-width="0.5"/><path d="M228.625,169.81739c0,-0.83937 0.67157,-1.51981 1.5,-1.51981c0.82843,0 1.5,0.68044 1.5,1.51981c0,0.83937 -0.67157,1.51981 -1.5,1.51981c-0.82843,0 -1.5,-0.68044 -1.5,-1.51981z" fill-opacity="0.81569" fill="#a8a539" stroke-width="0.5"/><path d="M235.125,178.93624c0,-0.34969 0.11656,-0.67179 0.31246,-0.9286c-0.48257,-0.2526 -0.81246,-0.76282 -0.81246,-1.35111c0,-0.69229 0.45684,-1.27647 1.08173,-1.45994c0.10182,-0.12793 0.22368,-0.23878 0.36076,-0.32768c-0.12257,-0.22023 -0.1925,-0.47454 -0.1925,-0.74539c0,-0.83937 0.67157,-1.51981 1.5,-1.51981c0.82843,0 1.5,0.68044 1.5,1.51981c0,0.53814 -0.27605,1.01096 -0.6925,1.28102c0.12257,0.22023 0.1925,0.47454 0.1925,0.74539c0,0.67687 -0.43671,1.25039 -1.04023,1.44708c0.47044,0.25649 0.79023,0.76003 0.79023,1.33923c0,0.83937 -0.67157,1.51981 -1.5,1.51981c-0.82843,0 -1.5,-0.68044 -1.5,-1.51981z" fill-opacity="0.81569" fill="#a87439" stroke-width="0.5"/><path d="M233.875,183.74896c0,-0.83937 0.67157,-1.51981 1.5,-1.51981c0.82843,0 1.5,0.68044 1.5,1.51981c0,0.83937 -0.67157,1.51981 -1.5,1.51981c-0.82843,0 -1.5,-0.68044 -1.5,-1.51981z" fill-opacity="0.81569" fill="#a87439" stroke-width="0.5"/><path d="M242.625,180.96265c0,-0.83937 0.67157,-1.51981 1.5,-1.51981c0.82843,0 1.5,0.68044 1.5,1.51981c0,0.83937 -0.67157,1.51981 -1.5,1.51981c-0.82843,0 -1.5,-0.68044 -1.5,-1.51981z" fill-opacity="0.81569" fill="#a87439" stroke-width="0.5"/><path d="M250.125,170.5773c0.82843,0 1.5,0.68044 1.5,1.51981c0,0.83937 -0.67157,1.51981 -1.5,1.51981c-0.57926,0 -1.08183,-0.33269 -1.33175,-0.81975c-0.27496,0.34546 -0.69613,0.56645 -1.16825,0.56645c-0.82843,0 -1.5,-0.68044 -1.5,-1.51981c0,-0.83937 0.67157,-1.51981 1.5,-1.51981c0.57926,0 1.08183,0.33269 1.33175,0.81975c0.27496,-0.34546 0.69613,-0.56645 1.16825,-0.56645z" fill-opacity="0.81569" fill="#a87439" stroke-width="0.5"/><path d="M247.375,185.77537c0,-0.19334 0.03563,-0.37824 0.1006,-0.54835c-0.11247,0.02729 -0.22987,0.04174 -0.3506,0.04174c-0.82843,0 -1.5,-0.68044 -1.5,-1.51981c0,-0.83937 0.67157,-1.51981 1.5,-1.51981c0.82843,0 1.5,0.68044 1.5,1.51981c0,0.19334 -0.03563,0.37824 -0.1006,0.54835c0.11247,-0.02729 0.22987,-0.04174 0.3506,-0.04174c0.82843,0 1.5,0.68044 1.5,1.51981c0,0.83937 -0.67157,1.51981 -1.5,1.51981c-0.82843,0 -1.5,-0.68044 -1.5,-1.51981z" fill-opacity="0.81569" fill="#a87439" stroke-width="0.5"/><path d="M238.125,188.05508c0,-0.83937 0.67157,-1.51981 1.5,-1.51981c0.82843,0 1.5,0.68044 1.5,1.51981c0,0.83937 -0.67157,1.51981 -1.5,1.51981c-0.82843,0 -1.5,-0.68044 -1.5,-1.51981z" fill-opacity="0.81569" fill="#a87439" stroke-width="0.5"/><path d="M228.375,179.18954c0,-0.83937 0.67157,-1.51981 1.5,-1.51981c0.82843,0 1.5,0.68044 1.5,1.51981c0,0.83937 -0.67157,1.51981 -1.5,1.51981c-0.82843,0 -1.5,-0.68044 -1.5,-1.51981z" fill-opacity="0.81569" fill="#a87439" stroke-width="0.5"/><path d="M232.125,185.52207c0.82843,0 1.5,0.68044 1.5,1.51981c0,0.83937 -0.67157,1.51981 -1.5,1.51981c-0.53113,0 -0.99778,-0.2797 -1.26432,-0.70164c-0.21736,0.12419 -0.46836,0.19504 -0.73568,0.19504c-0.82843,0 -1.5,-0.68044 -1.5,-1.51981c0,-0.83937 0.67157,-1.51981 1.5,-1.51981c0.53113,0 0.99778,0.2797 1.26432,0.70164c0.21736,-0.12419 0.46836,-0.19504 0.73568,-0.19504z" fill-opacity="0.81569" fill="#a87439" stroke-width="0.5"/><path d="M234.375,189.82819c0,-0.83937 0.67157,-1.51981 1.5,-1.51981c0.82843,0 1.5,0.68044 1.5,1.51981c0,0.83937 -0.67157,1.51981 -1.5,1.51981c-0.82843,0 -1.5,-0.68044 -1.5,-1.51981z" fill-opacity="0.81569" fill="#a87439" stroke-width="0.5"/><path d="M248.875,177.41643c0,-0.83937 0.67157,-1.51981 1.5,-1.51981c0.82843,0 1.5,0.68044 1.5,1.51981c0,0.83937 -0.67157,1.51981 -1.5,1.51981c-0.82843,0 -1.5,-0.68044 -1.5,-1.51981z" fill-opacity="0.81569" fill="#a87439" stroke-width="0.5"/><path d="M241.375,173.61691c0,-0.83937 0.67157,-1.51981 1.5,-1.51981c0.82843,0 1.5,0.68044 1.5,1.51981c0,0.83937 -0.67157,1.51981 -1.5,1.51981c-0.82843,0 -1.5,-0.68044 -1.5,-1.51981z" fill-opacity="0.81569" fill="#a87439" stroke-width="0.5"/><path d="M240.875,176.90983c0,-0.83937 0.67157,-1.51981 1.5,-1.51981c0.82843,0 1.5,0.68044 1.5,1.51981c0,0.83937 -0.67157,1.51981 -1.5,1.51981c-0.82843,0 -1.5,-0.68044 -1.5,-1.51981z" fill-opacity="0.81569" fill="#a87439" stroke-width="0.5"/><path d="M250.875,190.84139c0,-0.83937 0.67157,-1.51981 1.5,-1.51981c0.82843,0 1.5,0.68044 1.5,1.51981c0,0.83937 -0.67157,1.51981 -1.5,1.51981c-0.82843,0 -1.5,-0.68044 -1.5,-1.51981z" fill-opacity="0.81569" fill="#a87439" stroke-width="0.5"/><path d="M246.375,191.348c0,-0.83937 0.67157,-1.51981 1.5,-1.51981c0.82843,0 1.5,0.68044 1.5,1.51981c0,0.83937 -0.67157,1.51981 -1.5,1.51981c-0.82843,0 -1.5,-0.68044 -1.5,-1.51981z" fill-opacity="0.81569" fill="#a87439" stroke-width="0.5"/><path d="M251.125,187.54848c0,-0.83937 0.67157,-1.51981 1.5,-1.51981c0.82843,0 1.5,0.68044 1.5,1.51981c0,0.83937 -0.67157,1.51981 -1.5,1.51981c-0.82843,0 -1.5,-0.68044 -1.5,-1.51981z" fill-opacity="0.81569" fill="#a87439" stroke-width="0.5"/><path d="M239.625,191.0947c0,-0.83937 0.67157,-1.51981 1.5,-1.51981c0.82843,0 1.5,0.68044 1.5,1.51981c0,0.83937 -0.67157,1.51981 -1.5,1.51981c-0.82843,0 -1.5,-0.68044 -1.5,-1.51981z" fill-opacity="0.81569" fill="#a87439" stroke-width="0.5"/><path d="M250.125,180.45605c0,-0.83937 0.67157,-1.51981 1.5,-1.51981c0.82843,0 1.5,0.68044 1.5,1.51981c0,0.83937 -0.67157,1.51981 -1.5,1.51981c-0.82843,0 -1.5,-0.68044 -1.5,-1.51981z" fill-opacity="0.81569" fill="#a87439" stroke-width="0.5"/><path d="M244.875,177.92303c0,-0.83937 0.67157,-1.51981 1.5,-1.51981c0.82843,0 1.5,0.68044 1.5,1.51981c0,0.83937 -0.67157,1.51981 -1.5,1.51981c-0.82843,0 -1.5,-0.68044 -1.5,-1.51981z" fill-opacity="0.81569" fill="#a87439" stroke-width="0.5"/><path d="M238.375,168.04429c0,-0.83937 0.67157,-1.51981 1.5,-1.51981c0.82843,0 1.5,0.68044 1.5,1.51981c0,0.3923 -0.1467,0.74988 -0.38755,1.01951c0.0453,-0.00417 0.09118,-0.0063 0.13755,-0.0063c0.82843,0 1.5,0.68044 1.5,1.51981c0,0.83937 -0.67157,1.51981 -1.5,1.51981c-0.82843,0 -1.5,-0.68044 -1.5,-1.51981c0,-0.3923 0.1467,-0.74988 0.38755,-1.01951c-0.0453,0.00417 -0.09118,0.0063 -0.13755,0.0063c-0.82843,0 -1.5,-0.68044 -1.5,-1.51981z" fill-opacity="0.81569" fill="#a87439" stroke-width="0.5"/><path d="M231.125,173.36361c0,-0.83937 0.67157,-1.51981 1.5,-1.51981c0.82843,0 1.5,0.68044 1.5,1.51981c0,0.83937 -0.67157,1.51981 -1.5,1.51981c-0.82843,0 -1.5,-0.68044 -1.5,-1.51981z" fill-opacity="0.81569" fill="#a87439" stroke-width="0.5"/><path d="M244.625,167.79099c0,-0.83937 0.67157,-1.51981 1.5,-1.51981c0.82843,0 1.5,0.68044 1.5,1.51981c0,0.83937 -0.67157,1.51981 -1.5,1.51981c-0.82843,0 -1.5,-0.68044 -1.5,-1.51981z" fill-opacity="0.81569" fill="#a87439" stroke-width="0.5"/><path d="M227.125,167.53768c0,-0.44652 0.19005,-0.84806 0.49266,-1.12612c0.37898,0.04417 0.76441,0.06686 1.15506,0.06686c0.29947,0 0.59587,-0.01333 0.88865,-0.03946c0.28568,0.27672 0.46362,0.66666 0.46362,1.09872c0,0.83937 -0.67157,1.51981 -1.5,1.51981c-0.82843,0 -1.5,-0.68044 -1.5,-1.51981z" fill-opacity="0.81569" fill="#a87439" stroke-width="0.5"/><path d="M225.81818,191.90065c0,-0.83937 0.67157,-1.51981 1.5,-1.51981c0.42817,0 0.81444,0.18177 1.08775,0.4733c0.16992,-0.06769 0.35498,-0.10487 0.54862,-0.10487c0.82843,0 1.5,0.68044 1.5,1.51981c0,0.4277 -0.17437,0.81414 -0.45501,1.09031c-0.24321,-0.07995 -0.50275,-0.12317 -0.77226,-0.12317c-0.17123,0 -0.33845,0.01745 -0.5,0.05067c-0.16155,-0.03322 -0.32877,-0.05067 -0.5,-0.05067c-0.33138,0 -0.6477,0.06532 -0.9371,0.18396c-0.8155,-0.01513 -1.47199,-0.68966 -1.47199,-1.51954z" fill-opacity="0.81569" fill="#a87439" stroke-width="0.5"/><path d="M251.90909,168.41273c0,-0.83937 0.67157,-1.51981 1.5,-1.51981c0.35109,0 0.67401,0.12221 0.92958,0.32695c-0.15876,0.33287 -0.24776,0.70627 -0.24776,1.10076c0,0.44602 0.11378,0.86512 0.31353,1.22913c-0.26482,0.23815 -0.61341,0.38279 -0.99535,0.38279c-0.82843,0 -1.5,-0.68044 -1.5,-1.51981z" fill-opacity="0.81569" fill="#a87439" stroke-width="0.5"/><path d="M246.18182,189.78214c0,-0.32681 0.10181,-0.62952 0.27504,-0.87736c-0.04506,0.00154 -0.09127,0.00232 -0.13867,0.00232c-1.06954,0 -2.44321,-2.54615 -1.29272,-3.21225c0.26093,-0.44795 0.74219,-0.74845 1.29272,-0.74845c0.57719,0 1.07824,0.3303 1.32906,0.81454c0.27247,-0.38186 0.7158,-0.63031 1.2164,-0.63031c0.82843,0 1.5,0.68044 1.5,1.51981c0,0.01358 -0.00018,0.02712 -0.00053,0.04061c0.15654,-0.05612 0.32501,-0.08667 0.50053,-0.08667c0.82843,0 1.5,0.68044 1.5,1.51981c0,0.83937 -0.67157,1.51981 -1.5,1.51981c-0.82843,0 -1.5,-0.68044 -1.5,-1.51981c0,-0.01358 0.00018,-0.02712 0.00053,-0.04061c-0.15654,0.05612 -0.32501,0.08667 -0.50053,0.08667c-0.33324,0 -0.64109,-0.1101 -0.89007,-0.29636c-0.01716,0.1428 -0.05685,0.27682 -0.12299,0.39798c0.74898,0.08497 1.33124,0.72874 1.33124,1.51029c0,0.83937 -0.67157,1.51981 -1.5,1.51981c-0.82843,0 -1.5,-0.68044 -1.5,-1.51981z" fill-opacity="0.67059" fill="#459c4c" stroke-width="0.5"/><path d="M250.18182,178.26844c0,-0.83937 0.67157,-1.51981 1.5,-1.51981c0.82843,0 1.5,0.68044 1.5,1.51981c0,0.83937 -0.67157,1.51981 -1.5,1.51981c-0.82843,0 -1.5,-0.68044 -1.5,-1.51981z" fill-opacity="0.67059" fill="#459c4c" stroke-width="0.5"/><path d="M245.72727,170.80757c0,-0.83937 0.67157,-1.51981 1.5,-1.51981c0.82843,0 1.5,0.68044 1.5,1.51981c0,0.83937 -0.67157,1.51981 -1.5,1.51981c-0.82843,0 -1.5,-0.68044 -1.5,-1.51981z" fill-opacity="0.67059" fill="#459c4c" stroke-width="0.5"/><path d="M237.72727,190.24268c0,-0.83937 0.67157,-1.51981 1.5,-1.51981c0.82843,0 1.5,0.68044 1.5,1.51981c0,0.83937 -0.67157,1.51981 -1.5,1.51981c-0.82843,0 -1.5,-0.68044 -1.5,-1.51981z" fill-opacity="0.67059" fill="#459c4c" stroke-width="0.5"/><path d="M232.93636,188.68603c0.46054,-0.62216 3.11261,-0.7286 2.94835,0.60288c0.07427,0.18016 0.11529,0.37789 0.11529,0.58533c0,0.83937 -0.67157,1.51981 -1.5,1.51981c-0.40906,0 -0.77988,-0.1659 -1.05049,-0.43493c-0.96367,-0.13188 -1.44766,-1.01062 -0.51315,-2.27309z" fill-opacity="0.67059" fill="#459c4c" stroke-width="0.5"/><path d="M237.72159,176.17295c-0.30962,0.31371 -0.72936,0.46636 -1.16045,0.49236c0.01873,0.13756 0.02535,0.29194 0.01826,0.46435c0.21808,-0.12528 0.47018,-0.19682 0.73878,-0.19682c0.18139,0 0.35526,0.03263 0.51621,0.09239c0.00973,-0.00019 0.01947,-0.00028 0.02924,-0.00028c0.82843,0 1.5,0.68044 1.5,1.51981c0,0.13351 -0.01699,0.263 -0.0489,0.38637c0.09479,0.22104 0.17838,0.44917 0.24873,0.67883c-0.01185,-0.07697 -0.01801,-0.15586 -0.01801,-0.23621c0,-0.83937 0.67157,-1.51981 1.5,-1.51981c0.29383,0 0.56793,0.0856 0.79933,0.23353c0.25531,-0.20395 0.5776,-0.32564 0.92795,-0.32564c0.82843,0 1.5,0.68044 1.5,1.51981c0,0.611 -0.35585,1.13779 -0.86902,1.3792c0.65544,0.16274 1.14175,0.76192 1.14175,1.47619c0,0.83937 -0.67157,1.51981 -1.5,1.51981c-0.57858,0 -1.08064,-0.3319 -1.33086,-0.81803c0.01805,0.23313 -0.02652,0.47332 -0.14568,0.71478c-0.1368,0.27722 -0.60532,0.43195 -1.22549,0.48519c-0.24033,0.16587 -0.5307,0.26283 -0.84342,0.26283c-0.35354,0 -0.67851,-0.12393 -0.93491,-0.33124c-1.5055,-0.20644 -3.01223,-0.75266 -3.05142,-1.46745c-0.02096,-0.03272 -0.04071,-0.0663 -0.0592,-0.10069c-0.07942,0.02276 -0.16152,0.03905 -0.24571,0.04829c0.08275,0.64609 0.0065,1.23577 -0.21444,1.45963c-0.8588,0.87014 -2.21373,0.22286 -3.0025,-0.70496c-0.00087,0.02372 -0.00248,0.04733 -0.00483,0.07084c1.14615,0.76943 1.84948,2.96929 -0.27468,3.58069c-0.17734,0.07478 -0.37188,0.11606 -0.57595,0.11606c-0.82843,0 -1.5,-0.68044 -1.5,-1.51981c0,-0.0375 0.00134,-0.07468 0.00398,-0.11149c-0.27051,0.26841 -0.6409,0.43388 -1.04943,0.43388c-0.4763,0 -0.90074,-0.22492 -1.17552,-0.57566c-0.15592,-0.11952 -0.2504,-0.28573 -0.26067,-0.50418c-0.01906,-0.06397 -0.03408,-0.12972 -0.04474,-0.19695c-0.43326,0.19934 -0.85706,-0.09819 -1.13818,-0.57459c-0.20973,-0.26142 -0.33544,-0.59482 -0.33544,-0.95796c0,-0.03897 0.00145,-0.0776 0.00429,-0.11583c-0.04959,-0.75092 0.29334,-1.45255 1.32638,-1.3944c0.05558,-0.00632 0.11208,-0.00957 0.16933,-0.00957c0.23474,0 0.45689,0.05463 0.65474,0.15204c0.39829,0.15431 0.6361,0.39768 0.73692,0.68395c0.93992,-0.61941 2.12039,-0.88077 2.84146,-0.36454c-0.01643,-0.18946 0.00972,-0.36798 0.08733,-0.52524c-0.00151,-0.02793 -0.00227,-0.05606 -0.00227,-0.08438c0,-0.83937 0.67157,-1.51981 1.5,-1.51981c0.3216,0 0.61956,0.10255 0.86377,0.27712c0.20397,-0.29337 0.50783,-0.51032 0.86146,-0.60008c0.02605,-0.13275 0.05797,-0.25316 0.09513,-0.36192c0.02255,-0.066 0.04702,-0.1277 0.07326,-0.18527c-0.4443,0.08938 -0.84911,0.03951 -1.01856,-0.26095c-0.44211,-0.26438 -0.7387,-0.75199 -0.7387,-1.30979c0,-0.83937 0.67157,-1.51981 1.5,-1.51981c0.04679,0 0.09307,0.00217 0.13876,0.00641c-0.15575,-0.28082 -0.18019,-0.61641 -0.00013,-0.9813c-0.00151,-0.02793 -0.00227,-0.05606 -0.00227,-0.08438c0,-0.83937 0.67157,-1.51981 1.5,-1.51981c0.40624,0 0.77476,0.16362 1.04487,0.42938c0.17891,0.10142 0.32131,0.25764 0.43017,0.44428c0.03627,-0.26499 0.13685,-0.4779 0.32314,-0.58575c0.26093,-0.44795 0.74219,-0.74845 1.29272,-0.74845c0.82843,0 1.5,0.68044 1.5,1.51981c0,0.30534 -0.08887,0.58963 -0.24183,0.82781c-0.02801,1.14812 -0.78852,2.07347 -2.0199,1.36053c-0.219,-0.12679 -0.43957,-0.46572 -0.60382,-0.87339c-0.03931,0.23774 -0.11809,0.43583 -0.23104,0.55027zM241.54545,182.13704c0,-0.611 0.35585,-1.13779 0.86902,-1.3792c-0.1584,-0.03933 -0.30691,-0.10415 -0.44108,-0.18992c-0.25531,0.20395 -0.5776,0.32564 -0.92795,0.32564c-0.62581,0 -1.16211,-0.3883 -1.38701,-0.94008c0.07919,0.32124 0.13049,0.64002 0.14829,0.94116c0.01888,-0.00071 0.03785,-0.00107 0.05691,-0.00107c0.64113,0 1.18831,0.40754 1.40296,0.98089c0.11595,0.13134 0.21243,0.26942 0.28607,0.41259c-0.00477,-0.04934 -0.00721,-0.09939 -0.00721,-0.15z" fill-opacity="0.67059" fill="#459c4c" stroke-width="0.5"/><path d="M231.63636,172.09711c0,-0.83937 0.67157,-1.51981 1.5,-1.51981c0.32938,0 0.63396,0.10756 0.8814,0.28992c0.77141,-0.16444 1.47621,0.26597 1.34588,1.59833c-0.0116,0.11863 -0.04306,0.24052 -0.09092,0.36277c0.00001,0.00189 0.00001,0.00378 0.00001,0.00567c0,0.83937 -0.67157,1.51981 -1.5,1.51981c-0.03172,0 -0.06321,-0.00099 -0.09444,-0.00296c-0.66944,0.24784 -1.29604,0.07078 -1.35608,-0.97704c-0.41273,-0.27076 -0.68585,-0.7414 -0.68585,-1.27668z" fill-opacity="0.67059" fill="#459c4c" stroke-width="0.5"/><path d="M230.37884,178.14568c-0.9986,1.01179 -3.95056,-0.51169 -3.60405,-1.799c-0.03102,-0.12175 -0.04752,-0.24941 -0.04752,-0.38099c0,-0.83937 0.67157,-1.51981 1.5,-1.51981c0.38201,0 0.73066,0.14469 0.9955,0.38292c1.41305,0.30691 1.93005,2.53267 1.15607,3.31687z" fill-opacity="0.67059" fill="#459c4c" stroke-width="0.5"/><path d="M242.59091,192.49936c-0.83788,0 -2.44111,-2.17893 -1.29272,-2.84382c0.26093,-0.44795 0.74219,-0.74845 1.29272,-0.74845c0.82843,0 1.5,0.68044 1.5,1.51981c0,0.09204 -0.00808,0.18217 -0.02355,0.2697c0.38732,0.90835 0.24145,1.80276 -1.47645,1.80276z" fill-opacity="0.67059" fill="#459c4c" stroke-width="0.5"/><path d="M247.53977,181.4232c-0.43324,0.43896 -3.52413,0.96761 -3.03771,-0.83947c-0.03102,-0.12175 -0.04752,-0.24941 -0.04752,-0.38099c0,-0.83937 0.67157,-1.51981 1.5,-1.51981c0.40166,0 0.76646,0.15995 1.03571,0.42044c0.84131,0.40876 0.96987,1.89392 0.54952,2.31982z" fill-opacity="0.67059" fill="#459c4c" stroke-width="0.5"/><path d="M248.18182,183.42658c0,-0.83937 0.67157,-1.51981 1.5,-1.51981c0.82843,0 1.5,0.68044 1.5,1.51981c0,0.83937 -0.67157,1.51981 -1.5,1.51981c-0.82843,0 -1.5,-0.68044 -1.5,-1.51981z" fill-opacity="0.67059" fill="#459c4c" stroke-width="0.5"/><path d="M247.36364,174.39985c0,-0.83937 0.67157,-1.51981 1.5,-1.51981c0.6638,0 1.2269,0.43688 1.42448,1.04233c0.23977,-0.4245 0.67582,-0.72057 1.18282,-0.76122c0.10751,-0.73244 0.7308,-1.29432 1.4836,-1.29432c0.82843,0 1.5,0.68044 1.5,1.51981c0,0.74396 -0.52758,1.36307 -1.22435,1.4942c-0.05901,0.16073 -0.17596,0.34887 -0.329,0.5357c-0.16569,0.30039 -0.4291,0.53794 -0.74663,0.66849c-0.49872,0.31572 -1.03764,0.41039 -1.32496,-0.09906c-0.30991,-0.18532 -0.54831,-0.48033 -0.66318,-0.83232c-0.25849,0.45763 -0.7451,0.766 -1.30279,0.766c-0.19858,0 -0.38814,-0.0391 -0.56161,-0.1101c0.04009,0.13708 0.06161,0.28224 0.06161,0.4325c0,0.83937 -0.67157,1.51981 -1.5,1.51981c-0.82843,0 -1.5,-0.68044 -1.5,-1.51981c0,-0.83937 0.67157,-1.51981 1.5,-1.51981c0.19858,0 0.38814,0.0391 0.56161,0.1101c-0.04009,-0.13708 -0.06161,-0.28224 -0.06161,-0.4325z" fill-opacity="0.67059" fill="#459c4c" stroke-width="0.5"/><path d="M239.56891,171.02671c-0.13322,0.26972 -0.54085,0.515 -1.00453,0.65461c-0.11639,0.04349 -0.23956,0.07276 -0.36747,0.08576c-0.68783,0.11435 -1.37476,-0.03357 -1.41051,-0.68573c-0.07238,-0.11297 -0.13035,-0.2363 -0.17128,-0.36731c-0.9514,0.25482 -2.14447,0.2274 -2.19236,-0.6459c-0.15242,-0.23789 -0.24094,-0.52169 -0.24094,-0.82643c0,-0.83937 0.67157,-1.51981 1.5,-1.51981c0.32733,0 0.63016,0.10622 0.87677,0.28651c0.79065,-0.10511 1.45093,0.11089 1.56169,0.72854c0.39264,0.01954 0.74559,0.19204 1.00203,0.45993c0.69161,0.06187 1.0713,0.56513 0.44661,1.82981z" fill-opacity="0.67059" fill="#459c4c" stroke-width="0.5"/><path d="M243.18182,168.96538c0,-0.83937 0.67157,-1.51981 1.5,-1.51981c0.82843,0 1.5,0.68044 1.5,1.51981c0,0.83937 -0.67157,1.51981 -1.5,1.51981c-0.82843,0 -1.5,-0.68044 -1.5,-1.51981z" fill-opacity="0.67059" fill="#459c4c" stroke-width="0.5"/><path d="M242.53025,174.82974c-0.17189,-0.17416 -0.27143,-0.67111 -0.25628,-1.19638c-0.00083,-0.02073 -0.00125,-0.04156 -0.00125,-0.06249c0,-0.10843 0.01121,-0.21421 0.03251,-0.31621c0.09853,-0.70845 0.42706,-1.33904 1.09147,-1.15545c0.12016,-0.03143 0.24616,-0.04815 0.37602,-0.04815c0.82843,0 1.5,0.68044 1.5,1.51981c0,0.36957 -0.13019,0.70833 -0.34664,0.97176c-0.312,0.86128 -1.73629,0.95538 -2.39584,0.28712z" fill-opacity="0.67059" fill="#459c4c" stroke-width="0.5"/><path d="M233.27273,167.2153c0,0.73347 -1.02281,1.50234 -1.96186,1.71237c0.25794,0.27296 0.41641,0.64318 0.41641,1.05092c0,0.62827 -0.37626,1.16751 -0.91292,1.39899c-0.05537,0.78827 -0.70407,1.41035 -1.49617,1.41035c-0.09457,0 -0.1871,-0.00887 -0.27682,-0.02583c-0.27471,0.35235 -0.70015,0.57848 -1.17773,0.57848c-0.82843,0 -1.5,-0.68044 -1.5,-1.51981c0,-0.12471 0.01482,-0.24589 0.04278,-0.36187c-0.45618,-1.14696 -0.32398,-2.35536 1.45722,-2.35536c0.31892,0 0.63718,0.19118 0.91329,0.48576c0.14051,-0.53883 0.56576,-0.96043 1.10277,-1.08952c-0.41945,-0.26946 -0.69788,-0.74403 -0.69788,-1.28449c0,-0.83937 0.67157,-1.51981 1.5,-1.51981c0.12007,0 0.23684,0.0143 0.34875,0.04129c1.09755,-0.45074 2.24216,-0.31509 2.24216,1.47852z" fill-opacity="0.67059" fill="#459c4c" stroke-width="0.5"/><path d="M236.45455,186.09775c0,-0.83937 0.67157,-1.51981 1.5,-1.51981c0.82843,0 1.5,0.68044 1.5,1.51981c0,0.83937 -0.67157,1.51981 -1.5,1.51981c-0.82843,0 -1.5,-0.68044 -1.5,-1.51981z" fill-opacity="0.67059" fill="#459c4c" stroke-width="0.5"/><path d="M225.90909,188.03205c0,-0.83937 0.67157,-1.51981 1.5,-1.51981c0.82843,0 1.5,0.68044 1.5,1.51981c0,0.83937 -0.67157,1.51981 -1.5,1.51981c-0.82843,0 -1.5,-0.68044 -1.5,-1.51981z" fill-opacity="0.67059" fill="#459c4c" stroke-width="0.5"/><path d="M224.91847,179.19468c0.8568,-3.3977 4.94768,0.9912 2.00965,1.93643c-0.18635,0.08414 -0.39275,0.13091 -0.60994,0.13091c-0.82843,0 -1.5,-0.68044 -1.5,-1.51981c0,-0.19303 0.03552,-0.37765 0.10029,-0.54753z" fill-opacity="0.67059" fill="#459c4c" stroke-width="0.5"/><path d="M236.63636,175.22883c0,-0.83937 0.67157,-1.51981 1.5,-1.51981c0.82843,0 1.5,0.68044 1.5,1.51981c0,0.83937 -0.67157,1.51981 -1.5,1.51981c-0.82843,0 -1.5,-0.68044 -1.5,-1.51981z" fill-opacity="0.66275" fill="#9c4490" stroke-width="0.5"/><path d="M244.54545,189.59792c0,-0.83937 0.67157,-1.51981 1.5,-1.51981c0.82843,0 1.5,0.68044 1.5,1.51981c0,0.83937 -0.67157,1.51981 -1.5,1.51981c-0.82843,0 -1.5,-0.68044 -1.5,-1.51981z" fill-opacity="0.66275" fill="#9c4490" stroke-width="0.5"/><path d="M232.54545,190.05846c0,-0.83937 0.67157,-1.51981 1.5,-1.51981c0.82843,0 1.5,0.68044 1.5,1.51981c0,0.83937 -0.67157,1.51981 -1.5,1.51981c-0.82843,0 -1.5,-0.68044 -1.5,-1.51981z" fill-opacity="0.66275" fill="#9c4490" stroke-width="0.5"/><path d="M244.5,171.86683c0.18661,0 0.46005,0.14883 0.73072,0.37644c0.29648,0.16788 0.53093,0.43477 0.65978,0.75649c0.31161,0.50531 0.40504,1.05134 -0.09777,1.34246c-0.26093,0.44795 -0.74219,0.74845 -1.29272,0.74845c-0.82843,0 -1.5,-0.68044 -1.5,-1.51981c0,-0.14753 0.02075,-0.29015 0.05945,-0.42503c-0.16115,-0.68574 0.13002,-1.279 1.44055,-1.279z" fill-opacity="0.66275" fill="#9c4490" stroke-width="0.5"/><path d="M229.45455,172.64976c0,-0.83937 0.67157,-1.51981 1.5,-1.51981c0.82843,0 1.5,0.68044 1.5,1.51981c0,0.83937 -0.67157,1.51981 -1.5,1.51981c-0.82843,0 -1.5,-0.68044 -1.5,-1.51981z" fill-opacity="0.66275" fill="#9c4490" stroke-width="0.5"/><path d="M248.27273,184.53189c0,-0.83937 0.67157,-1.51981 1.5,-1.51981c0.82843,0 1.5,0.68044 1.5,1.51981c0,0.83937 -0.67157,1.51981 -1.5,1.51981c-0.82843,0 -1.5,-0.68044 -1.5,-1.51981z" fill-opacity="0.66275" fill="#9c4490" stroke-width="0.5"/><path d="M249.45455,168.1364c0,-0.83937 0.67157,-1.51981 1.5,-1.51981c0.82843,0 1.5,0.68044 1.5,1.51981c0,0.83937 -0.67157,1.51981 -1.5,1.51981c-0.82843,0 -1.5,-0.68044 -1.5,-1.51981z" fill-opacity="0.66275" fill="#9c4490" stroke-width="0.5"/><path d="M231.18182,175.68937c0,-0.83937 0.67157,-1.51981 1.5,-1.51981c0.82843,0 1.5,0.68044 1.5,1.51981c0,0.83937 -0.67157,1.51981 -1.5,1.51981c-0.82843,0 -1.5,-0.68044 -1.5,-1.51981z" fill-opacity="0.66275" fill="#709c44" stroke-width="0.5"/><path d="M232.72727,177.16313c0,-0.83937 0.67157,-1.51981 1.5,-1.51981c0.82843,0 1.5,0.68044 1.5,1.51981c0,0.83937 -0.67157,1.51981 -1.5,1.51981c-0.82843,0 -1.5,-0.68044 -1.5,-1.51981z" fill-opacity="0.66275" fill="#9c5e44" stroke-width="0.5"/><path d="M245.13636,186.78858c0.82843,0 1.5,0.68044 1.5,1.51981c0,0.83937 -0.67157,1.51981 -1.5,1.51981c-0.58467,0 -1.09122,-0.33893 -1.33869,-0.83345c-0.03824,0.00296 -0.07687,0.00447 -0.11586,0.00447c-0.82843,0 -1.5,-0.68044 -1.5,-1.51981c0,-0.83937 0.67157,-1.51981 1.5,-1.51981c0.58467,0 1.09122,0.33893 1.33869,0.83345c0.03824,-0.00296 0.07687,-0.00447 0.11586,-0.00447z" fill-opacity="0.66275" fill="#9c5e44" stroke-width="0.5"/><path d="M232.36364,189.59792c0,-0.83937 0.67157,-1.51981 1.5,-1.51981c0.0134,0 0.02677,0.00018 0.04008,0.00054c-0.05539,-0.15861 -0.08554,-0.3293 -0.08554,-0.50714c0,-0.83937 0.67157,-1.51981 1.5,-1.51981c0.82843,0 1.5,0.68044 1.5,1.51981c0,0.83937 -0.67157,1.51981 -1.5,1.51981c-0.0134,0 -0.02677,-0.00018 -0.04008,-0.00054c0.05539,0.15861 0.08554,0.3293 0.08554,0.50714c0,0.83937 -0.67157,1.51981 -1.5,1.51981c-0.82843,0 -1.5,-0.68044 -1.5,-1.51981z" fill-opacity="0.66275" fill="#9c5e44" stroke-width="0.5"/><path d="M245.04545,180.3409c0.82843,0 1.5,0.68044 1.5,1.51981c0,0.0218 -0.00045,0.0435 -0.00135,0.06508c0.04449,0.34132 -0.06178,0.68213 -0.39358,0.96265c-0.27418,0.30249 -0.66777,0.49209 -1.10507,0.49209c-0.82843,0 -1.5,-0.68044 -1.5,-1.51981c0,-0.04701 0.00211,-0.09353 0.00623,-0.13946c0.08083,-1.27917 0.77955,-1.5757 1.48252,-1.38031c0.00374,-0.00003 0.00749,-0.00004 0.01124,-0.00004z" fill-opacity="0.66275" fill="#9c5e44" stroke-width="0.5"/><path d="M242.54545,174.67617c0,-0.81618 0.63498,-1.48209 1.4317,-1.51826c-0.31997,-0.27872 -0.52261,-0.69185 -0.52261,-1.15292c0,-0.83937 0.67157,-1.51981 1.5,-1.51981c0.82843,0 1.5,0.68044 1.5,1.51981c0,0.81618 -0.63498,1.48209 -1.4317,1.51826c0.31997,0.27872 0.52261,0.69185 0.52261,1.15292c0,0.83937 -0.67157,1.51981 -1.5,1.51981c-0.82843,0 -1.5,-0.68044 -1.5,-1.51981z" fill-opacity="0.66275" fill="#9c5e44" stroke-width="0.5"/><path d="M236.63636,175.22883c0,-0.83937 0.67157,-1.51981 1.5,-1.51981c0.82843,0 1.5,0.68044 1.5,1.51981c0,0.83937 -0.67157,1.51981 -1.5,1.51981c-0.82843,0 -1.5,-0.68044 -1.5,-1.51981z" fill-opacity="0.66275" fill="#9c5e44" stroke-width="0.5"/><path d="M229.27273,172.28133c0,-0.83937 0.67157,-1.51981 1.5,-1.51981c0.82843,0 1.5,0.68044 1.5,1.51981c0,0.83937 -0.67157,1.51981 -1.5,1.51981c-0.82843,0 -1.5,-0.68044 -1.5,-1.51981z" fill-opacity="0.66275" fill="#9c5e44" stroke-width="0.5"/><path d="M248.75963,183.28021c1.11877,0.2267 2.40003,2.02112 1.124,2.75991c-0.26093,0.44795 -0.74219,0.74845 -1.29272,0.74845c-0.82843,0 -1.5,-0.68044 -1.5,-1.51981c0,-0.26924 0.0691,-0.52212 0.1903,-0.74144c-0.11988,-0.83153 0.20907,-1.50433 1.47842,-1.2471z" fill-opacity="0.66275" fill="#9c5e44" stroke-width="0.5"/><path d="M248.27273,168.87327c0,-0.83937 0.67157,-1.51981 1.5,-1.51981c0.4524,0 0.85802,0.20291 1.13304,0.52383c0.25323,-0.47638 0.75005,-0.80015 1.32151,-0.80015c0.82843,0 1.5,0.68044 1.5,1.51981c0,0.83937 -0.67157,1.51981 -1.5,1.51981c-0.4524,0 -0.85802,-0.20291 -1.13304,-0.52383c-0.25323,0.47638 -0.75005,0.80015 -1.32151,0.80015c-0.82843,0 -1.5,-0.68044 -1.5,-1.51981z" fill-opacity="0.66275" fill="#9c5e44" stroke-width="0.5"/><path d="M248,190.88744c0,-0.83937 0.67157,-1.51981 1.5,-1.51981c0.82843,0 1.5,0.68044 1.5,1.51981c0,0.83937 -0.67157,1.51981 -1.5,1.51981c-0.82843,0 -1.5,-0.68044 -1.5,-1.51981z" fill-opacity="0.66275" fill="#9c5e44" stroke-width="0.5"/><path d="M234.81818,191.44011c0,-0.83937 0.67157,-1.51981 1.5,-1.51981c0.82843,0 1.5,0.68044 1.5,1.51981c0,0.83937 -0.67157,1.51981 -1.5,1.51981c-0.82843,0 -1.5,-0.68044 -1.5,-1.51981z" fill-opacity="0.66275" fill="#9c5e44" stroke-width="0.5"/></g></g></svg>