<svg version="1.1" xmlns="http://www.w3.org/2000/svg" xmlns:xlink="http://www.w3.org/1999/xlink" width="151.14474" height="144" viewBox="0,0,151.14474,144"><g transform="translate(-164.42763,-108)"><g data-paper-data="{&quot;isPaintingLayer&quot;:true}" fill-rule="nonzero" stroke-linejoin="miter" stroke-miterlimit="10" stroke-dasharray="" stroke-dashoffset="0" style="mix-blend-mode: normal"><path d="M165.42763,251v-142h149.14474v142z" fill="#66deff" stroke="#000000" stroke-width="2" stroke-linecap="butt"/><text transform="translate(175.50002,135.16666) scale(0.5,0.5)" font-size="40" xml:space="preserve" fill="#000000" fill-rule="nonzero" stroke="none" stroke-width="1" stroke-linecap="butt" stroke-linejoin="miter" stroke-miterlimit="10" stroke-dasharray="" stroke-dashoffset="0" font-family="&quot;Microsoft YaHei&quot;, &quot;微软雅黑&quot;, STXihei, &quot;华文细黑&quot;" font-weight="normal" text-anchor="start" style="mix-blend-mode: normal"><tspan x="0" dy="0">聊天&gt;</tspan></text><path d="M289.5,180c0,18.22539 -22.1619,33 -49.5,33c-27.3381,0 -49.5,-14.77461 -49.5,-33c0,-18.22539 22.1619,-33 49.5,-33c27.3381,0 49.5,14.77461 49.5,33z" fill="none" stroke="#006bff" stroke-width="3.5" stroke-linecap="butt"/><path d="M198.5,197.16666l4,27l19,-12" fill="none" stroke="#006bff" stroke-width="3.5" stroke-linecap="round"/><path d="M199.69466,214.78439c-0.54285,-0.34473 -1.02799,-0.96088 -1.02799,-2.06217c0,-1.7203 1.18377,-2.25683 1.92217,-2.42416l0.46002,-2.0701c0.03547,-0.17691 0.08963,-0.34706 0.16031,-0.50832c-0.53028,-0.8374 -1.05225,-1.63264 -1.49582,-2.33909c0,0 -1.325,-2.12 0.795,-3.445c2.11999,-1.325 3.445,0.795 3.445,0.795c0.37965,0.60994 0.7692,1.22827 1.15552,1.85542c0.12744,-0.02003 0.25808,-0.03042 0.39115,-0.03042c0.62635,0 1.1989,0.23034 1.63756,0.61093l1.80821,1.54989c2.8981,0.04973 3.82771,-0.47101 5.46215,3.22525c0.64924,0.02374 1.27749,0.16129 1.93694,0.40114l0.09481,-0.37923l2.61594,0.65398c1.1133,0.25265 1.94439,1.24829 1.94439,2.43804c0,1.05134 -0.64897,1.95111 -1.56816,2.32056l-2.28037,0.97731l-0.00002,-0.00006c-1.15464,0.49567 -2.23842,1.2129 -3.4658,1.48107c-0.2951,0.06447 -0.66417,0.10516 -1.08673,0.12428c-0.35417,0.1921 -0.75225,0.33838 -1.19743,0.42865c-0.40321,0.08176 -0.80116,0.08008 -1.19539,0.01941l-0.01618,0.12948l-1.11392,-0.13924c-0.03892,0.59313 -0.19015,1.13133 -0.60548,1.53041c-3.51522,3.37765 -7.07433,1.65121 -8.65453,-2.0208c-0.41348,-0.96081 -0.22802,-2.04996 -0.12133,-3.12222z" fill="#006bff" stroke="none" stroke-width="0.5" stroke-linecap="butt"/><path d="M245.83333,180c0,3.04268 -2.61167,5.50926 -5.83333,5.50926c-3.22166,0 -5.83333,-2.46658 -5.83333,-5.50926c0,-3.04268 2.61167,-5.50926 5.83333,-5.50926c3.22166,0 5.83333,2.46658 5.83333,5.50926z" fill="#006bff" stroke="#006bff" stroke-width="3.5" stroke-linecap="butt"/><path d="M267.16667,180c0,3.04268 -2.61167,5.50926 -5.83333,5.50926c-3.22166,0 -5.83333,-2.46658 -5.83333,-5.50926c0,-3.04268 2.61168,-5.50926 5.83333,-5.50926c3.22166,0 5.83333,2.46658 5.83333,5.50926z" fill="#006bff" stroke="#006bff" stroke-width="3.5" stroke-linecap="butt"/><path d="M224.83334,180c0,3.04268 -2.61168,5.50926 -5.83334,5.50926c-3.22166,0 -5.83334,-2.46658 -5.83334,-5.50926c0,-3.04268 2.61168,-5.50926 5.83334,-5.50926c3.22166,0 5.83334,2.46658 5.83334,5.50926z" fill="#006bff" stroke="#006bff" stroke-width="3.5" stroke-linecap="butt"/></g></g></svg>