<svg version="1.1" xmlns="http://www.w3.org/2000/svg" xmlns:xlink="http://www.w3.org/1999/xlink" width="29.75374" height="28.05172" viewBox="0,0,29.75374,28.05172"><g transform="translate(-224.70368,-165.49523)"><g data-paper-data="{&quot;isPaintingLayer&quot;:true}" fill-rule="nonzero" stroke-linejoin="miter" stroke-miterlimit="10" stroke-dasharray="" stroke-dashoffset="0" style="mix-blend-mode: normal"><path d="M253.74905,165.97453l-0.45001,26.7498l-2.21367,-0.03724c-0.26545,-0.02595 -0.53401,-0.04142 -0.80527,-0.04598c-0.27126,-0.00456 -0.54019,0.00185 -0.80636,0.01887l-24.66503,-0.41494l0.01667,-0.991c0.10566,-0.27333 0.16588,-0.57003 0.17111,-0.88073c0.00523,-0.3107 -0.04498,-0.60925 -0.14139,-0.88598l0.40362,-23.9921z" fill="#ffffff" stroke="none" stroke-width="0" stroke-linecap="butt"/><path d="M252.05193,185.27809c-0.01412,0.83925 -0.69704,1.5083 -1.52535,1.49436c-0.82831,-0.01393 -1.48834,-0.70557 -1.47422,-1.54483c0.01412,-0.83925 0.69704,-1.5083 1.52535,-1.49436c0.82831,0.01393 1.48834,0.70557 1.47422,1.54483z" fill-opacity="0.81569" fill="#a97a39" stroke="none" stroke-width="0.5" stroke-linecap="butt"/><path d="M250.82767,183.73747c-0.01412,0.83925 -0.69704,1.5083 -1.52535,1.49436c-0.82831,-0.01393 -1.48834,-0.70557 -1.47422,-1.54483c0.01412,-0.83925 0.69704,-1.5083 1.52535,-1.49436c0.82831,0.01393 1.48834,0.70557 1.47422,1.54483z" fill-opacity="0.81569" fill="#a8a539" stroke="none" stroke-width="0.5" stroke-linecap="butt"/><path d="M242.82454,183.85617c-0.01412,0.83925 -0.69704,1.5083 -1.52535,1.49436c-0.82831,-0.01393 -1.48834,-0.70557 -1.47422,-1.54483c0.01412,-0.83925 0.69704,-1.5083 1.52535,-1.49436c0.82831,0.01393 1.48834,0.70557 1.47422,1.54483z" fill-opacity="0.81569" fill="#a8a539" stroke="none" stroke-width="0.5" stroke-linecap="butt"/><path d="M240.42289,177.98901c-0.01412,0.83925 -0.69704,1.5083 -1.52535,1.49436c-0.82831,-0.01393 -1.48834,-0.70557 -1.47422,-1.54483c0.01412,-0.83925 0.69704,-1.5083 1.52535,-1.49436c0.82831,0.01393 1.48834,0.70557 1.47422,1.54483z" fill-opacity="0.81569" fill="#a8a539" stroke="none" stroke-width="0.5" stroke-linecap="butt"/><path d="M251.19267,176.90352c-0.01412,0.83925 -0.69704,1.5083 -1.52535,1.49436c-0.82831,-0.01393 -1.48834,-0.70557 -1.47422,-1.54483c0.01412,-0.83925 0.69704,-1.5083 1.52535,-1.49436c0.82831,0.01393 1.48834,0.70557 1.47422,1.54483z" fill-opacity="0.81569" fill="#a8a539" stroke="none" stroke-width="0.5" stroke-linecap="butt"/><path d="M242.2962,170.67376c-0.01412,0.83925 -0.69704,1.5083 -1.52535,1.49436c-0.82831,-0.01393 -1.48834,-0.70557 -1.47422,-1.54483c0.01412,-0.83925 0.69704,-1.5083 1.52535,-1.49436c0.82831,0.01393 1.48834,0.70557 1.47422,1.54483z" fill-opacity="0.81569" fill="#a8a539" stroke="none" stroke-width="0.5" stroke-linecap="butt"/><path d="M234.56719,184.22393c-0.01412,0.83925 -0.69704,1.5083 -1.52535,1.49436c-0.82831,-0.01393 -1.48834,-0.70557 -1.47422,-1.54483c0.01412,-0.83925 0.69704,-1.5083 1.52535,-1.49436c0.82831,0.01393 1.48834,0.70557 1.47422,1.54483z" fill-opacity="0.81569" fill="#a8a539" stroke="none" stroke-width="0.5" stroke-linecap="butt"/><path d="M234.17378,177.88388c-0.01412,0.83925 -0.69704,1.5083 -1.52535,1.49436c-0.82831,-0.01393 -1.48834,-0.70557 -1.47422,-1.54483c0.01412,-0.83925 0.69704,-1.5083 1.52535,-1.49436c0.82831,0.01393 1.48834,0.70557 1.47422,1.54483z" fill-opacity="0.81569" fill="#a8a539" stroke="none" stroke-width="0.5" stroke-linecap="butt"/><path d="M238.23712,174.15218c-0.01412,0.83925 -0.69704,1.5083 -1.52535,1.49436c-0.82831,-0.01393 -1.48834,-0.70557 -1.47422,-1.54483c0.01412,-0.83925 0.69704,-1.5083 1.52535,-1.49436c0.82831,0.01393 1.48834,0.70557 1.47422,1.54483z" fill-opacity="0.81569" fill="#a8a539" stroke="none" stroke-width="0.5" stroke-linecap="butt"/><path d="M251.77356,172.09988c-0.01412,0.83925 -0.69704,1.5083 -1.52535,1.49436c-0.82831,-0.01393 -1.48834,-0.70557 -1.47422,-1.54483c0.01412,-0.83925 0.69704,-1.5083 1.52535,-1.49436c0.82831,0.01393 1.48834,0.70557 1.47422,1.54483z" fill-opacity="0.81569" fill="#a8a539" stroke="none" stroke-width="0.5" stroke-linecap="butt"/><path d="M234.31012,169.77939c-0.01412,0.83925 -0.69704,1.5083 -1.52535,1.49436c-0.82831,-0.01393 -1.48834,-0.70557 -1.47422,-1.54483c0.01412,-0.83925 0.69704,-1.5083 1.52535,-1.49436c0.82831,0.01393 1.48834,0.70557 1.47422,1.54483z" fill-opacity="0.81569" fill="#a8a539" stroke="none" stroke-width="0.5" stroke-linecap="butt"/><path d="M247.1975,176.58297c-0.01412,0.83925 -0.69704,1.5083 -1.52535,1.49436c-0.82831,-0.01393 -1.48834,-0.70557 -1.47422,-1.54483c0.01412,-0.83925 0.69704,-1.5083 1.52535,-1.49436c0.82831,0.01393 1.48834,0.70557 1.47422,1.54483z" fill-opacity="0.81569" fill="#a8a539" stroke="none" stroke-width="0.5" stroke-linecap="butt"/><path d="M244.73052,189.46165c-0.01412,0.83925 -0.69704,1.5083 -1.52535,1.49436c-0.82831,-0.01393 -1.48834,-0.70557 -1.47422,-1.54483c0.01412,-0.83925 0.69704,-1.5083 1.52535,-1.49436c0.82831,0.01393 1.48834,0.70557 1.47422,1.54483z" fill-opacity="0.81569" fill="#a8a539" stroke="none" stroke-width="0.5" stroke-linecap="butt"/><path d="M232.98219,189.26401c-0.01412,0.83925 -0.69704,1.5083 -1.52535,1.49436c-0.82831,-0.01393 -1.48834,-0.70557 -1.47422,-1.54483c0.01412,-0.83925 0.69704,-1.5083 1.52535,-1.49436c0.82831,0.01393 1.48834,0.70557 1.47422,1.54483z" fill-opacity="0.81569" fill="#a8a539" stroke="none" stroke-width="0.5" stroke-linecap="butt"/><path d="M229.85195,182.11791c-0.01412,0.83925 -0.69704,1.5083 -1.52535,1.49436c-0.82831,-0.01393 -1.48834,-0.70557 -1.47422,-1.54483c0.01412,-0.83925 0.69704,-1.5083 1.52535,-1.49436c0.82831,0.01393 1.48834,0.70557 1.47422,1.54483z" fill-opacity="0.81569" fill="#a8a539" stroke="none" stroke-width="0.5" stroke-linecap="butt"/><path d="M228.99269,173.74333c-0.01412,0.83925 -0.69704,1.5083 -1.52535,1.49436c-0.82831,-0.01393 -1.48834,-0.70557 -1.47422,-1.54483c0.01412,-0.83925 0.69704,-1.5083 1.52535,-1.49436c0.82831,0.01393 1.48834,0.70557 1.47422,1.54483z" fill-opacity="0.81569" fill="#a8a539" stroke="none" stroke-width="0.5" stroke-linecap="butt"/><path d="M238.81374,169.60182c-0.01412,0.83925 -0.69704,1.5083 -1.52535,1.49436c-0.82831,-0.01393 -1.48834,-0.70557 -1.47422,-1.54483c0.01412,-0.83925 0.69704,-1.5083 1.52535,-1.49436c0.82831,0.01393 1.48834,0.70557 1.47422,1.54483z" fill-opacity="0.81569" fill="#a8a539" stroke="none" stroke-width="0.5" stroke-linecap="butt"/><path d="M249.575,169.02285c-0.01412,0.83925 -0.69704,1.5083 -1.52535,1.49436c-0.82831,-0.01393 -1.48834,-0.70557 -1.47422,-1.54483c0.01412,-0.83925 0.69704,-1.5083 1.52535,-1.49436c0.82831,0.01393 1.48834,0.70557 1.47422,1.54483z" fill-opacity="0.81569" fill="#a8a539" stroke="none" stroke-width="0.5" stroke-linecap="butt"/><path d="M243.19807,176.51569c-0.01412,0.83925 -0.69704,1.5083 -1.52535,1.49436c-0.82831,-0.01393 -1.48834,-0.70557 -1.47422,-1.54483c0.01412,-0.83925 0.69704,-1.5083 1.52535,-1.49436c0.82831,0.01393 1.48834,0.70557 1.47422,1.54483z" fill-opacity="0.81569" fill="#a8a539" stroke="none" stroke-width="0.5" stroke-linecap="butt"/><path d="M250.48397,189.30511c-0.01412,0.83925 -0.69704,1.5083 -1.52535,1.49436c-0.82831,-0.01393 -1.48834,-0.70557 -1.47422,-1.54483c0.01412,-0.83925 0.69704,-1.5083 1.52535,-1.49436c0.82831,0.01393 1.48834,0.70557 1.47422,1.54483z" fill-opacity="0.81569" fill="#a8a539" stroke="none" stroke-width="0.5" stroke-linecap="butt"/><path d="M244.13828,180.07821c-0.00588,0.34964 -0.12784,0.66973 -0.32804,0.92321c0.47825,0.26068 0.79951,0.77638 0.78962,1.36458c-0.01164,0.69219 -0.47825,1.26861 -1.10613,1.44154c-0.10396,0.1262 -0.22766,0.23498 -0.36622,0.32157c0.11885,0.22226 0.18449,0.47771 0.17993,0.74852c-0.01412,0.83925 -0.69704,1.5083 -1.52535,1.49436c-0.82831,-0.01393 -1.48834,-0.70557 -1.47422,-1.54483c0.00905,-0.53806 0.29302,-1.00617 0.71395,-1.26919c-0.11885,-0.22226 -0.18449,-0.47771 -0.17993,-0.74852c0.01139,-0.67677 0.45768,-1.24287 1.06442,-1.42938c-0.46606,-0.26437 -0.77733,-0.77321 -0.76759,-1.35233c0.01412,-0.83925 0.69704,-1.5083 1.52535,-1.49436c0.82831,0.01393 1.48834,0.70557 1.47422,1.54483z" fill-opacity="0.81569" fill="#a87439" stroke="none" stroke-width="0.5" stroke-linecap="butt"/><path d="M245.46905,175.2872c-0.01412,0.83925 -0.69704,1.5083 -1.52535,1.49436c-0.82831,-0.01393 -1.48834,-0.70557 -1.47422,-1.54483c0.01412,-0.83925 0.69704,-1.5083 1.52535,-1.49436c0.82831,0.01393 1.48834,0.70557 1.47422,1.54483z" fill-opacity="0.81569" fill="#a87439" stroke="none" stroke-width="0.5" stroke-linecap="butt"/><path d="M236.67342,177.92594c-0.01412,0.83925 -0.69704,1.5083 -1.52535,1.49436c-0.82831,-0.01393 -1.48834,-0.70557 -1.47422,-1.54483c0.01412,-0.83925 0.69704,-1.5083 1.52535,-1.49436c0.82831,0.01393 1.48834,0.70557 1.47422,1.54483z" fill-opacity="0.81569" fill="#a87439" stroke="none" stroke-width="0.5" stroke-linecap="butt"/><path d="M228.99979,188.18366c-0.82831,-0.01393 -1.48834,-0.70557 -1.47422,-1.54483c0.01412,-0.83925 0.69704,-1.5083 1.52535,-1.49436c0.57918,0.00974 1.07608,0.35084 1.31777,0.84203c0.28073,-0.34079 0.70556,-0.55466 1.17761,-0.54672c0.82831,0.01393 1.48834,0.70557 1.47422,1.54483c-0.01412,0.83925 -0.69704,1.5083 -1.52535,1.49436c-0.57918,-0.00974 -1.07608,-0.35084 -1.31777,-0.84203c-0.28073,0.34079 -0.70556,0.55466 -1.17761,0.54672z" fill-opacity="0.81569" fill="#a87439" stroke="none" stroke-width="0.5" stroke-linecap="butt"/><path d="M232.00505,173.034c-0.00325,0.19331 -0.04199,0.37759 -0.10981,0.54658c0.11291,-0.02539 0.23054,-0.03787 0.35125,-0.03584c0.82831,0.01393 1.48834,0.70557 1.47422,1.54483c-0.01412,0.83925 -0.69704,1.5083 -1.52535,1.49436c-0.82831,-0.01393 -1.48834,-0.70557 -1.47422,-1.54483c0.00325,-0.19331 0.04199,-0.37759 0.10981,-0.54658c-0.11291,0.02539 -0.23054,0.03787 -0.35125,0.03584c-0.82831,-0.01393 -1.48834,-0.70557 -1.47422,-1.54483c0.01412,-0.83925 0.69704,-1.5083 1.52535,-1.49436c0.82831,0.01393 1.48834,0.70557 1.47422,1.54483z" fill-opacity="0.81569" fill="#a87439" stroke="none" stroke-width="0.5" stroke-linecap="butt"/><path d="M241.29209,170.9102c-0.01412,0.83925 -0.69704,1.5083 -1.52535,1.49436c-0.82831,-0.01393 -1.48834,-0.70557 -1.47422,-1.54483c0.01412,-0.83925 0.69704,-1.5083 1.52535,-1.49436c0.82831,0.01393 1.48834,0.70557 1.47422,1.54483z" fill-opacity="0.81569" fill="#a87439" stroke="none" stroke-width="0.5" stroke-linecap="butt"/><path d="M250.89158,179.93849c-0.01412,0.83925 -0.69704,1.5083 -1.52535,1.49436c-0.82831,-0.01393 -1.48834,-0.70557 -1.47422,-1.54483c0.01412,-0.83925 0.69704,-1.5083 1.52535,-1.49436c0.82831,0.01393 1.48834,0.70557 1.47422,1.54483z" fill-opacity="0.81569" fill="#a87439" stroke="none" stroke-width="0.5" stroke-linecap="butt"/><path d="M247.24863,173.54378c-0.82831,-0.01393 -1.48834,-0.70557 -1.47422,-1.54483c0.01412,-0.83925 0.69704,-1.5083 1.52535,-1.49436c0.53105,0.00893 0.99293,0.29644 1.25234,0.72281c0.21942,-0.12052 0.47157,-0.18713 0.73886,-0.18264c0.82831,0.01393 1.48834,0.70557 1.47422,1.54483c-0.01412,0.83925 -0.69704,1.5083 -1.52535,1.49436c-0.53105,-0.00893 -0.99293,-0.29644 -1.25234,-0.72281c-0.21942,0.12052 -0.47157,0.18713 -0.73886,0.18264z" fill-opacity="0.81569" fill="#a87439" stroke="none" stroke-width="0.5" stroke-linecap="butt"/><path d="M245.07138,169.20042c-0.01412,0.83925 -0.69704,1.5083 -1.52535,1.49436c-0.82831,-0.01393 -1.48834,-0.70557 -1.47422,-1.54483c0.01412,-0.83925 0.69704,-1.5083 1.52535,-1.49436c0.82831,0.01393 1.48834,0.70557 1.47422,1.54483z" fill-opacity="0.81569" fill="#a87439" stroke="none" stroke-width="0.5" stroke-linecap="butt"/><path d="M230.36466,181.36652c-0.01412,0.83925 -0.69704,1.5083 -1.52535,1.49436c-0.82831,-0.01393 -1.48834,-0.70557 -1.47422,-1.54483c0.01412,-0.83925 0.69704,-1.5083 1.52535,-1.49436c0.82831,0.01393 1.48834,0.70557 1.47422,1.54483z" fill-opacity="0.81569" fill="#a87439" stroke="none" stroke-width="0.5" stroke-linecap="butt"/><path d="M237.79969,185.29166c-0.01412,0.83925 -0.69704,1.5083 -1.52535,1.49436c-0.82831,-0.01393 -1.48834,-0.70557 -1.47422,-1.54483c0.01412,-0.83925 0.69704,-1.5083 1.52535,-1.49436c0.82831,0.01393 1.48834,0.70557 1.47422,1.54483z" fill-opacity="0.81569" fill="#a87439" stroke="none" stroke-width="0.5" stroke-linecap="butt"/><path d="M238.355,182.00762c-0.01412,0.83925 -0.69704,1.5083 -1.52535,1.49436c-0.82831,-0.01393 -1.48834,-0.70557 -1.47422,-1.54483c0.01412,-0.83925 0.69704,-1.5083 1.52535,-1.49436c0.82831,0.01393 1.48834,0.70557 1.47422,1.54483z" fill-opacity="0.81569" fill="#a87439" stroke="none" stroke-width="0.5" stroke-linecap="butt"/><path d="M228.59076,167.90982c-0.01412,0.83925 -0.69704,1.5083 -1.52535,1.49436c-0.82831,-0.01393 -1.48834,-0.70557 -1.47422,-1.54483c0.01412,-0.83925 0.69704,-1.5083 1.52535,-1.49436c0.82831,0.01393 1.48834,0.70557 1.47422,1.54483z" fill-opacity="0.81569" fill="#a87439" stroke="none" stroke-width="0.5" stroke-linecap="butt"/><path d="M233.09864,167.47898c-0.01412,0.83925 -0.69704,1.5083 -1.52535,1.49436c-0.82831,-0.01393 -1.48834,-0.70557 -1.47422,-1.54483c0.01412,-0.83925 0.69704,-1.5083 1.52535,-1.49436c0.82831,0.01393 1.48834,0.70557 1.47422,1.54483z" fill-opacity="0.81569" fill="#a87439" stroke="none" stroke-width="0.5" stroke-linecap="butt"/><path d="M228.2854,171.19806c-0.01412,0.83925 -0.69704,1.5083 -1.52535,1.49436c-0.82831,-0.01393 -1.48834,-0.70557 -1.47422,-1.54483c0.01412,-0.83925 0.69704,-1.5083 1.52535,-1.49436c0.82831,0.01393 1.48834,0.70557 1.47422,1.54483z" fill-opacity="0.81569" fill="#a87439" stroke="none" stroke-width="0.5" stroke-linecap="butt"/><path d="M239.84343,167.84578c-0.01412,0.83925 -0.69704,1.5083 -1.52535,1.49436c-0.82831,-0.01393 -1.48834,-0.70557 -1.47422,-1.54483c0.01412,-0.83925 0.69704,-1.5083 1.52535,-1.49436c0.82831,0.01393 1.48834,0.70557 1.47422,1.54483z" fill-opacity="0.81569" fill="#a87439" stroke="none" stroke-width="0.5" stroke-linecap="butt"/><path d="M229.16596,178.30631c-0.01412,0.83925 -0.69704,1.5083 -1.52535,1.49436c-0.82831,-0.01393 -1.48834,-0.70557 -1.47422,-1.54483c0.01412,-0.83925 0.69704,-1.5083 1.52535,-1.49436c0.82831,0.01393 1.48834,0.70557 1.47422,1.54483z" fill-opacity="0.81569" fill="#a87439" stroke="none" stroke-width="0.5" stroke-linecap="butt"/><path d="M234.37261,180.92728c-0.01412,0.83925 -0.69704,1.5083 -1.52535,1.49436c-0.82831,-0.01393 -1.48834,-0.70557 -1.47422,-1.54483c0.01412,-0.83925 0.69704,-1.5083 1.52535,-1.49436c0.82831,0.01393 1.48834,0.70557 1.47422,1.54483z" fill-opacity="0.81569" fill="#a87439" stroke="none" stroke-width="0.5" stroke-linecap="butt"/><path d="M240.70553,190.91396c-0.01412,0.83925 -0.69704,1.5083 -1.52535,1.49436c-0.82831,-0.01393 -1.48834,-0.70557 -1.47422,-1.54483c0.0066,-0.39224 0.15929,-0.74731 0.40464,-1.01285c-0.04536,0.00341 -0.09127,0.00477 -0.13764,0.00399c-0.82831,-0.01393 -1.48834,-0.70557 -1.47422,-1.54483c0.01412,-0.83925 0.69704,-1.5083 1.52535,-1.49436c0.82831,0.01393 1.48834,0.70557 1.47422,1.54483c-0.0066,0.39224 -0.15929,0.74731 -0.40464,1.01285c0.04536,-0.00341 0.09127,-0.00477 0.13764,-0.00399c0.82831,0.01393 1.48834,0.70557 1.47422,1.54483z" fill-opacity="0.81569" fill="#a87439" stroke="none" stroke-width="0.5" stroke-linecap="butt"/><path d="M248.04397,185.71734c-0.01412,0.83925 -0.69704,1.5083 -1.52535,1.49436c-0.82831,-0.01393 -1.48834,-0.70557 -1.47422,-1.54483c0.01412,-0.83925 0.69704,-1.5083 1.52535,-1.49436c0.82831,0.01393 1.48834,0.70557 1.47422,1.54483z" fill-opacity="0.81569" fill="#a87439" stroke="none" stroke-width="0.5" stroke-linecap="butt"/><path d="M234.45215,191.06209c-0.01412,0.83925 -0.69704,1.5083 -1.52535,1.49436c-0.82831,-0.01393 -1.48834,-0.70557 -1.47422,-1.54483c0.01412,-0.83925 0.69704,-1.5083 1.52535,-1.49436c0.82831,0.01393 1.48834,0.70557 1.47422,1.54483z" fill-opacity="0.81569" fill="#a87439" stroke="none" stroke-width="0.5" stroke-linecap="butt"/><path d="M251.94541,191.60973c-0.00751,0.44646 -0.20429,0.84474 -0.51153,1.11767c-0.37818,-0.05054 -0.76318,-0.07971 -1.15377,-0.08628c-0.29943,-0.00504 -0.59601,0.00331 -0.88919,0.02451c-0.28098,-0.28149 -0.45234,-0.67436 -0.44507,-1.10636c0.01412,-0.83925 0.69704,-1.5083 1.52535,-1.49436c0.82831,0.01393 1.48834,0.70557 1.47422,1.54483z" fill-opacity="0.81569" fill="#a87439" stroke="none" stroke-width="0.5" stroke-linecap="butt"/><path d="M253.66185,167.27219c-0.01412,0.83925 -0.69704,1.5083 -1.52535,1.49436c-0.42811,-0.0072 -0.81127,-0.19544 -1.07963,-0.49153c-0.17103,0.06482 -0.35669,0.09888 -0.55031,0.09563c-0.82831,-0.01393 -1.48834,-0.70557 -1.47422,-1.54483c0.00719,-0.42764 0.18804,-0.81109 0.47329,-1.0825c0.24183,0.08403 0.50061,0.13161 0.77008,0.13614c0.17121,0.00288 0.3387,-0.01175 0.50078,-0.04225c0.16097,0.03593 0.32787,0.05619 0.49908,0.05907c0.33133,0.00557 0.64871,-0.05442 0.94006,-0.16817c0.81513,0.02885 1.46018,0.71432 1.44622,1.54408z" fill-opacity="0.81569" fill="#a87439" stroke="none" stroke-width="0.5" stroke-linecap="butt"/><path d="M227.17955,190.31792c-0.01412,0.83925 -0.69704,1.5083 -1.52535,1.49436c-0.35104,-0.00591 -0.67186,-0.13353 -0.92395,-0.34254c0.16434,-0.33015 0.2596,-0.702 0.26624,-1.09644c0.0075,-0.44596 -0.09921,-0.86691 -0.29281,-1.23423c0.26879,-0.23366 0.61976,-0.37242 1.00165,-0.36599c0.82831,0.01393 1.48834,0.70557 1.47422,1.54483z" fill-opacity="0.81569" fill="#a87439" stroke="none" stroke-width="0.5" stroke-linecap="butt"/><path d="M233.26546,169.04787c-0.0055,0.32676 -0.11238,0.62772 -0.28976,0.87261c0.04508,-0.00078 0.0913,-0.00078 0.13869,0.00001c1.06939,0.01799 2.40004,2.58689 1.2385,3.23354c-0.26843,0.4435 -0.75467,0.73586 -1.30513,0.7266c-0.57711,-0.00971 -1.07253,-0.34839 -1.31517,-0.83678c-0.27885,0.37722 -0.7263,0.61818 -1.22683,0.60976c-0.82831,-0.01393 -1.48834,-0.70557 -1.47422,-1.54483c0.00023,-0.01358 0.00064,-0.02711 0.00121,-0.0406c-0.15746,0.05348 -0.32642,0.08119 -0.50192,0.07824c-0.82831,-0.01393 -1.48834,-0.70557 -1.47422,-1.54483c0.01412,-0.83925 0.69704,-1.5083 1.52535,-1.49436c0.82831,0.01393 1.48834,0.70557 1.47422,1.54483c-0.00023,0.01358 -0.00064,0.02711 -0.00121,0.0406c0.15746,-0.05348 0.32642,-0.08119 0.50192,-0.07824c0.33319,0.00561 0.63915,0.12087 0.88496,0.31129c0.01956,-0.14249 0.0615,-0.27582 0.12967,-0.39585c-0.74744,-0.09756 -1.31879,-0.75103 -1.30565,-1.53247c0.01412,-0.83925 0.69704,-1.5083 1.52535,-1.49436c0.82831,0.01393 1.48834,0.70557 1.47422,1.54483z" fill-opacity="0.67059" fill="#459c4c" stroke="none" stroke-width="0.5" stroke-linecap="butt"/><path d="M229.07235,180.49265c-0.01412,0.83925 -0.69704,1.5083 -1.52535,1.49436c-0.82831,-0.01393 -1.48834,-0.70557 -1.47422,-1.54483c0.01412,-0.83925 0.69704,-1.5083 1.52535,-1.49436c0.82831,0.01393 1.48834,0.70557 1.47422,1.54483z" fill-opacity="0.67059" fill="#459c4c" stroke="none" stroke-width="0.5" stroke-linecap="butt"/><path d="M233.40078,188.0274c-0.01412,0.83925 -0.69704,1.5083 -1.52535,1.49436c-0.82831,-0.01393 -1.48834,-0.70557 -1.47422,-1.54483c0.01412,-0.83925 0.69704,-1.5083 1.52535,-1.49436c0.82831,0.01393 1.48834,0.70557 1.47422,1.54483z" fill-opacity="0.67059" fill="#459c4c" stroke="none" stroke-width="0.5" stroke-linecap="butt"/><path d="M241.72656,168.7296c-0.01412,0.83925 -0.69704,1.5083 -1.52535,1.49436c-0.82831,-0.01393 -1.48834,-0.70557 -1.47422,-1.54483c0.01412,-0.83925 0.69704,-1.5083 1.52535,-1.49436c0.82831,0.01393 1.48834,0.70557 1.47422,1.54483z" fill-opacity="0.67059" fill="#459c4c" stroke="none" stroke-width="0.5" stroke-linecap="butt"/><path d="M246.4906,170.36662c-0.47094,0.61433 -3.12443,0.67614 -2.93779,-0.65239c-0.07123,-0.18138 -0.10892,-0.37978 -0.10543,-0.58719c0.01412,-0.83925 0.69704,-1.5083 1.52535,-1.49436c0.409,0.00688 0.77698,0.17899 1.04303,0.45254c0.96132,0.14807 1.43046,1.03483 0.47484,2.2814z" fill-opacity="0.67059" fill="#459c4c" stroke="none" stroke-width="0.5" stroke-linecap="butt"/><path d="M241.49557,182.79744c0.31485,-0.30846 0.7371,-0.45403 1.16857,-0.47277c-0.01641,-0.13786 -0.02044,-0.29233 -0.01045,-0.46459c-0.22016,0.12159 -0.47342,0.18888 -0.74199,0.18437c-0.18136,-0.00305 -0.35466,-0.0386 -0.51458,-0.10106c-0.00973,0.00003 -0.01947,-0.00005 -0.02924,-0.00021c-0.82831,-0.01393 -1.48834,-0.70557 -1.47422,-1.54483c0.00225,-0.13349 0.02141,-0.26268 0.05539,-0.38549c-0.09106,-0.2226 -0.1708,-0.45211 -0.23728,-0.68292c0.01055,0.07716 0.01539,0.15614 0.01403,0.23648c-0.01412,0.83925 -0.69704,1.5083 -1.52535,1.49436c-0.29379,-0.00494 -0.56641,-0.09514 -0.79529,-0.24694c-0.2587,0.19963 -0.583,0.31588 -0.9333,0.30999c-0.82831,-0.01393 -1.48834,-0.70557 -1.47422,-1.54483c0.01028,-0.61091 0.37494,-1.13164 0.8921,-1.36439c-0.65261,-0.17374 -1.12877,-0.78102 -1.11676,-1.49519c0.01412,-0.83925 0.69704,-1.5083 1.52535,-1.49436c0.5785,0.00973 1.0749,0.35003 1.31691,0.8403c-0.01413,-0.2334 0.03448,-0.47281 0.15768,-0.71223c0.14144,-0.27488 0.6125,-0.42171 1.23348,-0.46451c0.24309,-0.1618 0.53505,-0.25387 0.84772,-0.24861c0.35349,0.00595 0.67633,0.13533 0.92921,0.34692c1.50181,0.23173 2.99914,0.80322 3.0263,1.51857c0.02041,0.03307 0.03959,0.06698 0.0575,0.10167c0.07979,-0.02142 0.16215,-0.03633 0.24649,-0.04415c-0.07187,-0.64739 0.01429,-1.2357 0.23896,-1.45582c0.87331,-0.85557 2.21717,-0.18559 2.99022,0.75536c0.00127,-0.0237 0.00328,-0.04728 0.00602,-0.07075c-1.13305,-0.7886 -1.79927,-2.99998 0.33487,-3.57556c0.17857,-0.07179 0.37378,-0.10979 0.57782,-0.10636c0.82831,0.01393 1.48834,0.70557 1.47422,1.54483c-0.00063,0.03749 -0.0026,0.07465 -0.00585,0.11141c0.27499,-0.26382 0.64811,-0.42304 1.05658,-0.41617c0.47623,0.00801 0.89683,0.24004 1.16567,0.59535c0.15389,0.12213 0.24556,0.2899 0.25215,0.50849c0.01798,0.06428 0.03189,0.13027 0.04142,0.19767c0.43655,-0.19202 0.85529,0.11259 1.12835,0.59365c0.2053,0.26491 0.32539,0.60038 0.31928,0.96347c-0.00066,0.03896 -0.00276,0.07756 -0.00624,0.11574c0.03695,0.75165 -0.31773,1.44741 -1.34965,1.37189c-0.05568,0.00538 -0.11223,0.00768 -0.16947,0.00672c-0.23471,-0.00395 -0.45591,-0.06231 -0.65209,-0.16303c-0.39564,-0.16099 -0.62932,-0.40832 -0.72531,-0.69625c-0.95021,0.60351 -2.13491,0.84498 -2.84719,0.31669c0.01324,0.18971 -0.01591,0.36776 -0.09615,0.5237c0.00104,0.02795 0.00133,0.05609 0.00085,0.08441c-0.01412,0.83925 -0.69704,1.5083 -1.52535,1.49436c-0.32155,-0.00541 -0.61775,-0.11296 -0.85899,-0.29161c-0.20888,0.2899 -0.51634,0.50171 -0.87143,0.5855c-0.02828,0.13229 -0.06222,0.25215 -0.1012,0.36027c-0.02366,0.06561 -0.04916,0.12689 -0.07637,0.18401c0.44574,-0.08189 0.84965,-0.02522 1.01403,0.27805c0.4376,0.27178 0.72595,0.76431 0.71656,1.32203c-0.01412,0.83925 -0.69704,1.5083 -1.52535,1.49436c-0.04678,-0.00079 -0.09302,-0.00374 -0.13863,-0.00874c0.151,0.2834 0.1698,0.61935 -0.01638,0.98116c0.00104,0.02795 0.00133,0.05609 0.00085,0.08441c-0.01412,0.83925 -0.69704,1.5083 -1.52535,1.49436c-0.40618,-0.00683 -0.7719,-0.17663 -1.0375,-0.44689c-0.17718,-0.10442 -0.31693,-0.26301 -0.42264,-0.45145c-0.04072,0.26434 -0.14487,0.47553 -0.33295,0.58023c-0.26843,0.4435 -0.75467,0.73586 -1.30513,0.7266c-0.82831,-0.01393 -1.48834,-0.70557 -1.47422,-1.54483c0.00514,-0.3053 0.09878,-0.58805 0.25572,-0.82363c0.04732,-1.14749 0.82329,-2.05991 2.0425,-1.32636c0.21684,0.13046 0.43167,0.47305 0.58904,0.88342c0.0433,-0.23705 0.1254,-0.43378 0.24026,-0.54631zM237.77257,176.76987c-0.01028,0.61091 -0.37494,1.13164 -0.8921,1.36439c0.15772,0.04199 0.30511,0.1093 0.43782,0.19731c0.2587,-0.19963 0.583,-0.31588 0.9333,-0.30999c0.62572,0.01053 1.15541,0.40779 1.371,0.96328c-0.07378,-0.32253 -0.11971,-0.64212 -0.13244,-0.94352c-0.01889,0.00039 -0.03786,0.00043 -0.05692,0.00011c-0.64104,-0.01078 -1.18129,-0.42747 -1.38626,-1.00435c-0.11372,-0.13327 -0.20787,-0.27296 -0.27909,-0.41734c0.00394,0.04941 0.00554,0.0995 0.00469,0.1501z" fill-opacity="0.67059" fill="#459c4c" stroke="none" stroke-width="0.5" stroke-linecap="butt"/><path d="M247.51138,186.97506c-0.01412,0.83925 -0.69704,1.5083 -1.52535,1.49436c-0.32933,-0.00554 -0.63206,-0.11821 -0.8764,-0.3047c-0.77407,0.15144 -1.47153,-0.29076 -1.3188,-1.62074c0.01359,-0.11842 0.0471,-0.23976 0.09701,-0.36119c0.00002,-0.00189 0.00005,-0.00378 0.00009,-0.00567c0.01412,-0.83925 0.69704,-1.5083 1.52535,-1.49436c0.03172,0.00053 0.06318,0.00205 0.09438,0.00455c0.67351,-0.23654 1.29705,-0.04897 1.33945,0.99971c0.40812,0.27766 0.67328,0.75283 0.66428,1.28804z" fill-opacity="0.67059" fill="#459c4c" stroke="none" stroke-width="0.5" stroke-linecap="butt"/><path d="M248.87047,180.9485c1.01548,-0.99485 3.94139,0.57807 3.57328,1.85937c0.02897,0.12225 0.04332,0.25017 0.0411,0.38174c-0.01412,0.83925 -0.69704,1.5083 -1.52535,1.49436c-0.38196,-0.00643 -0.72812,-0.15696 -0.98892,-0.39961c-1.40769,-0.33064 -1.88718,-2.56478 -1.10011,-3.33585z" fill-opacity="0.67059" fill="#459c4c" stroke="none" stroke-width="0.5" stroke-linecap="butt"/><path d="M236.90156,166.39143c0.83776,0.01409 2.40411,2.21968 1.2447,2.86516c-0.26843,0.4435 -0.75467,0.73586 -1.30513,0.7266c-0.82831,-0.01393 -1.48834,-0.70557 -1.47422,-1.54483c0.00155,-0.09203 0.01114,-0.18201 0.02808,-0.26927c-0.37199,-0.91474 -0.21109,-1.80657 1.50656,-1.77767z" fill-opacity="0.67059" fill="#459c4c" stroke="none" stroke-width="0.5" stroke-linecap="butt"/><path d="M231.76709,177.38278c0.44056,-0.43161 3.53991,-0.90819 3.02316,0.89045c0.02897,0.12225 0.04332,0.25017 0.0411,0.38174c-0.01412,0.83925 -0.69704,1.5083 -1.52535,1.49436c-0.4016,-0.00676 -0.76366,-0.17282 -1.02849,-0.4378c-0.83432,-0.42285 -0.93788,-1.90997 -0.51042,-2.32874z" fill-opacity="0.67059" fill="#459c4c" stroke="none" stroke-width="0.5" stroke-linecap="butt"/><path d="M231.15883,175.36888c-0.01412,0.83925 -0.69704,1.5083 -1.52535,1.49436c-0.82831,-0.01393 -1.48834,-0.70557 -1.47422,-1.54483c0.01412,-0.83925 0.69704,-1.5083 1.52535,-1.49436c0.82831,0.01393 1.48834,0.70557 1.47422,1.54483z" fill-opacity="0.67059" fill="#459c4c" stroke="none" stroke-width="0.5" stroke-linecap="butt"/><path d="M231.82506,184.4081c-0.01412,0.83925 -0.69704,1.5083 -1.52535,1.49436c-0.66371,-0.01117 -1.21938,-0.45746 -1.40675,-1.06614c-0.24688,0.42041 -0.68784,0.7091 -1.19546,0.74122c-0.11981,0.73053 -0.75247,1.28184 -1.50516,1.26918c-0.82831,-0.01393 -1.48834,-0.70557 -1.47422,-1.54483c0.01251,-0.74385 0.55043,-1.354 1.24931,-1.47339c0.06171,-0.15971 0.1818,-0.34586 0.33796,-0.53009c0.17072,-0.29756 0.43809,-0.53065 0.75777,-0.65584c0.50396,-0.30729 1.0444,-0.39288 1.32311,0.12133c0.30675,0.19051 0.54015,0.48949 0.64909,0.84336c0.26615,-0.45322 0.75788,-0.75336 1.31549,-0.74398c0.19855,0.00334 0.38743,0.04562 0.55968,0.11953c-0.03778,-0.13773 -0.05685,-0.28324 -0.05433,-0.43348c0.01412,-0.83925 0.69704,-1.5083 1.52535,-1.49436c0.82831,0.01393 1.48834,0.70557 1.47422,1.54483c-0.01412,0.83925 -0.69704,1.5083 -1.52535,1.49436c-0.19855,-0.00334 -0.38743,-0.04562 -0.55968,-0.11953c0.03778,0.13773 0.05685,0.28324 0.05433,0.43348z" fill-opacity="0.67059" fill="#459c4c" stroke="none" stroke-width="0.5" stroke-linecap="butt"/><path d="M239.56195,187.91188c0.13774,-0.26744 0.54944,-0.50583 1.0154,-0.63762c0.11711,-0.04153 0.24075,-0.06872 0.36886,-0.07957c0.68966,-0.10276 1.374,0.05669 1.39878,0.70936c0.07047,0.11417 0.12636,0.23846 0.16508,0.37014c0.95555,-0.23878 2.14799,-0.1913 2.18119,0.68269c0.1484,0.24042 0.23213,0.52567 0.227,0.83037c-0.01412,0.83925 -0.69704,1.5083 -1.52535,1.49436c-0.32728,-0.00551 -0.62828,-0.1168 -0.87183,-0.30122c-0.79231,0.0918 -1.44886,-0.13528 -1.54921,-0.75471c-0.39226,-0.02614 -0.74225,-0.20455 -0.99415,-0.47672c-0.69047,-0.07349 -1.06164,-0.58307 -0.41577,-1.83706z" fill-opacity="0.67059" fill="#459c4c" stroke="none" stroke-width="0.5" stroke-linecap="butt"/><path d="M235.91488,189.91214c-0.01412,0.83925 -0.69704,1.5083 -1.52535,1.49436c-0.82831,-0.01393 -1.48834,-0.70557 -1.47422,-1.54483c0.01412,-0.83925 0.69704,-1.5083 1.52535,-1.49436c0.82831,0.01393 1.48834,0.70557 1.47422,1.54483z" fill-opacity="0.67059" fill="#459c4c" stroke="none" stroke-width="0.5" stroke-linecap="butt"/><path d="M236.665,184.05957c0.16894,0.17703 0.2601,0.67558 0.23612,1.20052c0.00048,0.02074 0.00055,0.04158 0.0002,0.0625c-0.00182,0.10841 -0.01481,0.21399 -0.03782,0.31562c-0.11043,0.70669 -0.44952,1.33167 -1.11075,1.13693c-0.12067,0.0294 -0.24694,0.044 -0.37678,0.04182c-0.82831,-0.01393 -1.48834,-0.70557 -1.47422,-1.54483c0.00622,-0.36952 0.14209,-0.70604 0.36294,-0.96579c0.32644,-0.85591 1.75211,-0.92604 2.40033,-0.24678z" fill-opacity="0.67059" fill="#459c4c" stroke="none" stroke-width="0.5" stroke-linecap="butt"/><path d="M245.79313,191.82865c0.01234,-0.73337 1.04794,-1.48492 1.99039,-1.67913c-0.25331,-0.27726 -0.40553,-0.65009 -0.39867,-1.05778c0.01057,-0.62818 0.39585,-1.16102 0.93632,-1.38344c0.06862,-0.78723 0.72769,-1.39831 1.51968,-1.38498c0.09456,0.00159 0.18692,0.01202 0.27635,0.03048c0.2806,-0.34768 0.70978,-0.56662 1.18729,-0.55859c0.82831,0.01393 1.48834,0.70557 1.47422,1.54483c-0.0021,0.12469 -0.01895,0.24561 -0.04886,0.3611c0.43682,1.15447 0.28432,2.36048 -1.49663,2.33052c-0.31887,-0.00536 -0.63387,-0.20187 -0.90499,-0.50105c-0.14955,0.53639 -0.58184,0.95078 -1.12094,1.07082c0.41486,0.27648 0.68527,0.75566 0.67618,1.29605c-0.01412,0.83925 -0.69704,1.5083 -1.52535,1.49436c-0.12005,-0.00202 -0.23657,-0.01828 -0.34801,-0.04715c-1.10498,0.43221 -2.24714,0.27733 -2.21697,-1.51603z" fill-opacity="0.67059" fill="#459c4c" stroke="none" stroke-width="0.5" stroke-linecap="butt"/><path d="M242.92938,172.89535c-0.01412,0.83925 -0.69704,1.5083 -1.52535,1.49436c-0.82831,-0.01393 -1.48834,-0.70557 -1.47422,-1.54483c0.01412,-0.83925 0.69704,-1.5083 1.52535,-1.49436c0.82831,0.01393 1.48834,0.70557 1.47422,1.54483z" fill-opacity="0.67059" fill="#459c4c" stroke="none" stroke-width="0.5" stroke-linecap="butt"/><path d="M253.50588,171.13871c-0.01412,0.83925 -0.69704,1.5083 -1.52535,1.49436c-0.82831,-0.01393 -1.48834,-0.70557 -1.47422,-1.54483c0.01412,-0.83925 0.69704,-1.5083 1.52535,-1.49436c0.82831,0.01393 1.48834,0.70557 1.47422,1.54483z" fill-opacity="0.67059" fill="#459c4c" stroke="none" stroke-width="0.5" stroke-linecap="butt"/><path d="M254.34771,179.99149c-0.91383,3.38281 -4.93031,-1.07428 -1.97679,-1.96996c0.18774,-0.08099 0.3949,-0.12429 0.61206,-0.12063c0.82831,0.01393 1.48834,0.70557 1.47422,1.54483c-0.00325,0.193 -0.04187,0.377 -0.10949,0.54577z" fill-opacity="0.67059" fill="#459c4c" stroke="none" stroke-width="0.5" stroke-linecap="butt"/><path d="M242.56477,183.75968c-0.01412,0.83925 -0.69704,1.5083 -1.52535,1.49436c-0.82831,-0.01393 -1.48834,-0.70557 -1.47422,-1.54483c0.01412,-0.83925 0.69704,-1.5083 1.52535,-1.49436c0.82831,0.01393 1.48834,0.70557 1.47422,1.54483z" fill-opacity="0.66275" fill="#9c4490" stroke="none" stroke-width="0.5" stroke-linecap="butt"/><path d="M234.8985,169.25958c-0.01412,0.83925 -0.69704,1.5083 -1.52535,1.49436c-0.82831,-0.01393 -1.48834,-0.70557 -1.47422,-1.54483c0.01412,-0.83925 0.69704,-1.5083 1.52535,-1.49436c0.82831,0.01393 1.48834,0.70557 1.47422,1.54483z" fill-opacity="0.66275" fill="#9c4490" stroke="none" stroke-width="0.5" stroke-linecap="butt"/><path d="M246.90454,169.00096c-0.01412,0.83925 -0.69704,1.5083 -1.52535,1.49436c-0.82831,-0.01393 -1.48834,-0.70557 -1.47422,-1.54483c0.01412,-0.83925 0.69704,-1.5083 1.52535,-1.49436c0.82831,0.01393 1.48834,0.70557 1.47422,1.54483z" fill-opacity="0.66275" fill="#9c4490" stroke="none" stroke-width="0.5" stroke-linecap="butt"/><path d="M234.64569,186.98893c-0.18658,-0.00314 -0.45748,-0.15655 -0.72428,-0.38868c-0.29361,-0.17284 -0.52354,-0.44364 -0.64696,-0.76748c-0.30307,-0.51048 -0.3873,-1.058 0.12034,-1.34063c0.26843,-0.4435 0.75467,-0.73586 1.30513,-0.7266c0.82831,0.01393 1.48834,0.70557 1.47422,1.54483c-0.00248,0.14751 -0.02563,0.28976 -0.06659,0.42397c0.14959,0.68835 -0.15152,1.27663 -1.46186,1.25459z" fill-opacity="0.66275" fill="#9c4490" stroke="none" stroke-width="0.5" stroke-linecap="butt"/><path d="M249.70218,186.45919c-0.01412,0.83925 -0.69704,1.5083 -1.52535,1.49436c-0.82831,-0.01393 -1.48834,-0.70557 -1.47422,-1.54483c0.01412,-0.83925 0.69704,-1.5083 1.52535,-1.49436c0.82831,0.01393 1.48834,0.70557 1.47422,1.54483z" fill-opacity="0.66275" fill="#9c4490" stroke="none" stroke-width="0.5" stroke-linecap="butt"/><path d="M231.08653,174.2622c-0.01412,0.83925 -0.69704,1.5083 -1.52535,1.49436c-0.82831,-0.01393 -1.48834,-0.70557 -1.47422,-1.54483c0.01412,-0.83925 0.69704,-1.5083 1.52535,-1.49436c0.82831,0.01393 1.48834,0.70557 1.47422,1.54483z" fill-opacity="0.66275" fill="#9c4490" stroke="none" stroke-width="0.5" stroke-linecap="butt"/><path d="M229.62909,190.63549c-0.01412,0.83925 -0.69704,1.5083 -1.52535,1.49436c-0.82831,-0.01393 -1.48834,-0.70557 -1.47422,-1.54483c0.01412,-0.83925 0.69704,-1.5083 1.52535,-1.49436c0.82831,0.01393 1.48834,0.70557 1.47422,1.54483z" fill-opacity="0.66275" fill="#9c4490" stroke="none" stroke-width="0.5" stroke-linecap="butt"/><path d="M248.02628,183.39095c-0.01412,0.83925 -0.69704,1.5083 -1.52535,1.49436c-0.82831,-0.01393 -1.48834,-0.70557 -1.47422,-1.54483c0.01412,-0.83925 0.69704,-1.5083 1.52535,-1.49436c0.82831,0.01393 1.48834,0.70557 1.47422,1.54483z" fill-opacity="0.66275" fill="#709c44" stroke="none" stroke-width="0.5" stroke-linecap="butt"/><path d="M246.50584,181.8914c-0.01412,0.83925 -0.69704,1.5083 -1.52535,1.49436c-0.82831,-0.01393 -1.48834,-0.70557 -1.47422,-1.54483c0.01412,-0.83925 0.69704,-1.5083 1.52535,-1.49436c0.82831,0.01393 1.48834,0.70557 1.47422,1.54483z" fill-opacity="0.66275" fill="#9c5e44" stroke="none" stroke-width="0.5" stroke-linecap="butt"/><path d="M234.26041,172.05859c-0.82831,-0.01393 -1.48834,-0.70557 -1.47422,-1.54483c0.01412,-0.83925 0.69704,-1.5083 1.52535,-1.49436c0.58459,0.00983 1.08536,0.35724 1.32448,0.85585c0.03828,-0.00232 0.07693,-0.00318 0.11592,-0.00252c0.82831,0.01393 1.48834,0.70557 1.47422,1.54483c-0.01412,0.83925 -0.69704,1.5083 -1.52535,1.49436c-0.58459,-0.00983 -1.08536,-0.35724 -1.32448,-0.85585c-0.03828,0.00232 -0.07693,0.00318 -0.11592,0.00252z" fill-opacity="0.66275" fill="#9c5e44" stroke="none" stroke-width="0.5" stroke-linecap="butt"/><path d="M247.07858,169.46449c-0.01412,0.83925 -0.69704,1.5083 -1.52535,1.49436c-0.0134,-0.00023 -0.02676,-0.00063 -0.04007,-0.00121c0.05271,0.15952 0.07999,0.33069 0.077,0.50851c-0.01412,0.83925 -0.69704,1.5083 -1.52535,1.49436c-0.82831,-0.01393 -1.48834,-0.70557 -1.47422,-1.54483c0.01412,-0.83925 0.69704,-1.5083 1.52535,-1.49436c0.0134,0.00023 0.02676,0.00063 0.04007,0.00121c-0.05271,-0.15952 -0.07999,-0.33069 -0.077,-0.50851c0.01412,-0.83925 0.69704,-1.5083 1.52535,-1.49436c0.82831,0.01393 1.48834,0.70557 1.47422,1.54483z" fill-opacity="0.66275" fill="#9c5e44" stroke="none" stroke-width="0.5" stroke-linecap="butt"/><path d="M234.24286,178.50688c-0.82831,-0.01393 -1.48834,-0.70557 -1.47422,-1.54483c0.00037,-0.0218 0.00118,-0.04349 0.00244,-0.06505c-0.03874,-0.34202 0.07325,-0.68099 0.40972,-0.95589c0.27923,-0.29784 0.67595,-0.48079 1.11319,-0.47343c0.82831,0.01393 1.48834,0.70557 1.47422,1.54483c-0.00079,0.047 -0.00368,0.09348 -0.00857,0.13934c-0.10234,1.27763 -0.80594,1.56236 -1.50553,1.35518c-0.00374,-0.00003 -0.00749,-0.00009 -0.01124,-0.00015z" fill-opacity="0.66275" fill="#9c5e44" stroke="none" stroke-width="0.5" stroke-linecap="butt"/><path d="M236.64722,184.21286c-0.01373,0.81606 -0.65982,1.4712 -1.45704,1.49396c0.31524,0.28406 0.5109,0.70054 0.50314,1.16155c-0.01412,0.83925 -0.69704,1.5083 -1.52535,1.49436c-0.82831,-0.01393 -1.48834,-0.70557 -1.47422,-1.54483c0.01373,-0.81606 0.65982,-1.4712 1.45704,-1.49396c-0.31524,-0.28406 -0.5109,-0.70054 -0.50314,-1.16155c0.01412,-0.83925 0.69704,-1.5083 1.52535,-1.49436c0.82831,0.01393 1.48834,0.70557 1.47422,1.54483z" fill-opacity="0.66275" fill="#9c5e44" stroke="none" stroke-width="0.5" stroke-linecap="butt"/><path d="M242.56477,183.75968c-0.01412,0.83925 -0.69704,1.5083 -1.52535,1.49436c-0.82831,-0.01393 -1.48834,-0.70557 -1.47422,-1.54483c0.01412,-0.83925 0.69704,-1.5083 1.52535,-1.49436c0.82831,0.01393 1.48834,0.70557 1.47422,1.54483z" fill-opacity="0.66275" fill="#9c5e44" stroke="none" stroke-width="0.5" stroke-linecap="butt"/><path d="M249.87778,186.83062c-0.01412,0.83925 -0.69704,1.5083 -1.52535,1.49436c-0.82831,-0.01393 -1.48834,-0.70557 -1.47422,-1.54483c0.01412,-0.83925 0.69704,-1.5083 1.52535,-1.49436c0.82831,0.01393 1.48834,0.70557 1.47422,1.54483z" fill-opacity="0.66275" fill="#9c5e44" stroke="none" stroke-width="0.5" stroke-linecap="butt"/><path d="M230.57864,175.50551c-1.1148,-0.24549 -2.36569,-2.0612 -1.07742,-2.77843c0.26843,-0.4435 0.75467,-0.73586 1.30513,-0.7266c0.82831,0.01393 1.48834,0.70557 1.47422,1.54483c-0.00453,0.2692 -0.07787,0.52088 -0.20274,0.73813c0.10588,0.83343 -0.23434,1.5006 -1.49919,1.22206z" fill-opacity="0.66275" fill="#9c5e44" stroke="none" stroke-width="0.5" stroke-linecap="butt"/><path d="M230.82314,189.91861c-0.01412,0.83925 -0.69704,1.5083 -1.52535,1.49436c-0.45234,-0.00761 -0.85449,-0.21731 -1.12407,-0.54281c-0.26121,0.47205 -0.7634,0.78742 -1.33478,0.77781c-0.82831,-0.01393 -1.48834,-0.70557 -1.47422,-1.54483c0.01412,-0.83925 0.69704,-1.5083 1.52535,-1.49436c0.45234,0.00761 0.85449,0.21731 1.12407,0.54281c0.26121,-0.47205 0.7634,-0.78742 1.33478,-0.77781c0.82831,0.01393 1.48834,0.70557 1.47422,1.54483z" fill-opacity="0.66275" fill="#9c5e44" stroke="none" stroke-width="0.5" stroke-linecap="butt"/><path d="M231.46612,167.91214c-0.01412,0.83925 -0.69704,1.5083 -1.52535,1.49436c-0.82831,-0.01393 -1.48834,-0.70557 -1.47422,-1.54483c0.01412,-0.83925 0.69704,-1.5083 1.52535,-1.49436c0.82831,0.01393 1.48834,0.70557 1.47422,1.54483z" fill-opacity="0.66275" fill="#9c5e44" stroke="none" stroke-width="0.5" stroke-linecap="butt"/><path d="M244.65538,167.58127c-0.01412,0.83925 -0.69704,1.5083 -1.52535,1.49436c-0.82831,-0.01393 -1.48834,-0.70557 -1.47422,-1.54483c0.01412,-0.83925 0.69704,-1.5083 1.52535,-1.49436c0.82831,0.01393 1.48834,0.70557 1.47422,1.54483z" fill-opacity="0.66275" fill="#9c5e44" stroke="none" stroke-width="0.5" stroke-linecap="butt"/><path d="M241.06119,166.78265l-0.43524,12.54617l-14.56691,-0.24506" fill="none" stroke="#8e7f00" stroke-width="2.5" stroke-linecap="round"/></g></g></svg>