<svg version="1.1" xmlns="http://www.w3.org/2000/svg" xmlns:xlink="http://www.w3.org/1999/xlink" width="25.625" height="25.625" viewBox="0,0,25.625,25.625"><g transform="translate(-227.1875,-167.1875)"><g data-paper-data="{&quot;isPaintingLayer&quot;:true}" fill-rule="nonzero" stroke-linejoin="miter" stroke-miterlimit="10" stroke-dasharray="" stroke-dashoffset="0" style="mix-blend-mode: normal"><path d="M227.1875,192.8125v-25.625h25.625v25.625z" fill-opacity="0.67059" fill="#459c4c" stroke="none" stroke-width="0" stroke-linecap="butt"/><path d="M248.55857,180.13788c0,5.00508 -4.28986,9.00368 -9.36397,9.00368c-0.37668,0 1.80118,-0.01232 3.88259,-0.85043c1.04302,-0.41999 1.79751,-1.22356 2.72457,-1.98326c1.83795,-1.50615 2.75792,-4.07999 2.72648,-6.15337c-0.02257,-1.4879 -0.97846,-5.12276 -3.09784,-6.74279c-1.00661,-0.76944 -2.21206,-1.58759 -3.30566,-1.94381c-0.86741,-0.28254 -4.91659,-0.70547 -7.07424,0.05282c-2.92922,1.02945 -3.953,3.3929 -3.51031,3.3929c0.73281,0 0.39492,-1.49339 1.24681,-2.24626c1.4057,-1.24231 4.11281,-1.97579 5.91844,-1.7764c2.27556,0.25129 5.41924,0.96562 7.27744,2.75897c1.96104,1.89259 2.57568,4.90161 2.57568,6.48796z" fill="none" stroke="#000000" stroke-width="2" stroke-linecap="butt"/><path d="M242.68969,185.19238l-2.625,3.875l3.875,2.625" fill="none" stroke="#000000" stroke-width="2" stroke-linecap="round"/></g></g></svg>