<svg version="1.1" xmlns="http://www.w3.org/2000/svg" xmlns:xlink="http://www.w3.org/1999/xlink" width="30.59179" height="29.50202" viewBox="0,0,30.59179,29.50202"><g transform="translate(-224.47513,-164.86798)"><g data-paper-data="{&quot;isPaintingLayer&quot;:true}" fill-rule="nonzero" stroke="none" stroke-linecap="butt" stroke-linejoin="miter" stroke-miterlimit="10" stroke-dasharray="" stroke-dashoffset="0" style="mix-blend-mode: normal"><path d="M225.75282,193.3768v-26.75359h2.21398c0.26585,0.02148 0.53463,0.03243 0.80593,0.03243c0.2713,0 0.54008,-0.01094 0.80593,-0.03243h24.66852v0.99114c-0.10105,0.27507 -0.15627,0.57274 -0.15627,0.88348c0,0.31074 0.05522,0.60841 0.15627,0.88348v23.99549z" fill="#ffffff" stroke-width="0"/><path d="M241.20322,192.13678c-0.17678,-0.17678 0,-0.35355 0,-0.35355l-0.01215,0.0363c0.19291,-0.43931 0.39122,-0.85989 0.5744,-1.28329c0.00827,-0.69996 -0.06572,-1.40262 -0.15355,-2.10523c0,0 -0.03101,-0.24807 0.21706,-0.27908c0.18286,-0.02286 0.24778,0.10593 0.26927,0.17521c0.10351,-1.15107 0.13248,-2.31649 0.21487,-3.46996c0,0 0.01781,-0.24936 0.26718,-0.23155c0.24936,0.01781 0.23155,0.26718 0.23155,0.26718c-0.08696,1.21745 -0.11771,2.44543 -0.23481,3.65701c0.02845,-0.00341 0.06069,-0.00197 0.09718,0.00614c0.24405,0.05423 0.18981,0.29828 0.18981,0.29828c-0.14124,0.6356 -0.35697,1.2146 -0.60107,1.78676c-0.01038,0.47181 -0.05715,0.94255 -0.15862,1.41184l-0.20848,-0.03749c-0.03724,0.06204 -0.1079,0.12443 -0.23988,0.10766c-0.02802,-0.00356 -0.05247,-0.00988 -0.07381,-0.0183l-0.02541,0.03207c0,0 -0.17678,0.17678 -0.35355,0z" fill="#04ff00" stroke-width="0.5"/><path d="M227.2007,186.34861c-0.22361,-0.1118 -0.1118,-0.33541 -0.1118,-0.33541l0.11764,-0.23387c0.23792,-0.70232 0.09687,-1.41689 0.37385,-2.12218c0,0 0.09285,-0.23212 0.32497,-0.13927c0.23212,0.09285 0.13927,0.32497 0.13927,0.32497c-0.28282,0.6921 -0.14264,1.41843 -0.37615,2.12782l-0.13236,0.26613c0,0 -0.1118,0.22361 -0.33541,0.1118z" fill="#04ff00" stroke-width="0.5"/><path d="M229.28061,190.99796c-0.24796,-0.03189 -0.21606,-0.27985 -0.21606,-0.27985l0.00489,-0.03803c0.08766,-0.68152 0.20888,-1.3241 0.37553,-1.99071c0,0 0.06063,-0.24254 0.30317,-0.1819c0.24254,0.06063 0.1819,0.30317 0.1819,0.30317c-0.16202,0.64809 -0.27946,1.27065 -0.36469,1.93323l-0.00489,0.03803c0,0 -0.03189,0.24796 -0.27985,0.21606z" fill="#04ff00" stroke-width="0.5"/><path d="M230.3571,191.39252c-0.14252,-0.2054 0.06288,-0.34792 0.06288,-0.34792l0.3862,-0.26655c0.19223,-0.19089 0.32828,-0.44963 0.38878,-0.71369c0,0 0.06063,-0.24254 0.30317,-0.1819c0.24254,0.06063 0.1819,0.30317 0.1819,0.30317c-0.09592,0.36032 -0.29409,0.70306 -0.55049,0.97378l-0.42453,0.29598c0,0 -0.2054,0.14252 -0.34792,-0.06288z" fill="#04ff00" stroke-width="0.5"/><path d="M231.1875,189.625c-0.25,0 -0.25,-0.25 -0.25,-0.25c0,-0.58333 0,-1.29167 0,-1.875c0,0 0,-0.25 0.25,-0.25c0.25,0 0.25,0.25 0.25,0.25c0,0.58333 0,1.16667 0,1.75v0.125c0,0 0,0.25 -0.25,0.25z" fill="#04ff00" stroke-width="0.5"/><path d="M231.78,189.25c-0.25,0 -0.25,-0.25 -0.25,-0.25v-0.04c0,-0.79827 -0.03771,-1.58996 -0.07965,-2.38686c0,0 -0.01314,-0.24965 0.23651,-0.26279c0.24965,-0.01314 0.26279,0.23651 0.26279,0.23651c0.00386,0.07333 0.00768,0.14661 0.01144,0.21986c0.02823,-0.06754 0.09023,-0.14172 0.2264,-0.14172c0.25,0 0.25,0.25 0.25,0.25c0,0.63333 -0.09058,1.10387 -0.26701,1.71563l-0.13439,0.27117c0,0 -0.00208,0.00417 -0.00625,0.01108c0.0001,0.02903 0.00015,0.05807 0.00015,0.08711v0.04c0,0 0,0.25 -0.25,0.25z" fill="#04ff00" stroke-width="0.5"/><path d="M252.70794,192.80005c-0.16005,-0.19206 0.03201,-0.3521 0.03201,-0.3521l0.02949,-0.02397c-0.00219,-0.69792 -0.01283,-1.38963 -0.06335,-2.08742c-0.03505,0.02309 -0.08165,0.03844 -0.1436,0.03844c-0.25,0 -0.25,-0.25 -0.25,-0.25c0,-0.70833 0,-1.79167 0,-2.5c0,0 0,-0.25 0.25,-0.25c0.25,0 0.25,0.25 0.25,0.25c0,0.70833 0,1.41667 0,2.125l0,0.14976c0.02848,-0.01483 0.06355,-0.0253 0.10674,-0.02889c0.24914,-0.02076 0.2699,0.22838 0.2699,0.22838c0.04489,0.53865 0.0649,1.07316 0.0738,1.60887c0.45099,-0.89384 0.76982,-1.88 0.90957,-2.86346c0,0 0.03536,-0.24749 0.28284,-0.21213c0.24749,0.03536 0.21213,0.28284 0.21213,0.28284c-0.10481,0.73004 -0.29969,1.46208 -0.57363,2.15983c0.05614,0.07245 0.05614,0.16481 0.05614,0.16481c0,0.85857 0.36117,4.38166 -1.15756,2.60574l-0.00765,-0.00957c0,0 -0.09233,-0.11541 -0.04626,-0.23975c-0.09807,-0.03379 -0.16852,-0.12688 -0.16852,-0.23642v-0.48c0,-0.00759 0,-0.01519 0,-0.02278c-0.0209,-0.01408 -0.04173,-0.03279 -0.06205,-0.05718zM253.32921,192.60339l-0.05921,0.0503l0,0.7063c0,0.02767 -0.0045,0.0543 -0.0128,0.07918c0.07254,0.0278 0.11802,0.08464 0.11802,0.08464l0.00765,0.00957c0.51575,0.71296 0.4009,-0.62871 0.3168,-1.58424c-0.11509,0.22428 -0.23871,0.44283 -0.37045,0.65425z" fill="#04ff00" stroke-width="0.5"/><path d="M237.26807,194.04899c0.03101,0.24807 -0.21706,0.27908 -0.21706,0.27908l-0.49638,-0.00468c-0.33665,-0.88504 -0.60297,-1.74608 -0.78021,-2.67661c0,0 -0.04678,-0.24558 0.19881,-0.29236c0.0652,-0.01242 0.11639,-0.00423 0.15641,0.0145c-0.0049,-0.47727 -0.05906,-0.90098 -0.14669,-1.35968c-0.06831,-0.00017 -0.22304,-0.02213 -0.25043,-0.21388c-0.03536,-0.24749 0.21213,-0.28284 0.21213,-0.28284l0.08139,0.00482c0.02416,-0.01673 0.05427,-0.0305 0.0917,-0.03955c0.26428,-1.1081 0.57391,-2.20762 0.57227,-3.35779c0,0 0,-0.25 0.25,-0.25c0.01228,0 0.02395,0.0006 0.03505,0.00175c-0.02216,-0.42967 -0.09309,-0.85043 -0.28755,-1.22095c0,0.24263 0,0.48432 0,0.72391c-0.22883,-0.00578 -0.24907,0.22878 -0.24907,0.22878l0.01662,0.05066c-0.51433,0.97532 -0.39985,2.15959 -1.0368,2.78503c0.01493,0.47423 0.01812,0.94934 0.01901,1.42917l0.00024,0.13118c0,0 0.00046,0.25 -0.24954,0.25046c-0.04691,0.00009 -0.08503,-0.00864 -0.11601,-0.02289c-0.00405,0.33159 -0.0154,0.66291 -0.04281,0.99365l-0.28914,0.22924c0,0 -0.25,0 -0.25,-0.25c0,-0.07313 0.02139,-0.12487 0.05166,-0.16148c0.04925,-0.70453 0.02834,-1.41215 0.02834,-2.11852c0,0 0,-0.21414 0.19818,-0.24604c0.04386,-0.07995 0.09013,-0.18056 0.14774,-0.30069c-0.01122,-0.32565 -0.0284,-0.65099 -0.05475,-0.97734c-0.09086,0.17667 -0.18569,0.3552 -0.28459,0.53598c-0.21165,0.41212 -0.14491,0.62077 -0.26409,0.46557c0,-0.41331 0,-0.82661 0,-1.23992c0.1251,-0.69338 0.33044,-1.42772 0.55555,-2.16911c-0.05446,-0.02366 -0.10667,-0.07216 -0.13058,-0.16781c-0.06063,-0.24254 0.1819,-0.30317 0.1819,-0.30317l-0.01193,0.11081c0.10431,-0.26446 0.21027,-0.52811 0.31742,-0.79123c0.07243,-0.23354 0.14372,-0.46603 0.21196,-0.69641c-0.0006,0.06236 -0.00158,0.12473 -0.00292,0.18709c0.07963,-0.19265 0.15974,-0.3851 0.24017,-0.57748c-0.04532,0.00168 -0.08196,0.01189 -0.11158,0.02728c0,-0.02302 0,-0.04759 0,-0.07245c0.11562,-0.4131 0.21717,-0.81699 0.29324,-1.20525c0.00273,0.28817 -0.00105,0.57566 -0.01784,0.85957c0.10982,-0.26071 0.21099,-0.52557 0.30415,-0.79394c-0.07955,-0.07394 -0.07955,-0.19046 -0.07955,-0.19046c0,-0.60688 0,-1.30216 0,-2c-0.25,0 -0.25,0.25 -0.25,0.25c0,0.38187 0.0147,0.77448 0.02712,1.17028c-0.02937,-0.02025 -0.06745,-0.03572 -0.11677,-0.04276c-0.11169,-0.01596 -0.18018,0.0257 -0.22171,0.07621c-0.03664,-0.04377 -0.09517,-0.07872 -0.18865,-0.07872c-0.05157,0 -0.09251,0.01064 -0.125,0.02753c0,-1.25186 0,-2.84813 0,-4.02753c0,0 0,-0.15749 -0.125,-0.22247c0,-0.41156 0,-0.82313 0,-1.23469l0.24998,-0.16431c0.01205,-1.71179 0.19917,-3.44649 0.30443,-5.18517c0.22123,0.48885 0.42328,1.00249 0.60164,1.53068c-0.00391,-0.04116 -0.00779,-0.08232 -0.01163,-0.12348c-0.14814,-0.81323 -0.31343,-1.62083 -0.51195,-2.41492c0,0 -0.06063,-0.24254 0.1819,-0.30317c0.09025,-0.02256 0.15531,-0.00315 0.20144,0.03013c0.02387,-0.0721 0.08378,-0.1626 0.2342,-0.1626c0.25,0 0.25,0.25 0.25,0.25c-0.00094,0.82995 0.05595,1.65841 0.13166,2.4874c0.17338,0.95022 0.32347,1.90808 0.47552,2.86121c0.00022,-0.05964 0.00032,-0.11918 0.00032,-0.17862c0,0 0,-0.25 0.25,-0.25c0.25,0 0.25,0.25 0.25,0.25c0,0.03818 -0.00004,0.0764 -0.00013,0.11466c0.18907,-1.93851 0.01763,-3.97742 0.01763,-5.90966c0,0 0,-0.25 0.25,-0.25c0.25,0 0.25,0.25 0.25,0.25c0,0.23807 0.00285,0.47812 0.00747,0.71966c0.15503,0.05354 0.15503,0.23534 0.15503,0.23534c0,0.58398 -0.00429,1.12297 0.12098,1.68748c0.04711,0.01997 0.21442,0.10689 0.14619,0.31158c-0.07906,0.23717 -0.31623,0.15811 -0.31623,0.15811l-0.04249,-0.03231c0.02138,1.08977 0.00951,2.17999 -0.12893,3.23076c0.0646,0.49556 0.12092,1.0128 0.17963,1.5324c-0.00338,0.03454 0.00205,0.06709 0.01077,0.0951c0.08222,0.72385 0.17032,1.44999 0.2931,2.12622c0.12334,-1.27556 0.10678,-2.54472 -0.3102,-3.79028c0,0 -0.07906,-0.23717 0.15811,-0.31623c0.13898,-0.04633 0.22366,0.01593 0.26996,0.07543c-0.14442,-0.52774 -0.29084,-1.05373 -0.42214,-1.57896l-0.00373,-0.01493c0,0 -0.00866,-0.03464 -0.03252,-0.07446c0.02428,-0.23795 0.04708,-0.47608 0.06754,-0.71416c0.21629,0.96408 0.44163,1.91068 0.59547,2.8613c-0.00406,0.03411 -0.00815,0.06825 -0.01227,0.10243c0.15196,0.59529 0.22698,1.19476 0.24846,1.79704c0.03993,-0.02692 0.09436,-0.04321 0.1684,-0.03498c0.24847,0.02761 0.22086,0.27608 0.22086,0.27608c-0.12075,1.08672 -0.26942,2.1611 -0.44967,3.23186c0.01152,0.02746 0.02322,0.05464 0.03509,0.08154c-0.06733,0.6255 -0.1381,1.25273 -0.20764,1.88559c-0.05213,0.4745 0.137,1.83771 -0.33031,1.91124c0,0 -0.23717,0.07906 -0.15811,0.31623c0.05364,0.16091 0.18005,0.17626 0.25581,0.16949c-0.15916,0.41502 -0.33059,0.81067 -0.49932,1.16553c0.0876,0.06262 0.10334,0.17676 0.10334,0.17676c0.24314,1.76274 0.44154,3.46527 0.4905,5.22673c0.01543,0.25186 0.02523,0.50504 0.0283,0.76286c0.00664,-0.00004 0.01337,0.00022 0.02019,0.00082c0.11794,-0.45383 0.16267,-0.88897 0.21488,-1.35886c0,0 0.02761,-0.24847 0.27608,-0.22086c0.24847,0.02761 0.22086,0.27608 0.22086,0.27608c-0.05811,0.52295 -0.11145,1.00637 -0.25082,1.51474l-0.00665,0.02411c0,0 -0.06367,0.2309 -0.29237,0.17836c-0.0172,0.02066 -0.03109,0.03223 -0.03109,0.03223l-0.23874,0.19895c-0.04354,0.03681 -0.09983,0.059 -0.16131,0.059c-0.13807,0 -0.25,-0.11193 -0.25,-0.25v-0.06793c-0.01126,-0.02842 -0.01747,-0.0594 -0.0175,-0.09182c0,-0.00001 0,-0.00002 0,-0.00003l-0.00028,-0.28285c-0.00045,-0.25257 -0.00427,-0.50356 -0.01113,-0.75331c-0.0273,-0.44189 -0.07246,-0.8795 -0.12916,-1.33305c0,0 -0.01383,-0.11067 0.0509,-0.19341c-0.03886,-0.5285 -0.08886,-1.05471 -0.14697,-1.58216c-0.04882,0.30304 -0.11224,0.60629 -0.18738,0.91825l-0.201,0.11847c-0.00026,0.4301 -0.00151,0.86016 -0.00667,1.29028l-0.14471,0.30437c0,0 -0.02631,0.05261 -0.07892,0.09404c-0.04194,0.20476 -0.09404,0.40941 -0.15879,0.61444l-0.22162,0.26149c0,0 -0.17678,0.17678 -0.35355,0c-0.17678,-0.17678 0,-0.35355 0,-0.35355l0.09838,-0.05851c0.32031,-1.01432 0.3084,-2.02371 0.3084,-3.08472c0,0 0,-0.25 0.25,-0.25c0.07643,0 0.1295,0.02337 0.16634,0.05582c0.0583,-0.41027 0.13857,-0.81828 0.1411,-1.24516c-0.06944,0.11533 -0.13456,0.21606 -0.19375,0.29985l-0.02124,0.00547c-0.0013,0.11193 -0.00245,0.22339 -0.00245,0.33403v0.12c0,0 0,0.25 -0.25,0.25c-0.04902,0 -0.08842,-0.00961 -0.1201,-0.02506c-0.10565,0.81162 -0.30997,1.6289 -0.64287,2.32299c0.10783,0.5458 0.17297,1.04414 0.17297,1.61207v0.04c0,0 0,0.25 -0.25,0.25c-0.02764,0 -0.05222,-0.00306 -0.07408,-0.00849c0.17211,0.62345 0.67812,1.77598 0.53945,2.1951l0.14362,-0.08468c0,0 0.24807,-0.03101 0.27908,0.21706zM242.51,169.08l-0.30055,-0.23233c0.00047,0.022 0.00094,0.044 0.0014,0.06601c0.08633,0.06569 0.09791,0.18145 0.09791,0.18145c0.05723,0.57671 0.05178,1.15907 0.0445,1.73983c0.01692,-0.01081 0.03645,-0.0206 0.05896,-0.02904c0.06246,-0.02342 0.11451,-0.02393 0.15725,-0.01208c0.21216,-0.59806 0.23723,-1.1044 0.24015,-1.71037c-0.14075,0.11569 -0.29962,-0.00346 -0.29962,-0.00346zM241.42235,166.77941c0.22059,-0.11765 0.33824,0.10294 0.33824,0.10294c0.27791,0.52173 0.51961,1.06217 0.77129,1.59739l0.27812,0.20025c0,0 0.00859,0.00645 0.02088,0.01845c0.02689,-0.06925 0.0884,-0.14845 0.22912,-0.14845c0.25,0 0.25,0.25 0.25,0.25c0,0.82231 -0.0086,1.46381 -0.30012,2.2453l-0.00081,0.00117l0.00032,0.00012l-0.15413,0.3982c-0.03473,0.09633 -0.12695,0.1652 -0.23525,0.1652c-0.10923,0 -0.2021,-0.07005 -0.23613,-0.16768l-0.04369,-0.1165l-0.00655,0.01259l0.00891,0.00223l-0.11873,0.47493c-0.02437,0.10739 -0.11787,0.18852 -0.23125,0.19413c-0.04239,0.29355 -0.08995,0.5879 -0.14097,0.88462l-0.02239,0.24582c-0.00346,0.04335 -0.01797,0.08359 -0.04072,0.11789c0.00152,0.01363 0.00152,0.02197 0.00152,0.02197c0,0.13621 -0.00015,0.27298 -0.00057,0.41022c0.33786,0.32385 0.59595,0.67029 0.8412,1.08c0.10513,-0.35527 0.23304,-0.71713 0.39134,-1.09078l0.04173,-0.45383c0,0 0.02439,-0.24881 0.2732,-0.22441c0.24881,0.02439 0.22441,0.2732 0.22441,0.2732l-0.04463,0.43213c1.17225,-1.95913 0.42083,-6.21971 0.42083,-8.33152c0,0 0,-0.25 0.25,-0.25c0.25,0 0.25,0.25 0.25,0.25c0,2.11525 0.60798,5.7531 -0.22825,7.9986c0.02091,0.00294 0.04327,0.00866 0.06715,0.01774c0.23366,0.08889 0.14477,0.32256 0.14477,0.32256l-0.00435,0.01144c-0.17746,0.46646 -0.34208,0.94257 -0.49422,1.42591c0.03458,0.09162 -0.00101,0.18654 -0.00101,0.18654l-0.04775,0.12734c-0.11524,0.30731 -0.21809,0.61854 -0.31226,0.93246c-0.51192,1.9273 -0.83827,3.93317 -0.99993,5.87318c0,0 -0.02076,0.24914 -0.2699,0.22838c-0.24914,-0.02076 -0.22838,-0.2699 -0.22838,-0.2699c0.0111,-0.13319 0.02296,-0.26668 0.0356,-0.40043c-0.01203,0.03136 -0.02419,0.06267 -0.03649,0.09393c0.00001,0.73409 0.00002,1.46818 0.00002,2.20227l0,0.375c0,0 0,0.25 -0.25,0.25c-0.25,0 -0.25,-0.25 -0.25,-0.25l0,-0.375c0,-0.74074 -0.00001,-1.48149 -0.00002,-2.22223c-0.00062,-0.01094 -0.00055,-0.02155 0,-0.03164c-0.00001,-0.37843 -0.00002,-0.75685 -0.00003,-1.13528c-0.00003,-0.96741 0.01768,-1.95044 0.00058,-2.93196c-0.00989,0.07061 -0.0202,0.14111 -0.03096,0.21149c0.01825,0.39598 0.02856,0.79341 0.02947,1.19284l0.00095,0.41621c0,0 0.00003,0.01442 -0.00338,0.03634c0.00226,0.23738 0.00338,0.47542 0.00338,0.71423v0.125c0,0 0,0.25 -0.25,0.25c-0.25,0 -0.25,-0.25 -0.25,-0.25v-0.125c0,-0.10342 -0.00021,-0.2067 -0.00064,-0.30983c-0.02312,0.07219 -0.04697,0.14411 -0.07158,0.21574l-0.01385,0.04032c0,0 -0.08122,0.23644 -0.31766,0.15522c-0.23644,-0.08122 -0.15522,-0.31766 -0.15522,-0.31766l0.01385,-0.04032c0.23142,-0.67368 0.39366,-1.37421 0.50736,-2.08814c-0.0047,-0.14312 -0.00984,-0.2861 -0.01544,-0.42896c-0.02558,-0.42154 -0.05975,-0.84165 -0.10069,-1.26104c-0.01081,0.08649 -0.02163,0.17302 -0.03219,0.25753c-0.21973,1.75786 -0.5221,3.54262 -0.65779,5.31307c-0.01122,-0.10362 -0.02204,-0.20722 -0.0324,-0.3108c0,0 -0.02488,-0.24876 -0.27364,-0.22388c-0.00419,0.00042 -0.00829,0.0009 -0.01233,0.00144c0.00705,-0.50031 -0.05637,-0.96498 -0.2128,-1.36296c0,-0.00491 0,-0.00982 0,-0.01473c0,0 0,-0.044 -0.01846,-0.09509c0.14578,-1.37344 0.27227,-2.74108 0.33069,-4.1432c0.00798,-0.19148 0.01558,-0.38275 0.02257,-0.57391c0.01142,-0.04471 0.02262,-0.08852 0.03369,-0.13113c0.11772,-0.45319 0.19982,-0.91691 0.25691,-1.38629c0.00799,0.06239 0.04232,0.1305 0.13779,0.17823c0.03939,0.0197 0.07531,0.02898 0.10776,0.03092c0.00281,0.45642 0.00404,0.91318 0.00404,1.37048v0.375c0,0 0,0.25 0.25,0.25c0.01701,0 0.03286,-0.00116 0.04764,-0.00331c-0.09142,-0.83737 -0.20721,-1.67293 -0.33292,-2.51239c-0.02772,-0.017 -0.05589,-0.03405 -0.08451,-0.05116l-0.10381,0.20506c0,0 -0.00501,0.01002 -0.01078,0.02687c0.01051,-0.09402 0.02005,-0.18826 0.02873,-0.28266c-0.09171,-0.05355 -0.18793,-0.10778 -0.28905,-0.16293c0,0 -0.21947,-0.11971 -0.09976,-0.33919c0.11971,-0.21947 0.33919,-0.09976 0.33919,-0.09976c0.0307,0.01675 0.06099,0.03343 0.09088,0.05007c0.00926,-0.15711 0.01657,-0.31448 0.02232,-0.47193c0.03855,0.10592 0.0742,0.21167 0.1072,0.31733c0.02138,-0.01615 0.04777,-0.0297 0.0803,-0.03905c-0.01414,-0.11849 -0.02864,-0.23713 -0.04349,-0.35593c0,0 -0.01029,-0.08233 0.02842,-0.15807c-0.00369,-0.00893 -0.0074,-0.01786 -0.01112,-0.02679c0,0 -0.09615,-0.23077 0.13462,-0.32692c0.16967,-0.0707 0.26658,0.03534 0.30599,0.09644c0.35492,-1.34852 0.13692,-3.06536 -0.01081,-4.39306c0,0 -0.02761,-0.24847 0.22086,-0.27608c0.02513,-0.00279 0.048,-0.00276 0.06881,-0.00045c-0.02142,-0.0712 -0.03635,-0.20767 0.12115,-0.29167zM236.57199,184.45868c0,0 -0.13868,-0.20801 0.06934,-0.34669c0.01279,-0.00853 0.02533,-0.01575 0.03758,-0.02178c0.00288,-0.01129 0.00574,-0.02259 0.0086,-0.03388c0,0.00994 0,0.01988 0,0.02982c0.18211,-0.08243 0.30051,0.09518 0.30051,0.09518c0.11943,0.18287 0.21009,0.37403 0.27877,0.57118c0.05988,-0.76861 0.07219,-1.53852 0.04571,-2.30749c0,-0.94001 0,-1.88001 0,-2.82002c0,0 0,-0.12835 -0.09196,-0.20112c-0.15923,0.825 -0.37037,1.63581 -0.64772,2.41834c-0.12551,1.16514 -0.36069,2.23588 -0.73771,3.31444c0.03562,-0.4672 0.06842,-0.9357 0.08687,-1.40647c0.21616,0.02133 0.26066,-0.20116 0.26066,-0.20116l0.02694,-0.13471c0.06,-0.30367 0.09647,-0.61444 0.11742,-0.92913c-0.00997,0.02424 -0.02002,0.04844 -0.03013,0.07261c-0.3146,0.74905 -0.62622,1.49816 -0.92432,2.25393l-0.021,0.01207c-0.04771,0.61781 -0.10352,1.23391 -0.13449,1.84604c-0.00021,0.00044 -0.00041,0.00089 -0.00062,0.00133c0.0822,0.0654 0.09451,0.17622 0.09451,0.17622c0.05161,0.46447 0.08206,0.92571 0.10008,1.38726c0.08337,-0.03947 0.12506,-0.12285 0.12506,-0.12285l0.14471,-0.30437c0.00352,-0.34318 0.01741,-0.68608 0.03703,-1.02908c0.3587,-0.78329 0.64177,-1.54283 0.85969,-2.31154c-0.00184,-0.00272 -0.00369,-0.00543 -0.00554,-0.00814zM241.69646,169.46739c0.00407,-0.0194 0.01071,-0.04236 0.02153,-0.06562c-0.00645,-0.43805 -0.01536,-0.87611 -0.02789,-1.31462c0,0 -0.00217,-0.07598 0.03777,-0.14534c-0.06326,-0.13319 -0.1267,-0.26626 -0.19162,-0.39867c0.06662,0.60416 0.13498,1.26215 0.1602,1.92425zM241.3854,172.62c-0.0164,-0.10644 -0.02808,-0.21134 -0.03634,-0.3193l-0.08649,0.05099c0.03124,0.08915 0.06128,0.17859 0.09017,0.26831zM236.6464,178.6284c-0.0328,0.00547 -0.06051,0.01457 -0.0839,0.02624c0,0.34955 0,0.69909 0,1.04864c0.01245,0.0878 0.02453,0.17564 0.03622,0.26353c0.09799,-0.42542 0.18025,-0.85609 0.24903,-1.28975c-0.04338,-0.03826 -0.10748,-0.06431 -0.20135,-0.04866zM237.87135,186.19909c-0.01276,0.02335 -0.02543,0.04635 -0.03801,0.06897c0.01382,-0.00544 0.02896,-0.00983 0.04552,-0.01292c-0.0025,-0.01868 -0.005,-0.03736 -0.00751,-0.05605zM237.0625,176.125l0.01885,-0.01885c-0.00659,-0.00267 -0.01287,-0.00557 -0.01887,-0.00869c0.00001,0.00918 0.00002,0.01836 0.00002,0.02754zM242.96325,176.4855l-0.03273,-0.06642c-0.03624,-0.07404 -0.07144,-0.14613 -0.10577,-0.21639c-0.12142,0.69888 -0.19067,1.39669 -0.26938,2.1435c0.139,-0.60418 0.27931,-1.20882 0.44624,-1.80498c-0.02562,-0.02983 -0.03836,-0.0557 -0.03836,-0.0557zM242.25455,179.61987c-0.02817,0.00621 -0.06065,0.00788 -0.09806,0.0032c-0.03527,-0.00441 -0.0649,-0.01321 -0.08978,-0.02505c-0.00123,0.24875 -0.00267,0.49701 -0.00353,0.74453c0.0676,-0.23939 0.13083,-0.48048 0.19136,-0.72268zM242.45223,175.45682c-0.21381,-0.40911 -0.41662,-0.74678 -0.66825,-1.05172c-0.00001,0.00087 -0.00002,0.00175 -0.00003,0.00262c0.21182,1.24313 0.26964,2.51922 0.28205,3.79475c0.0975,-0.95428 0.18171,-1.83912 0.38624,-2.74565zM240.31061,191.30216c0.07734,-0.1975 0.15128,-0.39641 0.22177,-0.59661c-0.06497,0.19635 -0.14066,0.39121 -0.20705,0.59039zM239.6875,184.8337c0,-0.62245 0,-1.2449 0,-1.86735c0.03606,-0.15454 0.06823,-0.30872 0.09596,-0.46183c0.07369,0.61455 0.15721,1.22971 0.23576,1.84532c-0.06302,0.12481 -0.14703,0.24184 -0.2585,0.34838c0,0 -0.05553,0.05553 -0.07322,0.13548zM234.3125,188.86653c0,-0.00341 0,-0.00682 0,-0.01023c0.00771,0.00301 0.01528,0.00586 0.02271,0.00854c-0.00753,0.00059 -0.0151,0.00115 -0.02271,0.00169zM239.56167,173.49917c-0.00352,0.54894 -0.0182,1.09617 -0.03808,1.64424c-0.00324,0.01601 -0.00655,0.03218 -0.00994,0.0485c-0.02245,-0.18063 -0.04792,-0.36098 -0.07592,-0.54119c0.04602,-0.38753 0.08767,-0.77082 0.12394,-1.15155zM243.2864,174.44917c-0.00614,-0.00465 -0.01194,-0.00936 -0.01742,-0.01409c-0.1137,0.33409 -0.20608,0.65938 -0.28292,0.98058c0.06859,0.13264 0.13867,0.2716 0.21165,0.41773c0.13759,-0.48829 0.28713,-0.97088 0.44895,-1.44545l-0.00999,0.01316c0,0 -0.1511,0.19917 -0.35027,0.04806z" fill="#04ff00" stroke-width="0.5"/><path d="M246.39636,192.95474c0.12526,0.21636 -0.0911,0.34162 -0.0911,0.34162l-0.32729,0.18948c-2.45502,1.41776 -2.17627,0.26087 -3.21651,-1.60443c0,0 -0.06156,-0.11081 -0.01811,-0.21846c-0.04362,-0.04664 -0.07483,-0.11781 -0.04839,-0.22359c0.06063,-0.24254 0.30317,-0.1819 0.30317,-0.1819l0.01493,0.00373c0.28041,0.07168 0.53808,0.09877 0.79943,0.09783c-0.00093,-1.14552 -0.03487,-2.28313 -0.08835,-3.41897c-0.04641,0.03756 -0.19241,0.13273 -0.33842,-0.01327c-0.17678,-0.17678 0,-0.35355 0,-0.35355l0.06633,-0.03227c0.07754,-0.21723 0.14967,-0.43608 0.21716,-0.6563c-0.06577,-1.16161 -0.14761,-2.32336 -0.23108,-3.49184c0,0 -0.01781,-0.24936 0.23155,-0.26718c0.24936,-0.01781 0.26718,0.23155 0.26718,0.23155c0.04712,0.65963 0.0937,1.31716 0.13717,1.97373c0.09389,-0.42233 0.17774,-0.84744 0.25662,-1.27372c-0.12512,-0.47573 -0.2853,-0.88223 -0.47617,-1.16853c0,0 -0.13868,-0.20801 0.06934,-0.34669c0.20801,-0.13868 0.34669,0.06934 0.34669,0.06934c0.08584,0.12876 0.16572,0.27611 0.23945,0.43895c0.01684,-0.09697 0.03364,-0.19394 0.05044,-0.29088c0.00481,-0.50216 0.0021,-1.00487 0.0021,-1.5094c0,0 0,-0.25 0.25,-0.25c0.12444,0 0.18693,0.06194 0.21832,0.12415c0.01839,-0.00132 0.03829,-0.00072 0.05982,0.00221c-0.0483,-0.09081 -0.01852,-0.19505 -0.01852,-0.19505l0.11264,-0.39424c0.32616,-1.12892 0.25273,-2.40203 0.25267,-3.57133c-0.00003,-0.46654 0.00435,-0.93333 0.00967,-1.40013c-0.55662,1.82666 -1.05787,3.66331 -1.52933,5.51556c-0.18458,0.72518 0.04568,1.86564 -0.61845,2.26741c0,0 -0.22361,0.1118 -0.33541,-0.1118c-0.1118,-0.22361 0.1118,-0.33541 0.1118,-0.33541c0.27003,-0.07154 0.26754,-1.58732 0.35739,-1.94308c0.5258,-2.08174 1.09692,-4.1425 1.73734,-6.19184l0.02845,-0.09104c0,0 0.06342,-0.20293 0.26042,-0.17603c0.02184,-2.16427 0.0067,-4.32415 -0.39252,-6.45333c0,0 -0.04607,-0.24572 0.19965,-0.29179c0.24572,-0.04607 0.29179,0.19965 0.29179,0.19965c0.04878,0.26018 0.09193,0.52079 0.13005,0.78178c0.00451,-0.05307 0.03555,-0.2357 0.24923,-0.2357c0.25,0 0.25,0.25 0.25,0.25c0,1.78856 0.24361,3.78556 -0.10291,5.53932l-0.02694,0.13471c0,0 -0.02029,0.10146 -0.10004,0.16078c-0.00797,0.7934 -0.02023,1.58742 -0.02018,2.38091c0.00007,1.22069 0.06191,2.52848 -0.2719,3.70872l-0.11264,0.39424c0,0 -0.06098,0.21345 -0.26915,0.18061c0.04165,0.08169 0.02436,0.17249 0.02436,0.17249c-0.08728,0.45822 -0.16797,0.91898 -0.24825,1.38033c-0.00665,0.64076 -0.02571,1.28069 -0.07772,1.92242c0.29739,1.78462 0.17523,3.99219 -0.46248,5.08284l-0.11775,0.19625c0,0 -0.03648,0.06081 -0.10297,0.09822c0.00544,0.26733 0.00934,0.53497 0.01153,0.80299c0.00271,0.00133 0.00536,0.00269 0.00796,0.00408c0.14368,-0.36905 0.27706,-0.74195 0.37984,-1.13253c0,0 0.06362,-0.24177 0.30539,-0.17815c0.03751,0.00987 0.06767,0.02403 0.09185,0.04091c0.62692,-2.03821 0.95279,-3.91411 0.96657,-6.23484c-0.00074,-0.01226 -0.00059,-0.02416 0.00019,-0.03546c0.00018,-0.03948 0.00027,-0.07909 0.00027,-0.11883c0,0 0,-0.16374 0.13252,-0.22619c0.12278,-0.27592 0.24693,-0.55124 0.37293,-0.8257c-0.02827,-1.02838 -0.01846,-2.05763 -0.00855,-3.08667l-0.12189,0.01357c0,0 -0.25,0 -0.25,-0.25c0,-0.25 0.25,-0.25 0.25,-0.25l0.10907,0.04351c0.00373,-0.16995 0.01088,-0.34075 0.02093,-0.51235c0.00253,-0.41113 0.0032,-0.82217 -0.00041,-1.23306l-0.1071,-0.48196l0.03761,-0.00836c-0.05958,-0.15676 -0.10982,-0.31656 -0.14608,-0.47973l-0.03307,-0.14881c0,0 -0.05423,-0.24405 0.18981,-0.29828c0.00873,-0.00194 0.01722,-0.0035 0.02547,-0.0047c-0.02011,-0.49325 -0.05044,-0.98617 -0.09521,-1.47862c0,0 -0.02263,-0.24897 0.22634,-0.27161c0.24897,-0.02263 0.27161,0.22634 0.27161,0.22634c0.003,0.03297 0.00595,0.06596 0.00885,0.09895c0.10162,-1.26348 0.11718,-2.52503 0.11718,-3.82631c0,0 0,-0.25 0.25,-0.25c0.25,0 0.25,0.25 0.25,0.25c0,0.25133 -0.00061,0.50123 -0.00232,0.75001c0.00077,0 0.00154,-0.00001 0.00232,-0.00001c0.25,0 0.25,0.25 0.25,0.25c0,1.62013 0.10449,3.2835 -0.10361,4.8848c0.03213,1.16553 0.03188,2.33591 -0.60488,3.34003c-0.00738,0.71941 -0.02092,1.4379 -0.03442,2.15336c0.40622,-1.5626 0.63171,-3.27985 1.01093,-4.65046l0.11604,-0.41939c0,0 0.05007,-0.18098 0.22028,-0.18584c0.01606,-0.70667 0.02067,-1.41436 0.02067,-2.12249c0,0 0,-0.25 0.25,-0.25c0.25,0 0.25,0.25 0.25,0.25c0,0.05117 -0.00002,0.10234 -0.00007,0.15351c0.02804,-0.01417 0.06235,-0.02415 0.10431,-0.02765c0.24914,-0.02076 0.2699,0.22838 0.2699,0.22838c0.002,0.02399 0.00399,0.04797 0.00597,0.07195c0.013,-0.04245 0.04145,-0.08611 0.0949,-0.12619c0.03564,-0.02673 0.06969,-0.04235 0.10159,-0.04996c-0.0179,-0.53227 -0.04204,-1.06437 -0.07438,-1.59738c-0.00221,-0.01692 -0.00221,-0.02758 -0.00221,-0.02758l0,-0.0087c-0.03251,-0.52963 -0.07316,-1.06017 -0.12387,-1.59269c0,0 -0.01242,-0.13039 0.0751,-0.2114c-0.05193,-0.8491 -0.13551,-1.69833 -0.20049,-2.54313c0,0 -0.01917,-0.24926 0.23009,-0.26844c0.24926,-0.01917 0.26844,0.23009 0.26844,0.23009c0.10245,1.33184 0.24898,2.67395 0.25061,4.01008l0.00012,0.36066c0.04489,0.73542 0.07428,1.46914 0.0932,2.20392c0.01131,0.02367 0.02235,0.04752 0.03314,0.07157c-0.00087,-0.0845 -0.00133,-0.16853 -0.00133,-0.25205c0,0 0,-0.25 0.25,-0.25c0.00074,0 0.00148,0 0.00221,0.00001c-0.01554,-1.86508 -0.10357,-3.70542 -0.49685,-5.5735c0,0 -0.0515,-0.24464 0.19313,-0.29614c0.24464,-0.0515 0.29614,0.19313 0.29614,0.19313c0.03681,0.17487 0.07104,0.34952 0.10286,0.52401c0,-0.28067 0,-0.5629 0,-0.8325c0,0 0,-0.25 0.25,-0.25c0.25,0 0.25,0.25 0.25,0.25c0,0.48 0,0.96 0,1.44v0.04c0,0 0,0.25 -0.25,0.25c-0.04359,0 -0.07958,-0.0076 -0.10929,-0.02015c0.20542,1.47507 0.2591,2.94244 0.26873,4.42537c0.02626,-0.01215 0.05773,-0.02077 0.09542,-0.02419c0.1695,-0.01541 0.2341,0.09507 0.25806,0.16717c0.02608,-0.07481 0.05109,-0.14979 0.07509,-0.22494c-0.09276,-0.85308 -0.18552,-1.70596 -0.18552,-2.56825c0,0 0,-0.25 0.25,-0.25c0.25,0 0.25,0.25 0.25,0.25c0,0.35238 0.01554,0.70322 0.04026,1.05318c0.21237,-1.32949 0.20974,-2.71705 0.20974,-4.17818c0,0 0,-0.25 0.25,-0.25c0.09203,0 0.15019,0.03388 0.18693,0.0767c0.02954,-0.03147 0.07279,-0.05767 0.13569,-0.07115c0.24445,-0.05238 0.29683,0.19207 0.29683,0.19207c0.36662,1.71087 0.38055,3.30557 0.38055,5.05238v0.125c0,0 0,0.24611 -0.24418,0.24995c0.04459,0.89037 0.03153,1.77484 -0.13082,2.55525c0,0.14827 0,0.29653 0,0.4448v0.375c0,0.13807 -0.11193,0.25 -0.25,0.25c-0.04554,0 -0.08823,-0.01217 -0.125,-0.03345c0,1.43699 0,2.87398 0,4.31098c0.125,0.06498 0.125,0.22247 0.125,0.22247c0,0.21264 0,0.42528 0,0.63791c0.03499,-0.28652 0.05271,-0.56141 0.0525,-0.81791c0,0 0,-0.25 0.25,-0.25c0.25,0 0.25,0.25 0.25,0.25c-0.0001,0.13724 -0.0048,0.27858 -0.01402,0.42325c0.01802,-0.02831 0.03474,-0.04503 0.03474,-0.04503l0.05218,0.03758c0.11427,-1.99679 0.1246,-3.98203 0.1246,-5.9858c0,0 0,-0.25 0.25,-0.25c0.05157,0 0.09251,0.01064 0.125,0.02753c0,-0.84251 0,-1.68502 0,-2.52753c0,0 0,-0.25 0.25,-0.25c0.25,0 0.25,0.25 0.25,0.25c0,0.46771 0,0.93542 0,1.40313l0.15099,-0.01876c0.16348,-0.25399 0.13858,-0.44112 0.157,-0.75997c0,0 0.01559,-0.24951 0.26511,-0.23392c0.24951,0.01559 0.23392,0.26511 0.23392,0.26511c-0.03664,0.54972 -0.05108,0.74858 -0.403,1.16003l-0.40401,0.0793c0,0.74336 0,1.48672 0,2.23008c0,0.375 0,0.75 0,1.125c0,0.375 0,1 0,1.375v0.25c0,0 0,0.25 -0.25,0.25c-0.08366,0 -0.13933,-0.028 -0.17636,-0.06525c-0.01789,0.56767 -0.04189,1.13559 -0.07404,1.70445l-0.19782,0.28758c0,0 -0.17678,0.17678 -0.35355,0c-0.0239,-0.0239 -0.04134,-0.0478 -0.05362,-0.07126c-0.06893,0.72501 -0.24518,1.51992 -0.5196,2.29405c0,0.45015 0,0.90029 0,1.35044v0.125c0,0 0,0.25 -0.25,0.25c-0.25,0 -0.25,-0.25 -0.25,-0.25c0,0.5 0,1 0,1.5l-0.26591,0.02495c0.01059,0.57269 0.01591,1.14732 0.01591,1.72505c0,0.03266 0,0.06532 0,0.09798c0.00235,-0.01168 0.00482,-0.02291 0.00746,-0.03361c0,0 0.06063,-0.24254 0.30317,-0.1819c0.24254,0.06063 0.1819,0.30317 0.1819,0.30317c-0.00504,0.01986 -0.00982,0.03946 -0.01438,0.05882c0.02663,-0.00911 0.05782,-0.01445 0.09435,-0.01445c0.25,0 0.25,0.25 0.25,0.25c0,1.2 0,2.4 0,3.6v0.04c0,0 0,0.25 -0.25,0.25c-0.25,0 -0.25,-0.25 -0.25,-0.25c0,-1.04362 0,-2.1175 0,-3.169c-0.07473,0.20963 -0.20708,0.3826 -0.51506,0.54231l-0.43244,0.00669c0,0 -0.25,0 -0.25,-0.25c0,-0.25 0.25,-0.25 0.25,-0.25l0.31756,0.00669c0.22485,-0.10061 0.25084,-0.47572 0.28443,-0.75453l-0.52877,0.04962c0,0 -0.17678,-0.17678 0,-0.35355c0.0173,-0.0173 0.0346,-0.03121 0.05173,-0.04224c-0.00075,-0.74943 -0.01051,-1.49361 -0.02915,-2.23521c-0.48491,0.61629 -1.05847,1.10917 -1.71138,1.38681c-0.00356,0.60583 -0.00769,1.21159 -0.009,1.81711c0.10427,-0.47053 0.17798,-0.94504 0.25514,-1.43369c0,0 0.03899,-0.24694 0.28593,-0.20795c0.24694,0.03899 0.20795,0.28593 0.20795,0.28593c-0.13225,0.83758 -0.25758,1.63568 -0.53014,2.44118l-0.10002,0.13661c0,0 -0.15837,0.15837 -0.32522,0.02541c-0.01375,0.00184 -0.02841,0.00281 -0.04406,0.00281c-0.25,0 -0.25,-0.25 -0.25,-0.25c0,-0.125 0,-0.5 0,-0.625c0,-0.67533 0.00444,-1.35102 0.00856,-2.02682c-0.11655,0.02782 -0.23528,0.04887 -0.35616,0.06274l-0.02141,0.00246c0,0 -0.19934,0.02286 -0.26133,-0.15096c-0.05583,0.49794 -0.10327,0.99548 -0.11983,1.49708l-0.19804,0.29229c0,0 -0.17678,0.17678 -0.35355,0c-0.17678,-0.17678 0,-0.35355 0,-0.35355l0.05196,0.04229c0.06342,-1.50429 0.37482,-2.94238 0.37482,-4.49051c0,0 0,-0.25 0.25,-0.25c0.0141,0 0.02741,0.0008 0.03996,0.0023c0.07285,-0.33473 0.09501,-0.67385 0.09853,-1.01767c-0.04821,0.11938 -0.09195,0.24114 -0.12987,0.36619l-0.14457,0.47236c0,0 -0.07317,0.23905 -0.31222,0.16589c-0.23905,-0.07317 -0.16589,-0.31222 -0.16589,-0.31222l0.14457,-0.47236c0.14551,-0.47143 0.36229,-0.89603 0.59449,-1.32077c0,-0.0029 0,-0.00581 0,-0.00871c0,0 0,-0.16029 0.12835,-0.22418c0.04872,-0.08803 0.09766,-0.17644 0.14634,-0.26563c0.0356,-0.12143 0.07473,-0.25234 0.11649,-0.39156c-0.00499,-0.07529 -0.01017,-0.15056 -0.01555,-0.22583c0,0 -0.00731,-0.10233 0.05299,-0.18057c-0.11318,-0.4173 -0.20945,-0.89861 -0.29914,-1.37982c-0.09397,0.65807 -0.21124,1.31399 -0.35743,1.96717l-0.16464,0.41752c0,0 -0.09212,0.23241 -0.32453,0.14029c-0.23241,-0.09212 -0.14029,-0.32453 -0.14029,-0.32453l0.1515,-0.3801c0.25213,-1.14341 0.41557,-2.29448 0.52091,-3.45062c-0.03873,-0.16877 -0.07859,-0.32284 -0.12043,-0.4569c-0.37303,1.85322 -0.72487,3.87292 -1.58135,5.3428c-0.06123,2.59202 -0.39291,5.0154 -1.7107,7.36002c-0.1134,0.0274 -0.22248,0.05166 -0.3286,0.0724c-0.06831,0.17039 -0.13614,0.34177 -0.20161,0.51542c-0.0019,0.03778 -0.0227,0.2441 -0.24981,0.2441c-0.25,0 -0.25,-0.25 -0.25,-0.25l0.01585,-0.1276c0.03842,-0.10267 0.07776,-0.20448 0.11761,-0.30571c-0.21641,0.01349 -0.43073,0.0068 -0.65682,-0.02425c0.26069,0.62808 0.25294,1.46642 0.55046,1.95969c0.15912,0.26382 1.6837,-0.60904 1.89036,-0.729l0.32729,-0.18948c0,0 0.21636,-0.12526 0.34162,0.0911zM248.51152,188.79163l0.02141,-0.00246c0.14202,-0.01629 0.28077,-0.04428 0.41614,-0.08303c0.00619,-1.14719 0.00797,-2.29449 -0.01791,-3.44063c-0.02958,0.47434 -0.11018,0.9408 -0.31254,1.40804l-0.07698,0.17643c0,0 -0.00039,0.00089 -0.00117,0.00254c-0.03968,0.68735 -0.12631,1.36168 -0.20458,2.03392c0.06514,-0.08214 0.17563,-0.09481 0.17563,-0.09481zM250.81347,181.64697c0,0 -0.02197,-0.24903 0.22706,-0.27101c0.00753,-0.00066 0.01485,-0.00108 0.02197,-0.00126l0,-0.24963c-0.0008,-1.46329 -0.09585,-2.90026 -0.21765,-4.34492c-0.0098,0.01629 -0.01966,0.03258 -0.02959,0.04886c-0.00146,0.26962 -0.00275,0.54008 -0.00324,0.81153c-0.0409,0.32971 -0.08208,0.65939 -0.1236,0.98903l-0.00008,0.02175c0.03319,1.17728 0.0225,2.35707 -0.13943,3.46837c0.04177,-0.00162 0.08939,0.00925 0.14221,0.04094c0.21437,0.12862 0.08575,0.343 0.08575,0.343l-0.2355,0.39251c-0.07363,0.12271 -0.14441,0.23027 -0.2125,0.32364c-0.01625,0.06213 -0.03314,0.12395 -0.05071,0.18543c-0.18382,0.64337 -0.36317,1.28756 -0.56457,1.92567l-0.03768,0.11938c0,0 -0.05891,0.18661 -0.23759,0.17751c0.01683,0.9595 0.01621,1.9197 0.01159,2.87988c0.66058,-0.33694 1.22628,-0.93328 1.68426,-1.65326c-0.05891,-1.73325 -0.16631,-3.45767 -0.3207,-5.20742zM252.28883,171.00108c0.00266,-0.00023 0.00535,-0.00042 0.00807,-0.00059c0.08641,-0.0054 0.14477,0.02099 0.18414,0.05781c-0.03713,-0.45952 -0.09113,-0.91963 -0.16969,-1.38653c-0.00203,0.44997 -0.00757,0.89288 -0.02252,1.32931zM251.5625,181.12493l0,0.37507c0,0 0,0.24202 -0.23812,0.24981c0.05443,0.62707 0.10285,1.25109 0.14518,1.87358c0.03152,-0.06196 0.09401,-0.12339 0.21794,-0.12339c0.25,0 0.25,0.25 0.25,0.25c0,-0.30597 0,-0.60961 0,-0.90845c-0.05404,-0.03126 -0.0953,-0.08217 -0.11399,-0.14297l-0.12318,-0.36953c0,0 -0.06821,-0.20464 0.11217,-0.2971c0,-1.38565 0,-2.7713 0,-4.15695c0,0 0,-0.25 0.25,-0.25c0.01115,0 0.0218,0.0005 0.03198,0.00145c-0.03198,-0.06298 -0.03198,-0.12645 -0.03198,-0.12645l0.00078,-0.0124l-0.04359,-0.10899l0.05175,-0.0207l0.00286,-0.04554c-0.05441,-0.11704 -0.10162,-0.23432 -0.14436,-0.35382c0.00111,0.04726 0.00196,0.09454 0.00256,0.14185l0.00031,0.02459h0.0047l0,0.375c0,0.13807 -0.11193,0.25 -0.25,0.25c-0.13715,0 -0.24851,-0.11045 -0.24999,-0.24725l-0.00498,-0.39605c-0.00062,-0.0489 -0.00151,-0.09777 -0.00267,-0.14662c-0.0425,-0.13559 -0.03354,-0.29447 -0.01828,-0.46092c-0.01291,-0.23702 -0.03081,-0.47351 -0.05174,-0.70968c-0.02703,0.06102 -0.05484,0.12193 -0.08343,0.18274c0.15304,1.71799 0.28513,3.41718 0.28608,5.15271zM249.26824,181.36297c0.00138,-0.42714 -0.00695,-0.85626 -0.01873,-1.28473l-0.18702,0.04675c0,-0.64545 -0.01197,-1.28847 -0.03412,-1.9305c-0.05734,-0.05026 -0.11416,-0.1132 -0.17144,-0.18796c-0.02321,0.43802 -0.05278,0.87547 -0.09034,1.31221c0.20642,0.69029 0.34472,1.38838 0.48721,2.09637c0.00481,-0.01734 0.00962,-0.03472 0.01442,-0.05215zM248.3607,177.9175c-0.04464,0.19527 -0.08774,0.39434 -0.13001,0.59624c0.03542,-0.01259 0.06742,-0.01776 0.09623,-0.0175c0.01259,-0.19279 0.0238,-0.38571 0.03378,-0.57873zM251.82055,175.37261c0.18273,-0.00402 0.23364,0.18846 0.23364,0.18846l0.05572,0.21064c0.02253,0.08518 0.04924,0.17256 0.07759,0.26145c0,-0.88605 0,-1.77211 0,-2.65816c0,0 0,-0.09058 0.05452,-0.16269c-0.02015,-0.21277 -0.04131,-0.42302 -0.06203,-0.62904c-0.08175,0.73269 -0.21389,1.44789 -0.4274,2.14858c0.02323,0.21351 0.04637,0.42704 0.06796,0.64076zM248.92251,176.10481c-0.00628,0.3379 -0.01495,0.6756 -0.02675,1.01304c0.03255,0.06919 0.06468,0.1385 0.09657,0.20788c-0.01965,-0.40698 -0.04308,-0.81384 -0.06983,-1.22092zM249.8125,178.5c-0.04025,0 -0.07828,-0.00951 -0.11196,-0.02641c0.00763,0.32085 0.01767,0.6438 0.02753,0.96781c0.06168,-0.31749 0.11506,-0.63647 0.15638,-0.9519c-0.02278,0.00683 -0.04693,0.01051 -0.07194,0.01051zM249.3625,174.9c0,0 -0.01651,-0.02201 -0.03127,-0.05691c0.06497,0.80501 0.11884,1.60772 0.1582,2.41089c0.02756,0.00445 0.05128,0.01242 0.07171,0.02285c-0.00286,-0.712 -0.01072,-1.42039 -0.02819,-2.12771c-0.05161,-0.08763 -0.10833,-0.1708 -0.17045,-0.24911zM249.61428,183.78033l-0.03717,0.26021c0.03049,-0.10627 0.06081,-0.2126 0.09108,-0.31895c-0.01532,0.00009 -0.03044,-0.00081 -0.04537,-0.00268c-0.0028,0.02049 -0.00564,0.04096 -0.00854,0.06141zM250.20853,179.51593c-0.12236,0.65662 -0.28021,1.30623 -0.44438,1.91408c-0.00349,0.66861 -0.03031,1.3326 -0.10331,1.98278c0.05362,-0.09891 0.12091,-0.21655 0.18707,-0.3299c0.28942,-1.1101 0.36585,-2.32903 0.36062,-3.56696zM249.4131,184.60352c0.03188,-0.10732 0.06336,-0.21475 0.09456,-0.32226c-0.02693,0.03359 -0.06235,0.06008 -0.10301,0.07621c0.00298,0.08201 0.00579,0.16403 0.00844,0.24605zM244.27429,189.1798c0.36321,-0.90897 0.44529,-2.37599 0.30554,-3.7095c-0.00788,-0.00378 -0.01552,-0.00797 -0.02291,-0.01252c-0.11136,0.50024 -0.23652,0.99669 -0.38361,1.48679c0.04162,0.7445 0.07654,1.48902 0.10099,2.23523z" fill="#04ff00" stroke-width="0.5"/><path d="M240.93771,187.875c-0.25,0.00021 -0.25021,-0.24979 -0.25021,-0.24979l0,-0.00518c-0.00042,-1.00466 -0.08578,-1.85221 -0.47978,-2.77155c0,0 -0.09848,-0.22979 0.13131,-0.32827c0.22979,-0.09848 0.32827,0.13131 0.32827,0.13131c0.42118,0.98276 0.51885,1.89744 0.52021,2.96808l0,0.00518c0,0 0.00021,0.25 -0.24979,0.25021z" fill="#04ff00" stroke-width="0.5"/><path d="M239.94,169.77c-0.01848,0 -0.03559,-0.00137 -0.05144,-0.0039c0.01483,0.39691 0.01919,0.79469 0.02144,1.19249l0.02181,-0.1422c0,0 0.22361,0.1118 0.1118,0.33541c-0.1118,0.22361 -0.33541,0.1118 -0.33541,0.1118l-0.29819,-0.3022c-0.00594,-1.06949 -0.02427,-2.14091 -0.23515,-3.19237c0,0 -0.04903,-0.24515 0.19612,-0.29417c0.24515,-0.04903 0.29417,0.19612 0.29417,0.19612c0.03873,0.19418 0.07125,0.38896 0.09856,0.58421c0.03704,-0.03722 0.09268,-0.06518 0.17629,-0.06518c0.25,0 0.25,0.25 0.25,0.25c0,0.34667 0,0.69333 0,1.04v0.04c0,0 0,0.25 -0.25,0.25z" fill="#04ff00" stroke-width="0.5"/><path d="M234.1,192.13c-0.25,0 -0.25,-0.25 -0.25,-0.25l0.00746,0.02063c-0.05816,-0.23424 -0.09893,-0.47319 -0.12594,-0.71303c0,0 -0.02761,-0.24847 0.22086,-0.27608c0.24847,-0.02761 0.27608,0.22086 0.27608,0.22086c0.02383,0.21768 0.06057,0.43462 0.11406,0.64697l0.00746,0.10063c0,0 0,0.25 -0.25,0.25z" fill="#04ff00" stroke-width="0.5"/><path d="M239.64715,190.88788c0.23212,-0.09285 0.32497,0.13927 0.32497,0.13927l0.03797,0.26839c0.10507,-0.90341 0.55662,-1.82745 0.6821,-2.76859c0,0 0.03304,-0.24781 0.28085,-0.21477c0.24781,0.03304 0.21477,0.28085 0.21477,0.28085c-0.14105,1.05787 -0.1959,2.89905 -1.3979,3.15141l-0.28203,-0.53161c0,0 -0.09285,-0.23212 0.13927,-0.32497z" fill="#04ff00" stroke-width="0.5"/><path d="M229.13006,191.88561c-0.00561,-0.24994 0.24433,-0.25555 0.24433,-0.25555l-0.03225,0.1688c0.2029,-0.62691 0.28305,-1.27069 0.39126,-1.91996c0,0 0.0411,-0.2466 0.2877,-0.2055c0.2466,0.0411 0.2055,0.2877 0.2055,0.2877c-0.11236,0.67418 -0.19955,1.33938 -0.40854,1.99106l-0.43245,0.17778c0,0 -0.24994,0.00561 -0.25555,-0.24433z" fill="#04ff00" stroke-width="0.5"/><path d="M227.80715,193.43212c-0.23212,-0.09285 -0.13927,-0.32497 -0.13927,-0.32497l0.06212,-0.10715c0,-0.22667 0,-0.45333 0,-0.68c0,0 0,-0.18018 0.15296,-0.23461l-0.14827,-0.06421c-0.12266,-1.02978 -0.1589,-2.1122 -0.16877,-3.16928c-0.00587,0.01482 -0.01177,0.02963 -0.01769,0.04443l-0.06146,0.15366c-0.06352,0.40467 -0.15412,0.80563 -0.26551,1.21558l-0.40125,0.18444c0,0 -0.00235,0 -0.0066,-0.00023c-0.02439,0.0717 -0.08463,0.16023 -0.2334,0.16023c-0.25,0 -0.25,-0.25 -0.25,-0.25l0.00527,-0.02892c-0.02567,-0.12298 -0.05135,-0.24586 -0.07705,-0.36867c-0.09393,0.70508 -0.20922,1.40682 -0.31077,2.11316l0.00254,0.12443c0,0 0,0.25 -0.25,0.25c-0.25,0 -0.25,-0.25 -0.25,-0.25l0.00254,-0.19557c0.15664,-1.08957 0.3469,-2.16811 0.43832,-3.26519c0,0 0.0082,-0.09844 0.07617,-0.1664c-0.18699,-0.89342 -0.37242,-1.78592 -0.55218,-2.68381c0,0 -0.04903,-0.24515 0.19612,-0.29417c0.24515,-0.04903 0.29417,0.19612 0.29417,0.19612c0.27851,1.3939 0.57157,2.77401 0.86263,4.1654c0.00684,-0.00143 0.01323,-0.00253 0.01904,-0.00339c0.06343,-0.24611 0.11869,-0.48931 0.16403,-0.73288c-0.03352,-0.09282 0.00453,-0.18795 0.00453,-0.18795l0.0469,-0.11724c0.05667,-0.37682 0.08805,-0.75778 0.08772,-1.15491c0,0 0,-0.25 0.25,-0.25c0.03847,0 0.07101,0.00592 0.09855,0.01593c-0.00527,-0.01562 -0.01051,-0.03124 -0.01573,-0.04688c0,0 -0.07906,-0.23717 0.15811,-0.31623c0.00923,-0.00308 0.01822,-0.00567 0.02697,-0.00783c0.52154,-1.873 0.70458,-3.8398 0.70458,-5.78c0,0 0,-0.25 0.25,-0.25c0.02075,0 0.03977,0.00172 0.05722,0.00488c0.09008,-1.2684 0.14957,-2.53563 0.17638,-3.8126c-0.02926,-1.27332 -0.10607,-2.4942 -0.29356,-3.74045c-0.06505,0.34062 -0.13391,0.68028 -0.20638,1.01865c0.00352,0.17648 0.00647,0.35324 0.00885,0.53035c0.04225,0.24211 0.08337,0.49201 0.1217,0.74693c0.02184,0.00024 0.04561,0.00326 0.07143,0.00972c0.24254,0.06063 0.1819,0.30317 0.1819,0.30317l-0.00746,0.02986c-0.04772,0.19087 -0.08852,0.3542 -0.13273,0.50378c0.22793,1.97383 0.19678,4.05989 -0.79621,5.07663l-0.4149,0.28538c0,0 -0.20628,0.14124 -0.34752,-0.06504c-0.14124,-0.20628 0.06504,-0.34752 0.06504,-0.34752l0.378,-0.25752c0.20899,-0.20212 0.36698,-0.47082 0.48315,-0.78853c-0.03086,0.06327 -0.09335,0.12733 -0.2199,0.12733c-0.25,0 -0.25,-0.25 -0.25,-0.25v-0.125c0,-0.64504 -0.07303,-1.29896 -0.18394,-1.95425c-0.15899,0.4029 -0.32817,0.72913 -0.4799,0.81078c0.09871,1.27485 0.05342,2.50534 -0.36255,3.38027l-0.34861,0.1382c0,0 -0.25,0 -0.25,-0.25c0,-0.19431 0.15102,-0.23759 0.21831,-0.24724c0.79349,-1.75109 -0.11779,-5.43303 -0.34138,-7.22176c0,0 -0.03101,-0.24807 0.21706,-0.27908c0.24807,-0.03101 0.27908,0.21706 0.27908,0.21706c0.08748,0.6998 0.24856,1.58773 0.38622,2.53058c0.21902,0.00049 0.23969,0.22779 0.23969,0.22779l0.03446,0.37911c0.10339,1.13728 0.1855,0.47995 0.28584,-0.33891c-0.21063,-1.04412 -0.4878,-2.08541 -0.68942,-3.09353c0,0 -0.04903,-0.24515 0.19612,-0.29417c0.24515,-0.04903 0.29417,0.19612 0.29417,0.19612c0.12211,0.61057 0.27055,1.23236 0.41544,1.85936c0.14004,-0.54124 0.27146,-1.08781 0.3933,-1.63817c-0.11176,-0.59293 -0.22185,-1.11227 -0.29903,-1.49813c0,0 -0.04903,-0.24515 0.19612,-0.29417c0.04202,-0.0084 0.07827,-0.00816 0.10951,-0.002c-0.0612,-1.51298 -0.1667,-3.01513 -0.31983,-4.53809c-0.00764,0.06315 -0.04685,0.22524 -0.24815,0.22524c-0.25,0 -0.25,-0.25 -0.25,-0.25v-0.08c0,-1.08379 0.01125,-2.12324 -0.2336,-3.18379c0,0 -0.05621,-0.2436 0.18738,-0.29981c0.2436,-0.05621 0.29981,0.18738 0.29981,0.18738c0.16224,0.70333 0.21773,1.3971 0.23667,2.09972c0.02933,-0.01811 0.06657,-0.03148 0.11385,-0.03689c0.24838,-0.02839 0.27677,0.22 0.27677,0.22c0.14742,1.28995 0.26089,2.56059 0.34231,3.8301c0.02535,-0.01852 0.05756,-0.03391 0.09837,-0.04417c0.0575,-0.01445 0.10479,-0.01184 0.14348,0.00055c0.14088,-1.05014 0.24059,-2.10199 0.29277,-3.14558c0,0 0.01248,-0.24969 0.26217,-0.2372c0.24969,0.01248 0.2372,0.26217 0.2372,0.26217c-0.00718,0.14365 -0.01526,0.28745 -0.02421,0.43138c0.02702,0.05941 0.02702,0.11614 0.02702,0.11614c0,0.87211 0.04494,1.75654 -0.04124,2.62488l-0.06515,0.16693c0,0 -0.07806,0.15612 -0.23419,0.14223c-0.03103,0.2191 -0.06381,0.43808 -0.09827,0.65686c0.02123,0.09919 0.04167,0.19808 0.06135,0.29671c0,-0.10753 0,-0.21507 0,-0.3226v-0.125c0,0 0,-0.25 0.25,-0.25c0.25,0 0.25,0.25 0.25,0.25v0.125c0,1.21179 -0.00002,2.42358 -0.00003,3.63537c-0.00001,0.52288 -0.00551,1.04345 -0.01637,1.56245c0.01253,0.54775 0.01641,1.10487 0.01641,1.67718c0,0 0,0.11562 -0.07863,0.1896c-0.03763,0.82445 -0.08852,1.64704 -0.1521,2.4707l0.06132,0.22075c0.10989,0.39559 0.20957,0.76817 0.29273,1.13569l0.05656,-0.05861c0.06196,-0.13976 0.12392,-0.27951 0.18587,-0.41927c0.17867,-0.39497 0.34654,-0.80003 0.50367,-1.21294c-0.03472,-0.30562 -0.07818,-0.61092 -0.13251,-0.91629c-0.1121,0.50878 -0.23568,1.01801 -0.37014,1.52898c0,0 -0.06362,0.24177 -0.30539,0.17815c-0.24177,-0.06362 -0.17815,-0.30539 -0.17815,-0.30539c0.2275,-0.8645 0.42341,-1.72367 0.58477,-2.58414c-0.02604,-0.09285 -0.05334,-0.18575 -0.08194,-0.27871c0,0 -0.07352,-0.23894 0.16542,-0.31247c0.00781,-0.0024 0.01544,-0.00447 0.0229,-0.00623c0.12949,-0.76819 0.23095,-1.53863 0.30228,-2.31605c-0.03609,-0.16199 -0.07456,-0.32469 -0.11546,-0.48822l-0.00373,-0.01493c0,0 -0.06063,-0.24254 0.1819,-0.30317c0.00007,-0.00002 0.00014,-0.00004 0.00021,-0.00005c0.03993,-0.62127 0.06042,-1.24796 0.06042,-1.88241v-0.375c0,0 0,-0.25 0.25,-0.25c0.25,0 0.25,0.25 0.25,0.25v0.375c0,0.89863 -0.04044,1.7822 -0.11846,2.65703c0.16972,0.77766 0.28585,1.54026 0.35174,2.29802c0.25623,-1.00539 0.45592,-2.02687 0.59965,-3.03701c-0.06679,0.18217 -0.1418,0.36562 -0.22605,0.55095l-0.17669,0.20429c0,0 -0.17329,0.1802 -0.35349,0.00691c-0.1802,-0.17329 -0.00691,-0.35349 -0.00691,-0.35349l0.0819,-0.06461c0.75954,-1.67099 0.7233,-3.18373 0.7233,-5.0121c0,0 0,-0.25 0.25,-0.25c0.25,0 0.25,0.25 0.25,0.25c0,-0.08333 0,-0.16667 0,-0.25v-0.5c0,0 0,-0.25 0.25,-0.25c0.04847,0 0.08754,0.0094 0.11904,0.02455c-0.10956,-1.17622 -0.28899,-2.36567 -0.47311,-3.54107c0.05873,0.00102 0.11759,0.00153 0.17657,0.00153c0.10919,0 0.21797,-0.00175 0.32631,-0.00522c0.26753,1.71873 0.52357,3.46616 0.56988,5.16083c0.05277,-0.47271 0.10531,-0.94546 0.15783,-1.41822c0,0 0.02761,-0.24847 0.27608,-0.22086c0.24847,0.02761 0.22086,0.27608 0.22086,0.27608c-0.21443,1.92984 -0.25781,3.99845 -0.73917,5.88012c-0.00474,0.01854 -0.01043,0.04452 -0.01699,0.07678c0.22024,-0.01194 0.25268,0.21513 0.25268,0.21513c0.18497,1.29482 0.34712,2.80064 0.33422,4.27826c0.02497,0.05335 0.02786,0.10242 0.02786,0.10242c0.01224,0.20861 0.02629,0.41638 0.04143,0.62357c0.43709,-2.77051 0.6015,-5.37666 0.6015,-8.20389c0,0 0,-0.25 0.25,-0.25c0.25,0 0.25,0.25 0.25,0.25c0,3.00467 -0.18505,5.76893 -0.68101,8.7334c-0.0717,0.42742 -0.17379,0.84213 -0.27862,1.2611c0.0545,0.72208 0.09713,1.44546 0.09713,2.1805v0.14c0,0 0,0.25 -0.25,0.25c-0.09406,0 -0.15273,-0.03539 -0.18933,-0.07954c0.10383,0.79226 0.17683,1.58741 0.17683,2.38954v0.125c0,0 0,0.25 -0.25,0.25c-0.25,0 -0.25,-0.25 -0.25,-0.25v-0.125c0,-0.18079 -0.00371,-0.36124 -0.01065,-0.54138c-0.03677,0.16229 -0.07795,0.324 -0.12397,0.48506l-0.22867,-0.00713c0.11357,0.06078 0.12499,0.20351 0.12499,0.20351c0.08602,1.07528 0.13701,2.1661 0.03977,3.24257l-0.0518,0.17642c0,0 -0.07906,0.23717 -0.31623,0.15811c-0.04005,-0.01335 -0.07109,-0.03121 -0.09501,-0.05168c-0.09343,0.18666 -0.20562,0.35666 -0.33843,0.50212c0,0.31913 0,0.63826 0,0.95739v0.125c0,0 0,0.25 -0.25,0.25c-0.25,0 -0.25,-0.25 -0.25,-0.25c0,-0.23211 0,-0.46916 0,-0.70919c-0.24049,0.11252 -0.52171,0.16549 -0.84811,0.13978l-0.35974,-0.2337c0,0 -0.20689,-0.14035 -0.06654,-0.34724c0.14035,-0.20689 0.34724,-0.06654 0.34724,-0.06654l0.2428,0.17505c0.27372,0.01641 0.49968,-0.06944 0.68435,-0.22178c0,-0.79422 0,-1.60413 0,-2.36139c0,0 0,-0.25 0.25,-0.25c0.25,0 0.25,0.25 0.25,0.25c0,0.52695 0,1.0539 0,1.58085c0.16158,-0.44689 0.22491,-0.96211 0.2225,-1.36585c0,0 0,-0.1572 0.12466,-0.22229c-0.01408,-0.48068 -0.04572,-0.96095 -0.08386,-1.43777c0,0 -0.01505,-0.18809 0.1444,-0.25053l-0.08448,-0.00263c0,0 -0.17678,-0.17678 0,-0.35355c0.04915,-0.04915 0.09829,-0.07097 0.14364,-0.07685c0.18808,-0.7661 0.2701,-1.5476 0.29427,-2.33518c-0.03799,-0.2637 -0.07852,-0.52718 -0.12003,-0.79058c-0.0736,0.0061 -0.17014,-0.01465 -0.23222,-0.13881c-0.09466,-0.18932 0.05112,-0.2985 0.09805,-0.32753c0.01353,-0.04239 0.0267,-0.08505 0.03952,-0.12797c-0.11284,-0.7061 -0.22426,-1.41247 -0.30417,-2.12203c-0.02735,0.0974 -0.05607,0.19393 -0.08625,0.28953c0.06893,0.82852 0.08462,1.64784 -0.04233,2.50544l-0.14011,0.28755c0,0 -0.1118,0.22361 -0.33541,0.1118c-0.22361,-0.1118 -0.1118,-0.33541 -0.1118,-0.33541l0.10989,-0.21245c0.08552,-0.65258 0.08859,-1.28262 0.05116,-1.91247c-0.13099,0.78082 -0.24599,1.52219 -0.44676,2.23602c0.00699,0.6686 0.00848,1.33544 0.00909,1.99763l0.00023,0.25284c0,0 0.00023,0.25 -0.24977,0.25023c-0.25,0.00023 -0.25023,-0.24977 -0.25023,-0.24977l-0.00023,-0.25284c-0.00022,-0.23553 -0.00054,-0.47164 -0.00117,-0.70821c-0.1332,0.26429 -0.28853,0.52556 -0.47185,0.7845l-0.44769,0.16349c0,0 -0.23526,0.07842 -0.31527,-0.15526c-0.06141,0.04132 -0.18849,0.09695 -0.31557,-0.03013c-0.17678,-0.17678 0,-0.35355 0,-0.35355l0.20908,-0.19615c0.26946,-1.26304 0.53446,-2.27074 0.69329,-3.38044c-0.00438,-0.10548 -0.0094,-0.21086 -0.01515,-0.31613c-0.04564,0.10547 -0.09202,0.2103 -0.13913,0.31445c-0.07543,0.16395 -0.15085,0.3279 -0.22628,0.49185l-0.28839,0.30998c0,0 -0.02519,0.02664 -0.06648,0.04987c0.08495,0.48769 0.13484,0.98313 0.13484,1.52836c0,0 0,0.25 -0.25,0.25c-0.25,0 -0.25,-0.25 -0.25,-0.25c0,-0.7188 -0.09029,-1.34018 -0.234,-1.97801c-0.04372,0.45917 -0.09126,0.91921 -0.14253,1.38062c0,0 -0.02241,0.20171 -0.2086,0.22145c-0.12936,0.96845 -0.32519,1.92672 -0.60564,2.86051c0.0629,0.17668 0.12875,0.35234 0.19609,0.52736l0.05483,0.11975c0,0 0.10332,0.22765 -0.12433,0.33097c-0.00763,0.00346 -0.01512,0.00655 -0.02247,0.00929c0.10902,1.02163 0.39092,2.35864 0.03946,3.13188l0.25125,0.03401c0,0 0.23717,0.07906 0.15811,0.31623c-0.07906,0.23717 -0.31623,0.15811 -0.31623,0.15811l-0.02074,-0.00898c0.0173,0.04968 0.0173,0.09181 0.0173,0.09181c0,0.22667 0,0.45333 0,0.68l-0.09788,0.29285c0,0 -0.09285,0.23212 -0.32497,0.13927zM231.4412,181.95716c0,0 0.04284,-0.2463 0.28914,-0.20347c0.03978,0.00692 0.07202,0.01915 0.09812,0.03478c-0.03865,-0.41468 -0.08901,-0.83233 -0.13924,-1.25927c0,0 -0.02921,-0.24829 0.21908,-0.2775c0.24829,-0.02921 0.2775,0.21908 0.2775,0.21908c0.00023,0.00193 0.00045,0.00385 0.00068,0.00578c0.14336,-0.7931 0.21906,-1.62682 0.26355,-2.47057c-0.06563,0.01781 -0.12315,0.02333 -0.17361,0.01879c-0.20553,1.04268 -0.50978,2.07903 -0.95731,3.13575c0.02334,0.39144 0.04203,0.784 0.05701,1.17709c0.02124,-0.12554 0.0428,-0.25232 0.06508,-0.38045zM227.9375,180.375v0.125c0,0 0,0.02611 -0.00844,0.06146c0.25879,-0.75588 0.29297,-1.7726 0.21923,-2.82657c-0.02676,0.00977 -0.05565,0.01511 -0.08579,0.01511c-0.13807,0 -0.25,-0.11193 -0.25,-0.25c0,-0.22523 0,-0.5646 0,-0.86387c-0.0031,0.01193 -0.0062,0.02386 -0.00931,0.03578c-0.05066,0.19419 -0.12942,0.48301 -0.22502,0.79792c0.20325,0.97115 0.35932,1.94684 0.35932,2.90517zM233.06403,179.40261c-0.0351,-0.3159 -0.08543,-0.62324 -0.14652,-0.92638c-0.02732,0.41081 -0.06325,0.8183 -0.11191,1.21908c0.0069,0.03186 0.0069,0.05469 0.0069,0.05469c0,0.44515 0.02244,0.88808 0.06014,1.32951c0.03509,-0.04175 0.09064,-0.07526 0.17851,-0.07925c0.03238,-0.00147 0.06075,0.00144 0.08561,0.00764c0.01567,-0.48425 0.00989,-0.97466 -0.01137,-1.46187c-0.05254,-0.06404 -0.06136,-0.14342 -0.06136,-0.14342zM230.48683,178.03499c-0.05742,0.39088 -0.1221,0.78085 -0.19379,1.17048c0.1001,0.37089 0.18123,0.74094 0.24692,1.11083c0.02456,-0.07447 0.04879,-0.14912 0.07269,-0.22395c-0.00043,-0.68467 -0.04148,-1.36765 -0.12583,-2.05736zM231.89855,177.29981c-0.00474,-0.05729 -0.00879,-0.10718 -0.01474,-0.14415c-0.00057,-0.00509 -0.00113,-0.01018 -0.0017,-0.01526c-0.17709,0.90219 -0.39787,1.80262 -0.66268,2.68287c0.00496,0.05468 0.0098,0.10939 0.01453,0.16413c0.30984,-0.89934 0.52128,-1.78913 0.66458,-2.6876zM230.80813,183.49862c0.00801,0.45824 0.00814,0.91924 0.00686,1.38427c0.04019,-0.11959 0.07741,-0.23965 0.11214,-0.36031c-0.00594,-0.5255 -0.01544,-1.05199 -0.0308,-1.57804c-0.02696,0.18383 -0.05638,0.36847 -0.08821,0.55408zM232.08513,173.87603c0.03496,0.00318 0.06457,0.01082 0.08964,0.02161c0.00935,-0.41764 0.01273,-0.84133 0.01273,-1.27264c0,-0.4245 0,-0.84901 0,-1.27351c-0.00096,0.88833 -0.01286,1.71122 -0.12867,2.52312c0.00848,0.00013 0.01724,0.00059 0.02631,0.00142zM232.49601,176.80725c-0.00514,-0.0182 -0.01029,-0.03641 -0.01545,-0.05464c-0.02435,0.19286 -0.05141,0.38515 -0.08146,0.57703c0.0196,0.09156 0.05087,-0.0014 0.0872,-0.19559c0.00352,-0.10896 0.00673,-0.21791 0.00971,-0.32679zM228.24311,172.16696c-0.01398,-0.06395 -0.02829,-0.12804 -0.04295,-0.19227c0.00621,0.11589 0.01216,0.2318 0.01785,0.34774c0.00846,-0.05181 0.01683,-0.10363 0.0251,-0.15547zM233.44656,185.14614c0.00099,0.00688 0.00199,0.01376 0.00298,0.02064c-0.00023,-0.03311 -0.00054,-0.06619 -0.00094,-0.09926c-0.00062,0.02621 -0.0013,0.05242 -0.00204,0.07862z" fill="#04ff00" stroke-width="0.5"/><path d="M246.16322,191.41678c-0.17678,-0.17678 0,-0.35355 0,-0.35355l0.01816,0.02221c0.22052,-0.70566 0.39971,-1.33374 0.46975,-2.06913c0,0 0.0237,-0.24887 0.27258,-0.22517c0.24887,0.0237 0.22517,0.27258 0.22517,0.27258c-0.07325,0.76907 -0.25988,1.43368 -0.49025,2.17087l-0.14184,0.18221c0,0 -0.17678,0.17678 -0.35355,0z" fill="#04ff00" stroke-width="0.5"/><path d="M248.94625,170.02188c0.06208,0.03146 0.12375,0.09395 0.12375,0.21812c0,0.25 -0.25,0.25 -0.25,0.25l-0.25854,-0.12859c-0.00247,-0.00446 -0.00493,-0.00893 -0.00738,-0.01341l-0.0773,0.10878c0,0 -0.17678,0.17678 -0.35355,0c-0.17678,-0.17678 0,-0.35355 0,-0.35355l0.01135,0.04917c0.03611,-0.18611 0.06601,-0.36703 0.09063,-0.54538c-0.10337,-0.27592 -0.19681,-0.55822 -0.30004,-0.83435l-0.01709,0.13835c0,0 -0.03101,0.24807 -0.27908,0.21706c-0.24807,-0.03101 -0.21706,-0.27908 -0.21706,-0.27908l0.03855,-0.30453c-0.00031,-0.2584 0.00117,-0.51355 -0.00696,-0.76895c-0.03297,-0.04948 -0.06742,-0.09802 -0.10353,-0.14551c0,0 -0.15,-0.2 0.05,-0.35c0.00716,-0.00537 0.01425,-0.01029 0.02127,-0.01478c-0.00001,-0.00011 -0.00002,-0.00023 -0.00003,-0.00034c0,0 -0.02488,-0.24876 0.22388,-0.27364c0.24876,-0.02488 0.27364,0.22388 0.27364,0.22388c0.0138,0.13902 0.02302,0.27731 0.02915,0.41537c0.15296,0.26085 0.27338,0.53895 0.3826,0.82315c0.00675,-0.19947 0.00949,-0.40282 0.00949,-0.61364c0,0 0,-0.25 0.25,-0.25c0.25,0 0.25,0.25 0.25,0.25c0,0.6052 -0.02276,1.15599 -0.09497,1.72471c0.06417,0.15558 0.13337,0.30859 0.21122,0.45716z" fill="#04ff00" stroke-width="0.5"/><path d="M253.46094,170.99717c-0.12084,-0.04028 -0.15959,-0.12161 -0.16853,-0.19169c-0.11531,-0.02222 -0.20242,-0.12368 -0.20242,-0.24548c0,-0.41333 0,-1.10667 0,-1.52c0,0 0,-0.25 0.25,-0.25c0.25,0 0.25,0.25 0.25,0.25c0,0.15901 0,0.31801 0,0.47702c0.12796,-0.68454 0.1835,-1.35898 0.10153,-2.08941c0,0 -0.02761,-0.24847 0.22086,-0.27608c0.24847,-0.02761 0.27608,0.22086 0.27608,0.22086c0.12369,1.12358 -0.05064,2.1303 -0.32861,3.21807l-0.08269,0.2486c0,0 -0.07906,0.23717 -0.31623,0.15811z" fill="#04ff00" stroke-width="0.5"/><path d="M230.74,172.77c-0.25,0 -0.25,-0.25 -0.25,-0.25l0.00001,-0.31747c-0.01305,-0.64203 -0.06807,-1.21533 -0.18009,-1.802c-0.21394,-0.0547 -0.17659,-0.28121 -0.17659,-0.28121l0.04719,-0.28615c0.00058,-0.00372 0.00116,-0.00743 0.00174,-0.01115c-0.02586,-0.10372 -0.05355,-0.20862 -0.08314,-0.31512c0,0 -0.06691,-0.24088 0.17397,-0.30779c0.0022,-0.00061 0.00438,-0.00119 0.00655,-0.00175c0.09557,-0.60666 0.19641,-1.20535 0.33677,-1.81358c0,0 0.05621,-0.2436 0.29981,-0.18738c0.2436,0.05621 0.18738,0.29981 0.18738,0.29981c-0.17814,0.77192 -0.29161,1.52658 -0.41201,2.3041c0.19168,0.79919 0.28115,1.54494 0.2984,2.39715l0.00001,0.32253c0,0 0,0.25 -0.25,0.25z" fill="#04ff00" stroke-width="0.5"/><path d="M237.5,167.93c-0.25,0 -0.25,-0.25 -0.25,-0.25l0.00096,-0.33811c-0.0559,-0.31046 0.00807,-0.65523 -0.28963,-0.81387c0,0 -0.20801,-0.13868 -0.06934,-0.34669c0.13868,-0.20801 0.34669,-0.06934 0.34669,-0.06934c0.43534,0.32244 0.421,0.67417 0.51037,1.18613l0.00096,0.38189c0,0 0,0.25 -0.25,0.25z" fill="#04ff00" stroke-width="0.5"/><path d="M254.16322,173.53678c-0.17678,-0.17678 0,-0.35355 0,-0.35355l0.07972,-0.06726c0.64882,-1.10242 0.20356,-3.54797 0.0102,-4.75647c0,0 -0.0395,-0.24686 0.20736,-0.28636c0.24686,-0.0395 0.28636,0.20736 0.28636,0.20736c0.21799,1.36241 0.62934,3.8316 -0.0698,5.08353l-0.16028,0.17274c0,0 -0.17678,0.17678 -0.35355,0z" fill="#04ff00" stroke-width="0.5"/><path d="M253.14333,188.31434c-0.15434,-0.19667 0.04233,-0.35101 0.04233,-0.35101l0.10853,-0.06582c0.43822,-0.70404 0.65227,-1.50832 1.0222,-2.24931c0,0 0.1118,-0.22361 0.33541,-0.1118c0.22361,0.1118 0.1118,0.33541 0.1118,0.33541c-0.3784,0.7556 -0.59948,1.56794 -1.04439,2.28904l-0.22488,0.19582c0,0 -0.19667,0.15434 -0.35101,-0.04233z" fill="#04ff00" stroke-width="0.5"/><path d="M225.51957,189.46616c0.02187,0.02373 0.16065,0.18717 -0.00279,0.35061c-0.17678,0.17678 -0.35355,0 -0.35355,0l-0.10098,-0.13948c-0.73261,-2.25353 -0.57225,-4.53543 -0.57225,-6.87729c0,0 0,-0.25 0.25,-0.25c0.25,0 0.25,0.25 0.25,0.25c0,2.26727 -0.16449,4.48475 0.52957,6.66616z" fill="#04ff00" stroke-width="0.5"/><path d="M229.71,193.68c0,0.25 -0.25,0.25 -0.25,0.25l-0.46808,-0.04857c-0.20782,-0.51569 -0.36791,-1.00364 -0.49528,-1.54417c0,0 -0.05726,-0.24335 0.18609,-0.30061c0.24335,-0.05726 0.30061,0.18609 0.30061,0.18609c0.09916,0.42206 0.24133,0.82752 0.30472,1.25583l0.17192,-0.04857c0,0 0.25,0 0.25,0.25z" fill="#04ff00" stroke-width="0.5"/><path d="M251.32063,192.80254c-0.24254,0.06063 -0.30317,-0.1819 -0.30317,-0.1819l-0.04622,-0.19576c-0.01333,-0.13333 -0.02667,-0.26667 -0.04,-0.4c0,0 -0.02488,-0.24876 0.22388,-0.27364c0.24876,-0.02488 0.27364,0.22388 0.27364,0.22388c0.01333,0.13333 0.02667,0.26667 0.04,0.4l0.03378,0.12424c0,0 0.06063,0.24254 -0.1819,0.30317z" fill="#04ff00" stroke-width="0.5"/></g></g></svg>