<svg version="1.1" xmlns="http://www.w3.org/2000/svg" xmlns:xlink="http://www.w3.org/1999/xlink" width="25.625" height="25.625" viewBox="0,0,25.625,25.625"><g transform="translate(-227.1875,-167.1875)"><g data-paper-data="{&quot;isPaintingLayer&quot;:true}" fill-rule="nonzero" stroke-linejoin="miter" stroke-miterlimit="10" stroke-dasharray="" stroke-dashoffset="0" style="mix-blend-mode: normal"><path d="M227.1875,192.8125v-25.625h25.625v25.625z" fill-opacity="0.67059" fill="#459c4c" stroke="none" stroke-width="0" stroke-linecap="butt"/><path d="M247.81251,187.12502l-15.5,-14.625" fill="none" stroke="#ff0000" stroke-width="1.5" stroke-linecap="round"/><path d="M232.68751,186.62502l14.125,-13.875" fill="none" stroke="#ff0000" stroke-width="1.5" stroke-linecap="round"/><path d="M230.06251,187.43752c0.19212,-0.10807 0.40325,-0.18308 0.6213,-0.23278c0.20088,-0.05203 0.41156,-0.07972 0.6287,-0.07972c5.00331,-0.19665 12.86769,-0.38466 17.5,-0.25c1.31651,0.03827 2.5,0.87411 2.5,2.5c0,1.62858 -1.18349,2.46035 -2.5,2.5c-4.06321,0.12236 -7.02859,-0.2614 -10.57643,0.17536c-0.11775,0.0145 -7.26216,1.35712 -8.19241,-0.27082c-0.73685,-0.43488 -1.23117,-1.23698 -1.23117,-2.15454c0,-0.81357 0.38862,-1.53638 0.99036,-1.99291c0.07697,-0.07451 0.16278,-0.14011 0.25964,-0.19459z" fill="#9966ff" stroke="none" stroke-width="0.5" stroke-linecap="butt"/></g></g></svg>