<svg version="1.1" xmlns="http://www.w3.org/2000/svg" xmlns:xlink="http://www.w3.org/1999/xlink" width="25.625" height="25.625" viewBox="0,0,25.625,25.625"><g transform="translate(-227.1875,-167.1875)"><g data-paper-data="{&quot;isPaintingLayer&quot;:true}" fill-rule="nonzero" stroke-linecap="butt" stroke-linejoin="miter" stroke-miterlimit="10" stroke-dasharray="" stroke-dashoffset="0" style="mix-blend-mode: normal"><path d="M227.1875,192.8125v-25.625h25.625v25.625z" fill-opacity="0.67059" fill="#459c4c" stroke="none" stroke-width="0"/><path d="M229.9375,189.70833v-7.875h19.5v7.875z" fill-opacity="0.67059" fill="#459c4c" stroke="#000000" stroke-width="2.5"/><path d="M238.5625,180.95833v-5.375h11v5.375z" fill-opacity="0.67059" fill="#459c4c" stroke="#000000" stroke-width="2.5"/><path d="M230.1875,177.70833c-0.75,0 -0.75,-0.75 -0.75,-0.75v-0.625c0,-0.89064 0.2816,-1.99545 -0.33565,-2.65648c0,0 -0.27609,-0.34511 -0.13947,-0.71743c-0.11556,-0.33293 0.09335,-0.65536 0.10087,-0.6668c0.01601,-0.42632 0.28344,-0.5964 0.49428,-0.66425c0.66354,-0.80806 1.38686,-1.41957 2.04431,-2.26356l0.30532,-0.31181c0,0 0.53033,-0.53033 1.06066,0c0.53033,0.53033 0,1.06066 0,1.06066l-0.19468,0.18819c-0.56322,0.6902 -1.11979,1.19387 -1.65593,1.7919c1.77294,0.92938 3.44869,2.02565 4.04142,4.03354c0,0 0.20604,0.72114 -0.5151,0.92718c-0.72114,0.20604 -0.92718,-0.5151 -0.92718,-0.5151c-0.38816,-1.41906 -1.67896,-2.28209 -2.98868,-2.97009c0.31883,0.85704 0.20983,1.7112 0.20983,2.76405v0.625c0,0 0,0.75 -0.75,0.75z" fill="#000000" stroke="none" stroke-width="0.5"/></g></g></svg>